<svg width="74" height="74" viewBox="0 0 74 74" fill="none" xmlns="http://www.w3.org/2000/svg">
<path d="M71.0291 20.927C71.0013 20.5752 70.8661 20.2404 70.6418 19.968C70.433 19.692 70.1424 19.4889 69.8113 19.3879C69.6351 19.3394 69.4509 19.3272 69.2698 19.3519C69.0887 19.3766 68.9144 19.4377 68.7576 19.5316C68.5715 19.6445 68.4158 19.8013 68.3044 19.9883C68.2152 19.8116 68.0882 19.6569 67.9323 19.535C67.7872 19.4239 67.6212 19.3431 67.4442 19.2975C67.2673 19.2519 67.083 19.2424 66.9022 19.2695C66.5618 19.3328 66.2497 19.5007 66.0092 19.7498C65.7556 19.9952 65.5827 20.312 65.5137 20.6581C65.4343 21.1009 65.4995 21.5575 65.6997 21.9604C65.9352 22.3709 66.2658 22.7189 66.6638 22.9752C67.3065 23.4149 68.1555 23.9697 68.1555 23.9697C68.1555 23.9697 68.9285 23.4623 69.6185 23.0953C70.0429 22.8858 70.4116 22.5785 70.6942 22.1989C70.9389 21.8216 71.0562 21.3758 71.0291 20.927Z" fill="#E0E0E0"/>
<path d="M18.4134 12.8415C18.3952 12.6045 18.3043 12.3788 18.1529 12.1954C18.0124 12.0104 17.8171 11.8742 17.5948 11.8064C17.4763 11.774 17.3524 11.7658 17.2306 11.7824C17.1089 11.799 16.9917 11.8399 16.8861 11.9028C16.7611 11.9784 16.6566 12.0836 16.5817 12.209C16.521 12.0907 16.4357 11.9869 16.3314 11.9045C16.2333 11.8314 16.1215 11.7788 16.0027 11.7498C15.8838 11.7207 15.7604 11.7158 15.6396 11.7354C15.4085 11.7732 15.1953 11.8833 15.0307 12.05C14.8574 12.2135 14.7391 12.4269 14.6925 12.6606C14.639 12.9579 14.6829 13.2646 14.8176 13.535C14.9766 13.8089 15.1987 14.0408 15.4654 14.2115C15.8967 14.5075 16.4684 14.888 16.4684 14.888C16.4684 14.888 16.9876 14.5498 17.451 14.2995C17.7371 14.1597 17.9854 13.9532 18.1749 13.6973C18.3447 13.4453 18.4284 13.1451 18.4134 12.8415Z" fill="#E0E0E0"/>
<path d="M30.2612 10.371C30.2403 9.88449 30.0689 9.41646 29.7708 9.03147C29.4959 8.63941 29.1048 8.3436 28.6528 8.18581C28.4118 8.11148 28.1583 8.08664 27.9074 8.1128C27.6566 8.13896 27.4136 8.21557 27.1932 8.33803C26.9314 8.48527 26.7096 8.6943 26.5471 8.9469C26.3824 8.59252 26.1093 8.29964 25.7673 8.11055C25.4253 7.92146 25.032 7.84594 24.6443 7.8949C24.1725 7.96595 23.7348 8.18302 23.3927 8.51561C23.0313 8.84172 22.7786 9.27091 22.6689 9.74521C22.5394 10.3523 22.6081 10.9848 22.8651 11.5499C23.1718 12.1268 23.6126 12.6216 24.1505 12.9926C25.0164 13.6285 26.1615 14.4302 26.1615 14.4302C26.1615 14.4302 27.2524 13.7537 28.2198 13.2902C28.8147 13.0233 29.3368 12.6172 29.742 12.1063C30.0975 11.5989 30.2796 10.9903 30.2612 10.371Z" fill="#E0E0E0"/>
<path d="M6.54368 38.523C6.52383 38.2889 6.43295 38.0664 6.28322 37.8854C6.14299 37.6996 5.94765 37.5628 5.72508 37.4947C5.60682 37.4623 5.48324 37.4541 5.36175 37.4707C5.24026 37.4873 5.12337 37.5282 5.0181 37.5911C4.89508 37.6641 4.79083 37.7649 4.71366 37.8854C4.65403 37.7665 4.5685 37.6624 4.46334 37.5809C4.36612 37.5059 4.25465 37.4515 4.13573 37.421C4.0168 37.3905 3.89291 37.3845 3.77159 37.4033C3.54282 37.4452 3.33288 37.5576 3.17117 37.7247C2.9991 37.8892 2.88113 38.1021 2.8329 38.3353C2.7804 38.6332 2.82424 38.9401 2.95806 39.2114C3.11731 39.485 3.33934 39.7169 3.60584 39.8879C4.03882 40.1839 4.6088 40.556 4.6088 40.556C4.6088 40.556 5.12804 40.2177 5.59315 39.9691C5.87837 39.8287 6.12596 39.6223 6.31535 39.367C6.47882 39.1169 6.55876 38.8214 6.54368 38.523Z" fill="#E0E0E0"/>
<path d="M20.6308 6.21877C20.6191 6.04317 20.5535 5.87544 20.443 5.73844C20.3389 5.60037 20.1939 5.49859 20.0287 5.44753C19.885 5.40578 19.7315 5.41285 19.5922 5.46763C19.453 5.52241 19.3358 5.62181 19.2591 5.75027C19.2144 5.66204 19.1509 5.58467 19.0731 5.52364C19.0003 5.46812 18.9172 5.4277 18.8286 5.40475C18.74 5.3818 18.6478 5.3768 18.5572 5.39002C18.3873 5.42253 18.2315 5.50635 18.1107 5.63019C17.9857 5.75486 17.9019 5.91481 17.8705 6.08854C17.8295 6.31048 17.8622 6.53974 17.9635 6.7414C18.0816 6.94648 18.2468 7.12043 18.4456 7.2488C18.7669 7.46867 19.1915 7.74605 19.1915 7.74605C19.1915 7.74605 19.5788 7.49066 19.9238 7.30799C20.137 7.20404 20.3221 7.05031 20.4633 6.85979C20.5866 6.66968 20.6453 6.44489 20.6308 6.21877Z" fill="#E0E0E0"/>
<path d="M58.1377 57.2374C58.1198 57.0011 58.0294 56.7761 57.8789 56.593C57.738 56.408 57.5429 56.2714 57.3208 56.2023C57.1307 56.1491 56.9284 56.1598 56.745 56.2328C56.5617 56.3059 56.4074 56.4372 56.306 56.6066C56.2464 56.4876 56.1608 56.3836 56.0557 56.3021C55.9585 56.2271 55.847 56.1727 55.7281 56.1422C55.6091 56.1117 55.4853 56.1057 55.3639 56.1245C55.1352 56.1664 54.9252 56.2787 54.7635 56.4459C54.5915 56.6104 54.4735 56.8233 54.4252 57.0565C54.3727 57.3544 54.4166 57.6613 54.5504 57.9326C54.7097 58.2062 54.9317 58.4381 55.1982 58.6091C55.6312 58.9051 56.2011 59.2772 56.2011 59.2772C56.2011 59.2772 56.7221 58.9389 57.1855 58.6903C57.4707 58.5499 57.7183 58.3435 57.9077 58.0882C58.0739 57.8367 58.1546 57.5384 58.1377 57.2374Z" fill="#E0E0E0"/>
<path d="M11.7479 53.3006C11.7069 52.7763 11.5055 52.2773 11.1712 51.8714C10.8602 51.4615 10.4283 51.1598 9.9365 51.0088C9.6741 50.9378 9.4001 50.9202 9.13077 50.9571C8.86144 50.994 8.60227 51.0846 8.36864 51.2236C8.09165 51.391 7.85948 51.6231 7.6921 51.9001C7.56013 51.6364 7.37122 51.4054 7.13904 51.2236C6.92302 51.0587 6.67607 50.9388 6.41285 50.8711C6.14962 50.8034 5.87548 50.7893 5.60669 50.8295C5.10048 50.923 4.63621 51.1726 4.279 51.5433C3.90053 51.9082 3.64314 52.3805 3.54157 52.8963C3.42341 53.5553 3.52005 54.2347 3.81726 54.8346C4.16824 55.4451 4.65997 55.9629 5.25151 56.345C6.2088 56.9978 7.47054 57.8266 7.47054 57.8266C7.47054 57.8266 8.62234 57.0655 9.64897 56.5259C10.2808 56.2154 10.8294 55.7585 11.249 55.1932C11.6137 54.632 11.7886 53.9686 11.7479 53.3006Z" fill="#E0E0E0"/>
<path d="M57.3344 8.27563C57.3134 8.00952 57.2113 7.75626 57.0418 7.55005C56.8825 7.34201 56.6627 7.18839 56.4126 7.1103C56.199 7.05125 55.9719 7.06375 55.7661 7.14591C55.5602 7.22807 55.3869 7.37536 55.2726 7.56527C55.1769 7.37349 55.0224 7.21734 54.8316 7.11966C54.6408 7.02198 54.4237 6.98788 54.2122 7.02235C53.9544 7.06942 53.7178 7.19598 53.5357 7.3843C53.343 7.56994 53.212 7.8102 53.1602 8.07267C53.1008 8.40736 53.15 8.75229 53.3006 9.05703C53.4784 9.36781 53.7284 9.63119 54.0295 9.82489C54.5166 10.1632 55.1576 10.5775 55.1576 10.5775C55.1576 10.5775 55.7428 10.1902 56.2655 9.91622C56.5863 9.75817 56.8651 9.52632 57.079 9.23969C57.2659 8.9543 57.3555 8.61612 57.3344 8.27563Z" fill="#E0E0E0"/>
<path d="M73.4426 72.9756C73.4426 72.9993 56.9995 73.0196 36.7221 73.0196C16.4447 73.0196 -7.62939e-05 72.9993 -7.62939e-05 72.9756C-7.62939e-05 72.9519 16.438 72.9316 36.7221 72.9316C57.0063 72.9316 73.4426 72.9519 73.4426 72.9756Z" fill="#263238"/>
<path d="M41.5526 61.9243C29.7133 60.6609 19.9593 55.1099 15.2693 50.2085C13.3159 48.1607 11.8462 45.7012 10.9682 43.0109C10.0901 40.3205 9.82601 37.4676 10.1953 34.6617C10.9344 28.9721 14.1056 23.4888 19.0731 20.6237C24.0405 17.7586 30.7805 17.8837 35.2405 21.493C37.2803 16.5746 42.6452 13.4 47.9695 13.4744C53.2938 13.5488 58.361 16.6152 61.3598 21.0144C64.3585 25.4135 65.3801 30.9932 64.7002 36.277C64.0202 41.5607 61.7268 46.5467 58.6249 50.8748C54.5454 56.5696 48.5412 61.4305 41.5543 61.9311" fill="#E50C00"/>
<path opacity="0.8" d="M41.5526 61.9243C29.7133 60.6609 19.9593 55.1099 15.2693 50.2085C13.3159 48.1607 11.8462 45.7012 10.9682 43.0109C10.0901 40.3205 9.82601 37.4676 10.1953 34.6617C10.9344 28.9721 14.1056 23.4888 19.0731 20.6237C24.0405 17.7586 30.7805 17.8837 35.2405 21.493C37.2803 16.5746 42.6452 13.4 47.9695 13.4744C53.2938 13.5488 58.361 16.6152 61.3598 21.0144C64.3585 25.4135 65.3801 30.9932 64.7002 36.277C64.0202 41.5607 61.7268 46.5467 58.6249 50.8748C54.5454 56.5696 48.5412 61.4305 41.5543 61.9311" fill="white"/>
<path d="M65.6964 69.1362C65.6876 69.1023 65.6751 69.0694 65.6591 69.0381L65.5357 68.7523C65.3873 68.3845 65.2702 68.0049 65.1856 67.6174C64.9606 66.6026 64.92 65.0804 65.3547 63.2808C65.591 62.2994 65.891 61.3344 66.2528 60.392C66.6249 59.3688 67.0562 58.2829 67.4164 57.1075C67.7767 55.932 68.0659 54.6584 68.0591 53.3104C68.0524 51.9624 67.6972 50.6043 67.2997 49.2512C66.9023 47.8982 66.493 46.5671 66.3983 45.2428C66.2888 43.968 66.5848 42.6912 67.2439 41.5946C67.8596 40.5426 68.6207 39.6495 69.1974 38.7193C69.7373 37.8559 70.1444 36.9163 70.405 35.932C70.781 34.5055 70.8525 33.0158 70.6147 31.5599C70.5302 31.028 70.3937 30.5057 70.2071 30.0005C70.2117 30.0361 70.2196 30.0712 70.2308 30.1054C70.2511 30.1781 70.2782 30.2745 70.3137 30.403C70.4166 30.7868 70.499 31.1758 70.5606 31.5684C70.7758 33.0157 70.6906 34.4919 70.3103 35.9049C70.0457 36.877 69.6382 37.8044 69.101 38.6567C68.5243 39.5785 67.7615 40.4664 67.134 41.532C66.4578 42.6491 66.1529 43.9517 66.2629 45.2529C66.3577 46.606 66.7703 47.9354 67.1678 49.2901C67.5653 50.6449 67.9171 51.9963 67.9255 53.3155C67.9029 54.5916 67.6897 55.8572 67.293 57.0703C66.9378 58.2407 66.5133 59.3265 66.1429 60.3514C65.7856 61.2988 65.4917 62.269 65.2634 63.2555C64.8372 65.0703 64.893 66.6144 65.1348 67.6259C65.226 68.015 65.3528 68.3949 65.5137 68.7607L65.649 69.0398C65.6617 69.0734 65.6776 69.1056 65.6964 69.1362Z" fill="#263238"/>
<path d="M68.4228 39.6243C68.4228 39.6243 69.6473 36.1047 67.7192 33.9601C67.7041 33.943 67.6845 33.9304 67.6627 33.9238C67.6408 33.9172 67.6176 33.9167 67.5955 33.9225C67.5734 33.9283 67.5534 33.9401 67.5376 33.9565C67.5218 33.973 67.5109 33.9936 67.5061 34.0159C67.3809 34.5994 67.1915 36.382 68.4228 39.6243Z" fill="#E50C00"/>
<path d="M67.8985 35.1528C67.8935 35.3734 67.9117 35.5939 67.9526 35.8108C68.0101 36.264 68.0794 36.7985 68.1555 37.3871L68.3551 38.9617C68.3677 39.1819 68.4006 39.4004 68.4532 39.6146C68.479 39.3949 68.479 39.1729 68.4532 38.9533C68.4295 38.5456 68.3754 37.9858 68.2942 37.3685C68.2131 36.7511 68.1251 36.1964 68.049 35.7955C68.0224 35.5765 67.9719 35.3609 67.8985 35.1528Z" fill="#263238"/>
<path d="M66.8515 47.9676C66.8515 47.9676 66.2883 44.2839 63.5805 43.2911C63.559 43.2806 63.5349 43.2767 63.5112 43.2799C63.4875 43.283 63.4652 43.293 63.4472 43.3087C63.4292 43.3244 63.4162 43.345 63.4098 43.3681C63.4034 43.3911 63.4039 43.4155 63.4113 43.4382C63.5805 44.0133 64.2486 45.6776 66.8515 47.9676Z" fill="#E50C00"/>
<path d="M64.2959 44.2603C64.3957 44.457 64.5146 44.6434 64.6511 44.8167L65.5695 46.114L66.4828 47.4129C66.5956 47.6026 66.7265 47.781 66.8735 47.9457C66.7943 47.7388 66.6904 47.5423 66.564 47.3605C66.3526 47.0104 66.0431 46.5402 65.6828 46.0328C65.3226 45.5254 64.9843 45.0772 64.7306 44.7575C64.6053 44.5756 64.4594 44.4088 64.2959 44.2603Z" fill="#263238"/>
<path d="M67.3014 57.1782C67.3014 57.1782 67.8308 53.4894 65.5289 51.7524C65.511 51.7383 65.4895 51.7295 65.4668 51.7269C65.4442 51.7243 65.4212 51.728 65.4006 51.7376C65.3799 51.7473 65.3623 51.7624 65.3497 51.7815C65.3371 51.8005 65.3301 51.8226 65.3293 51.8454C65.3192 52.4424 65.4731 54.2302 67.3014 57.1782Z" fill="#E50C00"/>
<path d="M65.9398 52.8877C65.9791 53.1049 66.0391 53.3179 66.1191 53.5236L66.6265 55.0323L67.1238 56.541C67.1771 56.7544 67.2507 56.9623 67.3437 57.1617C67.3272 56.9411 67.2852 56.7231 67.2185 56.5122C67.117 56.1181 66.9563 55.5769 66.7585 54.99C66.5606 54.4031 66.3678 53.872 66.2189 53.4932C66.1498 53.2812 66.0561 53.078 65.9398 52.8877Z" fill="#263238"/>
<path d="M64.947 66.354C64.947 66.354 65.3445 62.6483 62.9817 60.9942C62.9632 60.9811 62.9414 60.9734 62.9188 60.9719C62.8962 60.9705 62.8736 60.9752 62.8536 60.9857C62.8335 60.9962 62.8167 61.012 62.805 61.0314C62.7933 61.0508 62.7871 61.073 62.7872 61.0956C62.7974 61.6927 63.0155 63.4737 64.947 66.354Z" fill="#E50C00"/>
<path d="M63.4265 62.1157C63.4712 62.3314 63.5387 62.5418 63.6278 62.7432C63.7868 63.1728 63.9745 63.6768 64.1826 64.2333L64.7322 65.7233C64.793 65.9352 64.874 66.1408 64.9741 66.3373C64.9505 66.1173 64.9005 65.901 64.8253 65.6929C64.7103 65.3005 64.531 64.766 64.3179 64.1842C64.1048 63.6024 63.8866 63.0815 63.7242 62.7077C63.6467 62.5002 63.5469 62.3017 63.4265 62.1157Z" fill="#263238"/>
<path d="M70.1191 36.5529C70.1191 36.5529 73.4747 34.9326 73.632 32.0523C73.6334 32.0295 73.6285 32.0069 73.6178 31.9868C73.6071 31.9668 73.5911 31.95 73.5715 31.9385C73.5519 31.9269 73.5295 31.921 73.5067 31.9214C73.484 31.9218 73.4618 31.9284 73.4426 31.9406C72.9403 32.2637 71.5449 33.3901 70.1191 36.5529Z" fill="#E50C00"/>
<path d="M72.9149 33.0215C72.755 33.1753 72.6116 33.3453 72.487 33.5289L71.5212 34.7822L70.5454 36.0354C70.3982 36.1998 70.2669 36.3776 70.153 36.5665C70.3271 36.4301 70.4844 36.2734 70.6215 36.0997C70.8938 35.7953 71.2523 35.3606 71.6363 34.8667C72.0202 34.3729 72.3449 33.9179 72.5766 33.583C72.7093 33.4086 72.8227 33.2203 72.9149 33.0215Z" fill="#263238"/>
<path d="M66.3323 44.0742C66.3323 44.0742 69.7809 42.662 70.1124 39.7968C70.1153 39.7742 70.1119 39.7511 70.1025 39.7303C70.0931 39.7095 70.078 39.6917 70.0591 39.6789C70.0402 39.6661 70.0181 39.6588 69.9952 39.6578C69.9724 39.6569 69.9497 39.6622 69.9298 39.6734C69.4088 39.966 67.9475 41.0045 66.3323 44.0742Z" fill="#E50C00"/>
<path d="M69.3378 40.7188C69.1694 40.862 69.0158 41.0218 68.8794 41.1957L67.8342 42.3915C67.4418 42.838 67.0866 43.2371 66.7855 43.5856C66.6285 43.7415 66.4858 43.9113 66.3593 44.093C66.5421 43.9681 66.709 43.8215 66.8566 43.6566C67.1458 43.3691 67.5331 42.9564 67.939 42.4879C68.345 42.0194 68.7052 41.583 68.9538 41.2617C69.1021 41.0959 69.2309 40.9138 69.3378 40.7188Z" fill="#263238"/>
<path d="M68.0202 52.6529C68.0202 52.6529 70.4456 49.8233 69.4359 47.1222C69.4281 47.1009 69.4146 47.0821 69.3968 47.0679C69.379 47.0537 69.3576 47.0448 69.3351 47.042C69.3125 47.0392 69.2896 47.0426 69.2689 47.052C69.2482 47.0614 69.2305 47.0763 69.2177 47.0952C68.8879 47.5924 68.0591 49.184 68.0202 52.6529Z" fill="#E50C00"/>
<path d="M69.1669 48.2979C69.0853 48.5022 69.0241 48.714 68.9843 48.9304C68.8727 49.3735 68.7424 49.8945 68.5987 50.4712C68.4549 51.048 68.3196 51.5672 68.208 52.0103C68.1391 52.2197 68.0893 52.4348 68.0591 52.653C68.1646 52.4589 68.2463 52.2527 68.3027 52.0391C68.4295 51.6501 68.5834 51.1088 68.734 50.505C68.8845 49.9012 69.0029 49.3516 69.0722 48.9507C69.1279 48.7373 69.1597 48.5183 69.1669 48.2979Z" fill="#263238"/>
<path d="M65.3902 62.5995C65.3902 62.5995 68.8152 61.1297 69.0959 58.2595C69.0988 58.2369 69.0952 58.214 69.0857 58.1933C69.0761 58.1727 69.061 58.1551 69.042 58.1426C69.023 58.1301 69.0008 58.1232 68.9781 58.1226C68.9553 58.122 68.9329 58.1279 68.9133 58.1394C68.3974 58.4405 66.9547 59.5026 65.3902 62.5995Z" fill="#E50C00"/>
<path d="M68.3382 59.1968C68.1726 59.3428 68.0219 59.5048 67.8883 59.6805L66.8633 60.8881L65.8333 62.0974C65.6804 62.2544 65.5413 62.4242 65.4172 62.6048C65.5979 62.4773 65.7621 62.3279 65.906 62.16C66.1919 61.8674 66.569 61.4496 66.9699 60.9761C67.3707 60.5025 67.7191 60.0594 67.9661 59.7346C68.1097 59.5697 68.2345 59.3893 68.3382 59.1968Z" fill="#263238"/>
<path d="M59.1323 47.7447C59.1283 47.7716 59.1283 47.799 59.1323 47.8259C59.1323 47.8902 59.1323 47.9697 59.1323 48.0644C59.1323 48.2876 59.1323 48.5904 59.1442 48.9692C59.1628 49.7642 59.1881 50.872 59.2186 52.1997C59.4165 53.5528 60.0558 55.075 60.9319 56.5498C61.5746 57.6407 62.2528 58.6335 62.8346 59.557C63.3642 60.3659 63.8366 61.2108 64.2486 62.0855C64.5198 62.6769 64.735 63.2924 64.8913 63.924C64.9437 64.1473 64.9826 64.3231 65.0046 64.4432C65.013 64.5049 65.0277 64.5656 65.0486 64.6242C65.0504 64.5618 65.0453 64.4994 65.0334 64.4382C65.0198 64.3164 64.9894 64.1388 64.9454 63.9122C64.8069 63.2729 64.6035 62.6495 64.3382 62.0517C63.9352 61.1689 63.4677 60.317 62.9395 59.5029C62.3611 58.5726 61.6862 57.5781 61.0469 56.494C60.1759 55.0208 59.5382 53.5291 59.3302 52.1946V52.2031C59.2795 50.8771 59.2355 49.7675 59.205 48.9726C59.1864 48.5955 59.1729 48.2961 59.1611 48.0695C59.1611 47.9747 59.1492 47.9003 59.1442 47.8327C59.1391 47.765 59.1357 47.743 59.1323 47.7447Z" fill="#263238"/>
<path d="M60.8743 56.2775C60.8743 56.2775 59.5534 52.7934 61.4223 50.5963C61.4369 50.5788 61.4561 50.5656 61.4777 50.5583C61.4993 50.551 61.5225 50.5498 61.5448 50.5549C61.567 50.5599 61.5874 50.5711 61.6037 50.5871C61.62 50.6031 61.6316 50.6232 61.6371 50.6454C61.7775 51.2255 62.016 53.0031 60.8743 56.2775Z" fill="#E50C00"/>
<path d="M61.2769 51.792C61.2076 52.0021 61.1627 52.2194 61.1433 52.4398C61.079 52.8423 61.0046 53.4005 60.9403 54.0195C60.876 54.6385 60.8388 55.2034 60.8253 55.6076C60.806 55.8281 60.8123 56.05 60.8439 56.2689C60.8904 56.0537 60.917 55.8346 60.9234 55.6144C60.969 55.1577 61.0215 54.6233 61.079 54.033C61.1365 53.4427 61.194 52.9083 61.2397 52.4516C61.274 52.2335 61.2865 52.0126 61.2769 51.792Z" fill="#263238"/>
<g opacity="0.3">
<path d="M60.8744 56.2775C60.8744 56.2775 59.5535 52.7934 61.4224 50.5963C61.437 50.5788 61.4561 50.5656 61.4778 50.5583C61.4994 50.551 61.5226 50.5498 61.5449 50.5549C61.5671 50.5599 61.5875 50.5711 61.6038 50.5871C61.6201 50.6031 61.6317 50.6232 61.6372 50.6454C61.7776 51.2255 62.016 53.0031 60.8744 56.2775Z" fill="black"/>
</g>
<path d="M65.0384 64.7069C65.0384 64.7069 64.005 61.1263 66.0448 59.0882C66.0609 59.0722 66.0811 59.0608 66.1033 59.0554C66.1254 59.0499 66.1486 59.0506 66.1704 59.0574C66.1921 59.0642 66.2116 59.0768 66.2267 59.0939C66.2419 59.1109 66.252 59.1318 66.2562 59.1542C66.3492 59.7445 66.4473 61.5356 65.0384 64.7069Z" fill="#E50C00"/>
<path d="M65.8029 60.269C65.7169 60.4727 65.6544 60.6855 65.6169 60.9033C65.5204 61.2991 65.4021 61.8487 65.287 62.461C65.172 63.0733 65.0892 63.6297 65.0435 64.0339C65.0047 64.2521 64.9933 64.4743 65.0097 64.6953C65.0724 64.4842 65.1166 64.268 65.1416 64.0492C65.2228 63.5993 65.3192 63.0699 65.424 62.4864C65.5289 61.9029 65.6304 61.3735 65.7133 60.9236C65.765 60.709 65.795 60.4897 65.8029 60.269Z" fill="#263238"/>
<g opacity="0.3">
<path d="M65.0384 64.7069C65.0384 64.7069 64.005 61.1263 66.0448 59.0882C66.0609 59.0722 66.0811 59.0608 66.1033 59.0554C66.1254 59.0499 66.1486 59.0506 66.1704 59.0574C66.1921 59.0642 66.2116 59.0768 66.2267 59.0939C66.2419 59.1109 66.252 59.1318 66.2562 59.1542C66.3492 59.7445 66.4473 61.5356 65.0384 64.7069Z" fill="black"/>
</g>
<path d="M59.1864 52.0166C59.1864 52.0166 56.2029 49.784 56.6021 46.9274C56.6047 46.9049 56.6134 46.8837 56.6273 46.8659C56.6412 46.8481 56.6597 46.8344 56.6808 46.8264C56.7019 46.8184 56.7248 46.8163 56.747 46.8204C56.7692 46.8245 56.7898 46.8346 56.8067 46.8496C57.2397 47.2673 58.3949 48.6407 59.1864 52.0166Z" fill="#E50C00"/>
<g opacity="0.3">
<path d="M59.1864 52.0166C59.1864 52.0166 56.2029 49.784 56.6021 46.9274C56.6047 46.9049 56.6134 46.8837 56.6273 46.8659C56.6412 46.8481 56.6597 46.8344 56.6808 46.8264C56.7019 46.8184 56.7248 46.8163 56.747 46.8204C56.7692 46.8245 56.7898 46.8346 56.8067 46.8496C57.2397 47.2673 58.3949 48.6407 59.1864 52.0166Z" fill="black"/>
</g>
<path d="M57.1196 48.0151C57.1753 48.2294 57.2541 48.4369 57.3547 48.6342C57.5238 49.0079 57.7538 49.5187 58.0312 50.0752C58.3086 50.6316 58.5775 51.1255 58.7856 51.4773C58.888 51.6737 59.0128 51.8576 59.1577 52.0253C59.0809 51.8185 58.9852 51.6192 58.8718 51.4299L58.1598 50.0126C57.8925 49.4815 57.6524 48.9978 57.4477 48.5919C57.3579 48.3891 57.248 48.1959 57.1196 48.0151Z" fill="#263238"/>
<path d="M63.9188 61.1548C63.9188 61.1548 60.257 60.4631 59.3522 57.7248C59.3447 57.7033 59.3432 57.6801 59.3481 57.6579C59.3529 57.6356 59.3638 57.6151 59.3795 57.5986C59.3953 57.5822 59.4153 57.5704 59.4373 57.5646C59.4594 57.5588 59.4826 57.5592 59.5044 57.5658C60.0778 57.7485 61.72 58.4724 63.9188 61.1548Z" fill="#E50C00"/>
<g opacity="0.3">
<path d="M63.9188 61.1548C63.9188 61.1548 60.257 60.4631 59.3522 57.7248C59.3447 57.7033 59.3432 57.6801 59.3481 57.6579C59.3529 57.6356 59.3638 57.6151 59.3795 57.5986C59.3953 57.5822 59.4153 57.5704 59.4373 57.5646C59.4594 57.5588 59.4826 57.5592 59.5044 57.5658C60.0778 57.7485 61.72 58.4724 63.9188 61.1548Z" fill="black"/>
</g>
<path d="M60.301 58.4727C60.4441 58.6409 60.6058 58.7924 60.783 58.9242C61.0942 59.1881 61.5306 59.5416 62.0262 59.9187C62.5217 60.2959 62.9801 60.6223 63.3217 60.8456C63.4991 60.9779 63.6916 61.0886 63.8951 61.1754C63.7362 61.0226 63.5629 60.8855 63.3775 60.7661L62.1107 59.8088L60.8439 58.8464C60.6762 58.7036 60.4943 58.5783 60.301 58.4727Z" fill="#263238"/>
<path d="M67.2152 68.037L67.7902 72.9757H61.6913L62.4659 67.8882L67.2152 68.037Z" fill="#455A64"/>
<path d="M62.1276 70.1176C62.1276 70.1565 63.3336 70.2259 64.8236 70.2732C66.3137 70.3206 67.5298 70.3273 67.5298 70.2884C67.5298 70.2495 66.3238 70.1819 64.8338 70.1345C63.3437 70.0872 62.1293 70.0804 62.1276 70.1176Z" fill="#263238"/>
<path d="M61.9771 70.6975C61.9771 70.7364 63.2219 70.8057 64.761 70.8548C66.3001 70.9038 67.5483 70.9123 67.55 70.8734C67.5517 70.8345 66.3035 70.7651 64.7644 70.7161C63.2253 70.667 61.9788 70.6501 61.9771 70.6975Z" fill="#263238"/>
<path d="M18.0076 32.9185C17.8909 32.6531 17.6955 32.4299 17.4478 32.2792C17.2112 32.1222 16.9316 32.0429 16.6478 32.0525C16.4982 32.0628 16.3521 32.1031 16.2184 32.1711C16.0847 32.2391 15.9662 32.3334 15.8698 32.4483C15.7554 32.5862 15.6764 32.7499 15.6398 32.9253C15.5233 32.8128 15.3836 32.7273 15.2305 32.675C15.088 32.6276 14.9374 32.6095 14.7877 32.6217C14.638 32.6339 14.4924 32.6762 14.3594 32.746C14.1124 32.8866 13.9159 33.1014 13.7979 33.3599C13.6661 33.6179 13.6171 33.9103 13.6575 34.1971C13.7155 34.5622 13.8892 34.899 14.1531 35.1578C14.4449 35.4111 14.7927 35.5914 15.1679 35.6838C15.7852 35.853 16.592 36.0525 16.592 36.0525C16.592 36.0525 17.0537 35.447 17.4901 34.9802C17.7638 34.7043 17.9674 34.3667 18.0837 33.9959C18.1747 33.6379 18.148 33.2601 18.0076 32.9185Z" fill="#E50C00"/>
<path d="M67.9357 14.928C68.0959 14.4695 68.1112 13.973 67.9797 13.5055C67.8671 13.0449 67.6135 12.631 67.2541 12.3216C66.9429 12.065 66.5558 11.9183 66.1527 11.9043C65.7497 11.8902 65.3532 12.0096 65.0249 12.2438C65.01 11.9727 64.9355 11.7082 64.8068 11.4692C64.6857 11.2488 64.5215 11.0551 64.3239 10.8996C64.1263 10.7441 63.8993 10.6301 63.6567 10.5643C63.1935 10.4554 62.7079 10.4944 62.2681 10.6759C61.8124 10.8434 61.4191 11.1469 61.1416 11.5453C60.7972 12.059 60.6265 12.6695 60.6545 13.2874C60.7244 13.9346 60.9483 14.5557 61.3074 15.0988C61.874 16.007 62.6351 17.174 62.6351 17.174C62.6351 17.174 63.8934 16.9576 64.9607 16.8831C65.6113 16.8552 66.2457 16.672 66.811 16.3487C67.3292 16.0087 67.7237 15.5104 67.9357 14.928Z" fill="#E50C00"/>
<path d="M59.0174 34.4639C59.0614 34.2116 59.0271 33.952 58.9193 33.7197C58.8225 33.4884 58.6557 33.2933 58.4423 33.1616C58.2588 33.0542 58.0449 33.0104 57.8338 33.037C57.6228 33.0636 57.4265 33.1591 57.2753 33.3087C57.2451 33.1684 57.1839 33.0366 57.096 32.9231C57.0145 32.8181 56.9125 32.7309 56.7962 32.6666C56.6799 32.6024 56.5517 32.5624 56.4195 32.5493C56.1698 32.5305 55.9205 32.5896 55.7058 32.7184C55.4849 32.8453 55.3079 33.0364 55.1984 33.2664C55.0615 33.5624 55.0242 33.8946 55.0918 34.2136C55.1821 34.5448 55.3509 34.8494 55.584 35.1015C55.9544 35.5277 56.4483 36.0707 56.4483 36.0707C56.4483 36.0707 57.0859 35.8525 57.6322 35.7239C57.9681 35.6538 58.2827 35.5054 58.5506 35.291C58.7898 35.0717 58.9533 34.7821 59.0174 34.4639Z" fill="#E50C00"/>
<path d="M18.2174 41.5135C18.1749 41.3989 18.0981 41.3003 17.9975 41.231C17.9017 41.1605 17.7866 41.1209 17.6677 41.1177C17.567 41.1185 17.4692 41.1519 17.389 41.2129C17.3089 41.2739 17.2506 41.3591 17.2228 41.4559C17.176 41.4051 17.1182 41.3658 17.0537 41.3409C16.9951 41.3174 16.9323 41.3062 16.8692 41.308C16.806 41.3097 16.7439 41.3244 16.6867 41.3511C16.5795 41.4036 16.4918 41.4889 16.4364 41.5946C16.3752 41.7 16.3475 41.8215 16.3569 41.943C16.3731 42.098 16.4382 42.2437 16.5429 42.3591C16.6604 42.4725 16.8029 42.5565 16.959 42.6044C17.2144 42.6889 17.5493 42.7921 17.5493 42.7921C17.5493 42.7921 17.7573 42.5485 17.9518 42.3625C18.0734 42.2533 18.1668 42.1164 18.2241 41.9633C18.2698 41.8165 18.2675 41.6589 18.2174 41.5135Z" fill="#E50C00"/>
<path d="M9.33112 47.2998C9.28777 47.1863 9.21114 47.0884 9.11125 47.0191C9.01293 46.9472 8.89475 46.9076 8.77298 46.9058C8.7095 46.9066 8.64684 46.9203 8.58873 46.9458C8.53062 46.9714 8.47825 47.0084 8.43472 47.0546C8.38409 47.1099 8.34754 47.1766 8.32816 47.2491C8.28153 47.1981 8.22361 47.1587 8.15903 47.1341C8.10041 47.1106 8.0376 47.0994 7.97447 47.1011C7.91134 47.1029 7.84924 47.1175 7.79201 47.1442C7.68514 47.1972 7.59759 47.2824 7.54169 47.3878C7.48032 47.4931 7.45313 47.6148 7.46389 47.7362C7.48008 47.8912 7.54525 48.0369 7.64994 48.1523C7.76715 48.2659 7.90979 48.35 8.06601 48.3975C8.3214 48.4821 8.65459 48.5853 8.65459 48.5853C8.65459 48.5853 8.86432 48.3417 9.05882 48.1557C9.17979 48.0463 9.27261 47.9094 9.32943 47.7565C9.37937 47.6085 9.37997 47.4482 9.33112 47.2998Z" fill="#E50C00"/>
<path d="M60.7578 40.7322C60.7147 40.6184 60.638 40.5205 60.5379 40.4514C60.4403 40.3781 60.3217 40.3378 60.1996 40.3364C60.0992 40.3376 60.0018 40.3712 59.922 40.4321C59.8422 40.4931 59.7841 40.5781 59.7565 40.6747C59.6904 40.6027 59.6031 40.5537 59.5073 40.5349C59.4115 40.516 59.3121 40.5283 59.2237 40.5698C59.1164 40.6228 59.0283 40.708 58.9717 40.8134C58.9118 40.9193 58.8848 41.0405 58.8939 41.1618C58.9097 41.3168 58.975 41.4627 59.08 41.5779C59.1972 41.6915 59.3398 41.7756 59.496 41.8231C59.7514 41.9077 60.0863 42.0108 60.0863 42.0108C60.0863 42.0108 60.2943 41.7673 60.4888 41.5812C60.6101 41.4718 60.7034 41.3349 60.7611 41.1821C60.8071 41.0355 60.8059 40.8781 60.7578 40.7322Z" fill="#E50C00"/>
<path d="M27.1052 24.7288C25.8621 24.0523 23.9323 24.0523 22.5775 25.9381C21.1889 27.8679 21.6997 29.3715 22.0464 30.9512C22.2325 31.7969 22.6299 32.7017 22.2883 33.5034C21.923 34.3643 20.8845 34.6874 20.1995 35.3216C19.7931 35.7139 19.5148 36.2199 19.4013 36.7732C19.2878 37.3265 19.3444 37.9013 19.5636 38.4218C20.0541 39.5263 21.2549 40.2535 21.5475 41.4239C21.8012 42.4218 21.3158 43.4738 20.6376 44.2485C19.9593 45.0231 19.09 45.61 18.3695 46.3423C17.649 47.0747 17.0384 48.0337 17.0976 49.0485C17.1771 50.4015 18.3475 51.4163 19.4418 52.2146C20.0997 52.7001 20.7779 53.1821 21.5492 53.4527C23.3606 54.0886 28.1538 54.8819 29.9044 54.0954C32.5209 52.9115 34.0938 50.4607 35.8088 48.1605C37.8705 45.3935 39.161 39.7039 35.9492 36.2417" fill="#263238"/>
<path d="M18.0752 50.8364C18.0273 50.7557 17.9843 50.6721 17.9467 50.5861C17.826 50.3406 17.7613 50.0715 17.7572 49.798C17.7572 49.436 17.9822 49.025 18.3357 48.6715C18.7435 48.2731 19.2195 47.9511 19.7412 47.721C20.3095 47.447 20.9657 47.2339 21.6473 46.9548C22.3289 46.6758 23.046 46.3172 23.5856 45.6931C23.8653 45.3817 24.0686 45.0093 24.1792 44.6056C24.2821 44.1812 24.258 43.736 24.1099 43.3252C23.9511 42.8983 23.7451 42.4904 23.4959 42.1092C23.2333 41.7119 23.0069 41.2919 22.8194 40.8542C22.6267 40.4094 22.5549 39.9217 22.6114 39.4402C22.6478 39.2026 22.7381 38.9764 22.8752 38.7789C23.014 38.5881 23.1859 38.4238 23.3826 38.2935C23.7581 38.0297 24.1657 37.8453 24.4921 37.5696C24.8132 37.3025 25.0241 36.9259 25.0841 36.5125C25.1413 36.118 25.103 35.7155 24.9725 35.3388C24.8477 34.9828 24.6826 34.6423 24.4803 34.324C24.093 33.6982 23.6617 33.162 23.2963 32.6546C22.6922 31.8624 22.2215 30.9769 21.9027 30.0331C21.814 29.7778 21.7483 29.5152 21.7065 29.2483C21.6908 29.155 21.6835 29.0604 21.6845 28.9658C21.6845 28.9658 21.6947 29.0622 21.7285 29.2449C21.7786 29.5084 21.8499 29.7674 21.9416 30.0195C22.2728 30.953 22.7507 31.8276 23.3572 32.6106C23.7293 33.118 24.1657 33.6491 24.5598 34.2783C24.7684 34.6025 24.9386 34.9499 25.0672 35.3134C25.2045 35.7038 25.2451 36.1216 25.1856 36.5311C25.1248 36.9684 24.9028 37.3672 24.5632 37.6491C24.2249 37.9383 23.8122 38.1244 23.4503 38.3815C23.2653 38.5048 23.1042 38.6606 22.975 38.8415C22.8462 39.026 22.7622 39.2379 22.7298 39.4605C22.6777 39.9214 22.7471 40.3879 22.931 40.8136C23.1197 41.2448 23.3461 41.6586 23.6076 42.05C23.8603 42.4389 24.0691 42.8547 24.23 43.2897C24.3841 43.7191 24.4082 44.1845 24.2993 44.6276C24.1837 45.0462 23.9717 45.432 23.6803 45.754C23.1221 46.395 22.3813 46.7536 21.7014 47.0326C21.0215 47.3117 20.3602 47.518 19.7936 47.7853C19.2781 48.009 18.8063 48.3222 18.3999 48.7104C18.0465 49.0487 17.8266 49.4462 17.8198 49.7963C17.8205 50.0647 17.8781 50.3298 17.9889 50.5743C18.0414 50.74 18.0854 50.8331 18.0752 50.8364Z" fill="#455A64"/>
<path d="M21.6676 29.1618C21.6552 29.1361 21.6466 29.1088 21.6422 29.0806C21.6223 29.0032 21.6064 28.9247 21.5949 28.8455C21.5535 28.5516 21.5535 28.2532 21.5949 27.9593C21.6555 27.5214 21.7972 27.0987 22.0126 26.7128C22.2715 26.2336 22.6459 25.8266 23.102 25.5289C23.558 25.2311 24.0812 25.0521 24.6241 25.0079C25.064 24.9658 25.5079 25.0059 25.9331 25.1263C26.2191 25.2059 26.4924 25.3255 26.745 25.4815C26.8132 25.5236 26.8787 25.5699 26.9412 25.6202C26.9646 25.6357 26.9862 25.6538 27.0054 25.6743C26.664 25.4679 26.2966 25.3081 25.9128 25.199C25.4957 25.0912 25.0626 25.0591 24.6342 25.1043C24.108 25.1519 23.6015 25.3279 23.1592 25.6169C22.7168 25.9059 22.3522 26.299 22.0972 26.7618C21.8825 27.1357 21.7375 27.5454 21.6693 27.9711C21.6147 28.3661 21.6142 28.7667 21.6676 29.1618Z" fill="#455A64"/>
<path d="M36.1927 27.499L44.6054 42.0952L38.5166 46.6872L34.8194 41.3933C34.8194 41.3933 31.6633 42.9511 29.6287 40.1316C28.2095 38.0941 26.9481 35.9511 25.8553 33.7215C24.1302 30.1697 25.15 27.2183 28.1335 25.4559C31.068 23.7257 34.4439 24.5832 36.1927 27.499Z" fill="#B78876"/>
<path d="M34.7383 41.3563C34.7383 41.3563 36.6393 40.2384 37.7065 37.6963C37.7065 37.6963 38.2698 40.3584 35.2507 42.0938L34.7383 41.3563Z" fill="#A36957"/>
<path d="M33.2397 30.3558C33.1535 30.3338 32.9826 30.7702 32.531 31.0543C32.0795 31.3384 31.6042 31.3215 31.5907 31.4078C31.5907 31.4484 31.6972 31.5127 31.9086 31.5262C32.1895 31.5389 32.4673 31.4638 32.7036 31.3114C32.9389 31.1637 33.1213 30.9452 33.2245 30.6873C33.2972 30.4928 33.2803 30.3642 33.2397 30.3558Z" fill="#263238"/>
<path d="M28.7543 32.9318C28.668 32.9115 28.4972 33.3479 28.0456 33.632C27.594 33.9162 27.1188 33.8993 27.1052 33.9855C27.1052 34.0244 27.2118 34.0904 27.4232 34.1039C27.7039 34.1156 27.9815 34.0407 28.2181 33.8891C28.454 33.7413 28.6364 33.5221 28.7391 33.2633C28.8101 33.0705 28.7949 32.9403 28.7543 32.9318Z" fill="#263238"/>
<path d="M32.8304 36.5143C32.7695 36.47 32.7189 36.4131 32.6821 36.3474C32.6453 36.2817 32.6232 36.2088 32.6173 36.1337C32.6071 35.9839 32.619 35.8335 32.6528 35.6872C32.6688 35.4951 32.7379 35.3112 32.8524 35.1561C32.9731 35.0374 33.1282 34.9599 33.2955 34.9345C33.4726 34.8864 33.6604 34.8959 33.8317 34.9616C33.9563 35.0283 34.057 35.1323 34.1195 35.2591C34.182 35.3859 34.2032 35.5291 34.1801 35.6686C34.1523 35.8071 34.0935 35.9376 34.0083 36.0504C33.9231 36.1631 33.8136 36.2552 33.6879 36.3197C33.4342 36.4456 33.1522 36.5039 32.8693 36.4889" fill="#A36957"/>
<path d="M33.1585 34.6128C33.0858 34.6584 33.4173 35.1337 33.2482 35.7561C33.079 36.3785 32.5361 36.6813 32.5716 36.7506C32.5852 36.7844 32.7492 36.7641 32.9657 36.6187C33.2469 36.4283 33.4513 36.1441 33.5425 35.817C33.6313 35.5024 33.5936 35.1656 33.4376 34.8783C33.3243 34.672 33.189 34.5874 33.1585 34.6128Z" fill="#263238"/>
<path d="M32.9217 29.1874C32.8219 29.069 32.345 29.316 31.7293 29.458C31.1137 29.6001 30.5792 29.6119 30.5454 29.7625C30.5319 29.8335 30.6604 29.9316 30.9006 29.9959C31.216 30.065 31.5429 30.0614 31.8567 29.9855C32.1706 29.9097 32.463 29.7634 32.712 29.5578C32.8963 29.3921 32.9589 29.2449 32.9217 29.1874Z" fill="#263238"/>
<path d="M27.2423 31.3386C27.0884 31.3284 26.9395 31.687 26.6503 32.0236C26.3611 32.3602 26.0465 32.5817 26.0854 32.7306C26.1057 32.7999 26.2359 32.8354 26.4237 32.7898C26.6728 32.7165 26.8945 32.5708 27.0605 32.3711C27.2264 32.1713 27.3292 31.9267 27.3556 31.6684C27.3776 31.4688 27.3133 31.347 27.2423 31.3386Z" fill="#263238"/>
<path d="M31.7006 35.3215C31.6887 35.2945 31.3792 35.3942 30.8904 35.5752C30.767 35.6243 30.6452 35.6581 30.5826 35.5887C30.51 35.4737 30.4746 35.339 30.4811 35.2031C30.4422 34.8649 30.4033 34.5097 30.361 34.1359C30.1801 32.6238 29.9839 31.4044 29.923 31.4112C29.8621 31.4179 29.9602 32.6526 30.1412 34.1646C30.1885 34.5367 30.2342 34.8919 30.2782 35.2302C30.2759 35.4078 30.3357 35.5807 30.4473 35.719C30.4859 35.7509 30.5311 35.7738 30.5797 35.7861C30.6282 35.7984 30.6789 35.7997 30.7281 35.79C30.8017 35.7725 30.8731 35.747 30.9412 35.7139C31.4249 35.4974 31.7124 35.3486 31.7006 35.3215Z" fill="#263238"/>
<path d="M38.515 33.9666C38.3695 34.8123 38.5319 35.7679 38.5606 36.6322C38.5894 37.4964 38.9141 38.4097 39.6431 38.8698C40.372 39.3298 41.4579 39.3484 41.8012 40.1315C41.9467 40.4698 41.9027 40.8503 42.0025 41.1987C42.1479 41.7061 42.5894 42.0884 43.0765 42.293C43.1947 42.3431 43.3162 42.3849 43.4401 42.4182L44.1014 43.5531C44.9184 44.9569 45.8249 46.4402 47.2997 47.1184C47.6983 47.3114 48.1316 47.4222 48.5738 47.4443C49.016 47.4663 49.4582 47.3992 49.874 47.247C50.6943 46.9205 51.3488 46.1459 51.4283 45.2664C51.4875 44.5983 51.2321 43.9404 51.2219 43.2706C51.2 41.8736 52.2367 40.5357 51.8985 39.1827C51.479 37.5303 49.326 36.9704 48.4803 35.4905C48.1285 34.8732 48.0304 34.1374 47.6871 33.5167C47.0427 32.3531 45.6947 31.8135 44.482 31.2639C44.0694 31.0796 43.6708 30.8654 43.2896 30.6228C43.3503 30.5655 43.4068 30.5039 43.4587 30.4385C43.9661 29.8059 43.9898 28.8605 43.5974 28.1501C43.3899 27.8005 43.1085 27.5005 42.7728 27.2711C42.4371 27.0417 42.0552 26.8886 41.6541 26.8224C41.1348 26.7277 40.5699 26.748 40.1217 26.4689C39.6143 26.1577 39.3589 25.5235 38.816 25.2952C38.4135 25.126 37.9551 25.2292 37.5188 25.2461C36.5547 25.285 35.5179 24.5949 34.3695 23.7966C33.5492 23.1201 32.6274 22.5298 31.5805 22.474C30.3374 22.4081 29.1991 23.115 28.1539 23.7949C27.2067 24.4123 26.1446 25.2427 26.2088 26.3725C27.4672 28.5019 29.3885 30.496 32.8304 28.7692C33.6236 28.3717 34.7636 28.348 35.3556 29.0093C35.9864 29.7129 35.6346 31.093 36.4769 31.5209C36.6536 31.6009 36.8446 31.6446 37.0384 31.6495C37.2948 31.7067 37.5345 31.8225 37.7386 31.9878C37.7386 31.9878 38.5725 33.0042 38.515 33.9666Z" fill="#263238"/>
<path d="M40.1285 31.0257C40.1285 31.0257 40.1556 30.975 40.1776 30.8701C40.2023 30.7169 40.1737 30.5598 40.0964 30.4253C39.9753 30.2121 39.7775 30.053 39.5433 29.9805C39.2285 29.889 38.9074 29.8206 38.5826 29.7758C38.3895 29.7407 38.2036 29.6732 38.033 29.5762C37.8501 29.4627 37.6975 29.3066 37.5881 29.1213C37.3547 28.7441 37.2499 28.2756 37.0807 27.8375C36.8832 27.358 36.573 26.9332 36.1764 26.5991C35.7798 26.2649 35.3086 26.0313 34.8025 25.9179C34.5381 25.8574 34.2668 25.8318 33.9957 25.8418C33.7321 25.8567 33.471 25.9021 33.2177 25.9771C32.7103 26.1225 32.2571 26.339 31.8004 26.5081C31.3667 26.6768 30.911 26.7821 30.4473 26.821C30.0451 26.8487 29.641 26.8248 29.2448 26.75C28.6713 26.6437 28.1239 26.4272 27.633 26.1124C27.4992 26.0277 27.3715 25.9339 27.2507 25.8316C27.2078 25.7976 27.1671 25.7609 27.1289 25.7217C27.1772 25.7478 27.2225 25.779 27.2642 25.8147C27.3897 25.9089 27.5202 25.9964 27.6549 26.0769C28.1475 26.3744 28.6913 26.5774 29.2583 26.6756C29.649 26.7446 30.0468 26.764 30.4423 26.7331C30.8947 26.6902 31.3388 26.5837 31.7615 26.4168C32.2114 26.2477 32.6731 26.0278 33.1839 25.8773C33.4449 25.8002 33.7139 25.7531 33.9856 25.7369C34.2663 25.7258 34.5473 25.752 34.8211 25.8147C35.3434 25.9317 35.8296 26.1737 36.2378 26.5198C36.6461 26.8659 36.9644 27.3059 37.1653 27.802C37.3344 28.2587 37.4308 28.7136 37.6507 29.0756C37.7518 29.2503 37.8934 29.3981 38.0634 29.5069C38.2264 29.6002 38.4035 29.6665 38.5877 29.7031C38.9147 29.7526 39.2376 29.8267 39.5535 29.9246C39.7972 30.0074 40.0003 30.1797 40.1218 30.4067C40.1988 30.55 40.2217 30.7164 40.186 30.8752C40.1778 30.9289 40.1582 30.9802 40.1285 31.0257Z" fill="#455A64"/>
<path d="M35.3268 24.4432C35.3083 24.4172 35.2935 24.3888 35.2829 24.3586C35.2496 24.2751 35.21 24.1943 35.1645 24.1168C35.0953 23.9919 35.0081 23.8779 34.9057 23.7785C34.7666 23.6565 34.595 23.5778 34.4118 23.5519C34.0008 23.491 33.5137 23.6973 33.0774 24.0288C32.641 24.3603 32.0947 24.6766 31.5416 25.0149C30.569 25.5681 29.4571 25.8283 28.3399 25.7641C28.0044 25.7456 27.6714 25.6952 27.3454 25.6136C27.2304 25.5865 27.1425 25.5561 27.0833 25.5375C27.0521 25.5294 27.022 25.5174 26.9936 25.502C27.1151 25.5189 27.2354 25.5432 27.3539 25.5747C27.6801 25.6393 28.011 25.6777 28.3433 25.6897C29.4428 25.7316 30.5322 25.4663 31.4892 24.9235C32.0372 24.5853 32.5683 24.2724 33.0114 23.951C33.4545 23.6297 33.9738 23.403 34.4152 23.4791C34.6109 23.5102 34.7925 23.5998 34.9361 23.7362C35.0401 23.8399 35.1264 23.9599 35.1915 24.0914C35.2337 24.1726 35.2683 24.2575 35.2947 24.3451C35.31 24.3761 35.3208 24.4092 35.3268 24.4432Z" fill="#455A64"/>
<path d="M52.9759 52.2334C51.1035 53.079 50.3019 53.4714 48.4296 53.6947V53.7184L45.9399 47.7412C46.2055 47.4943 46.5099 47.1949 46.8515 46.8279C47.1443 46.5113 47.3805 46.1469 47.5501 45.7505C47.7581 45.2702 48.0067 44.6207 48.0338 44.2283C48.0659 43.7361 48.6799 43.5399 48.92 43.9171C49.1602 44.2943 49.1044 45.6541 48.3467 47.0494C47.589 48.4448 49.8993 47.4943 50.7484 47.1611L52.9759 52.2334Z" fill="#FFBE9D"/>
<path d="M37.8638 44.1955C38.3207 43.6084 38.8918 43.1199 39.5427 42.7595C40.1935 42.399 40.9106 42.1741 41.6507 42.0983C42.9936 41.941 44.1116 41.7922 45.4223 42.3757C48.345 43.678 48.805 45.2966 50.3627 48.089C51.5771 50.2607 52.3416 54.1152 51.956 58.0036C51.5669 61.9528 50.8735 66.9676 50.8735 66.9676L54.6858 72.9736H34.9716V61.5791L28.4228 57.3507L37.8638 44.1955Z" fill="#455A64"/>
<path d="M51.1509 48.5055L50.1716 50.3474C50.0127 50.6467 49.786 50.9884 49.4477 50.9816C49.1382 50.9816 48.9116 50.6518 48.8981 50.3423C48.9128 50.0323 49.004 49.7307 49.1636 49.4645L50.2731 47.2235L50.3357 47.0154C50.3357 47.0154 50.6926 46.4049 51.1137 46.6163C51.4976 46.8074 51.6516 47.5634 51.1509 48.5055Z" fill="#FFBE9D"/>
<path d="M51.8478 50.0231C51.523 50.6365 51.1972 51.2504 50.8702 51.8649C50.7112 52.1643 50.4845 52.5059 50.1446 52.4992C49.8351 52.4992 49.6101 52.1694 49.5966 51.8616C49.6097 51.5509 49.7004 51.2486 49.8604 50.9821L50.9716 48.741L51.0342 48.533C51.0342 48.533 51.3894 47.9224 51.8122 48.1339C52.1962 48.325 52.3484 49.081 51.8478 50.0231Z" fill="#FFBE9D"/>
<path d="M52.5057 51.5854L51.5772 53.3326C51.4266 53.615 51.2118 53.9398 50.8905 53.933C50.5979 53.933 50.3831 53.6218 50.3696 53.3275C50.383 53.0335 50.4696 52.7475 50.6216 52.4954C50.9711 51.7873 51.3218 51.0792 51.6736 50.3711L51.7328 50.1732C51.7328 50.1732 52.071 49.5948 52.4702 49.7943C52.8355 49.9736 52.9793 50.689 52.5057 51.5854Z" fill="#FFBE9D"/>
<path d="M53.1044 52.3484L52.4092 53.649C52.2959 53.8604 52.1369 54.1006 51.9018 54.0955C51.7937 54.0803 51.6947 54.0263 51.6234 53.9435C51.5522 53.8607 51.5135 53.7548 51.5145 53.6456C51.5243 53.4263 51.5888 53.2129 51.7023 53.0249L52.4854 51.4418L52.5293 51.2947C52.5293 51.2947 52.7813 50.8634 53.079 51.0122C53.3767 51.161 53.4579 51.682 53.1044 52.3484Z" fill="#FFBE9D"/>
<path d="M51.2795 48.1523C51.2446 48.2523 51.201 48.3491 51.1492 48.4415L50.7602 49.2162L50.1699 50.3578C50.0695 50.6025 49.9003 50.8128 49.6828 50.9633C49.6178 50.9991 49.5459 51.0208 49.4718 51.0269C49.3978 51.033 49.3233 51.0235 49.2532 50.9988C49.1124 50.9455 48.9933 50.8467 48.915 50.7181C48.8482 50.5925 48.8086 50.4542 48.7987 50.3123C48.7888 50.1704 48.8088 50.028 48.8575 49.8944C48.9484 49.655 49.057 49.4226 49.1822 49.1992C49.4055 48.7764 49.6067 48.3908 49.7792 48.061C49.9518 47.7312 50.0837 47.4961 50.1885 47.2982C50.2366 47.2025 50.2932 47.1114 50.3577 47.0259C50.3241 47.1264 50.2817 47.2238 50.2308 47.3168L49.8503 48.0965C49.6811 48.4348 49.4883 48.817 49.2735 49.2449C49.1532 49.4624 49.0491 49.6885 48.9623 49.9214C48.9161 50.0415 48.8957 50.17 48.9024 50.2985C48.9091 50.427 48.9428 50.5527 49.0012 50.6673C49.0597 50.7767 49.158 50.8594 49.2758 50.8981C49.3936 50.9369 49.5218 50.9287 49.6338 50.8753C49.8321 50.7338 49.9873 50.54 50.082 50.3155L50.6926 49.184C50.8617 48.8762 51.0038 48.6225 51.112 48.4263C51.1599 48.3304 51.2159 48.2387 51.2795 48.1523Z" fill="#EB996E"/>
<path d="M51.9628 49.777C51.929 49.8772 51.886 49.974 51.8342 50.0662C51.7327 50.2658 51.6008 50.5262 51.4435 50.8408L50.8532 51.9825C50.7528 52.2271 50.5836 52.4375 50.3661 52.588C50.3011 52.6238 50.2292 52.6455 50.1551 52.6516C50.0811 52.6577 50.0066 52.6481 49.9365 52.6235C49.7957 52.5702 49.6766 52.4714 49.5983 52.3427C49.5319 52.2153 49.4934 52.0752 49.4852 51.9317C49.4771 51.7883 49.4995 51.6447 49.5509 51.5106C49.6406 51.2709 49.7486 51.0385 49.874 50.8155C50.0972 50.3926 50.2985 50.007 50.471 49.6772C50.6435 49.3474 50.7754 49.1123 50.882 48.9144C50.9297 48.8185 50.9863 48.7274 51.0511 48.6421C51.0176 48.7426 50.9751 48.84 50.9243 48.933L50.5437 49.7127L49.9687 50.8611C49.8477 51.0786 49.7432 51.3047 49.6558 51.5376C49.6097 51.6578 49.5893 51.7862 49.596 51.9147C49.6027 52.0432 49.6363 52.1689 49.6947 52.2835C49.7531 52.3929 49.8515 52.4756 49.9693 52.5143C50.0871 52.5531 50.2153 52.5449 50.3272 52.4916C50.5256 52.35 50.6808 52.1562 50.7754 51.9317C51.0038 51.5106 51.2084 51.1283 51.386 50.8002L51.8055 50.0425C51.8513 49.9502 51.9039 49.8615 51.9628 49.777Z" fill="#EB996E"/>
<path d="M52.7476 50.9814C52.7116 51.0824 52.6686 51.1807 52.619 51.2757L52.2655 52.0757C52.1167 52.414 51.9442 52.8199 51.7226 53.2596C51.6214 53.5052 51.461 53.7219 51.2558 53.8905C51.1938 53.9324 51.1237 53.961 51.05 53.9744C50.9764 53.9878 50.9007 53.9857 50.8279 53.9683C50.68 53.9276 50.5508 53.8367 50.4626 53.7112C50.3875 53.5865 50.3412 53.4468 50.3268 53.3019C50.3125 53.1571 50.3305 53.011 50.3797 52.874C50.4666 52.6299 50.5747 52.394 50.7027 52.1687C50.9277 51.7408 51.1306 51.3518 51.3049 51.0186C51.4791 50.6854 51.6127 50.4469 51.7192 50.2474C51.7669 50.1504 51.8236 50.0581 51.8884 49.9717C51.8537 50.0732 51.8107 50.1716 51.7598 50.266L51.3759 51.0524L50.7924 52.2144C50.6693 52.4343 50.5657 52.6647 50.4829 52.9028C50.4389 53.0248 50.4223 53.1551 50.4343 53.2843C50.4463 53.4135 50.4865 53.5384 50.5522 53.6503C50.6262 53.7546 50.7336 53.8304 50.8566 53.8651C50.9156 53.88 50.977 53.8821 51.0368 53.8713C51.0966 53.8605 51.1534 53.8371 51.2034 53.8025C51.3948 53.6454 51.5442 53.4432 51.638 53.214C51.863 52.7827 52.0423 52.3818 52.1996 52.0469C52.3569 51.7121 52.4888 51.4431 52.5869 51.2605C52.6304 51.162 52.6843 51.0685 52.7476 50.9814Z" fill="#EB996E"/>
<path d="M41.2465 23.9443L40.5987 24.0068L36.9945 31.173L35.7074 33.7286C35.3944 34.2313 35.0378 34.7056 34.6418 35.146C33.1433 36.7865 28.7966 39.1172 28.7966 39.1172L37.1585 43.7075L41.6084 40.6343L41.6202 40.6445C41.6202 40.6445 44.8541 42.0314 46.7365 39.1071C48.619 36.1827 52.3518 29.091 52.3518 29.091C51.1268 27.3218 49.4515 25.912 47.4991 25.0071C45.5468 24.1023 43.3882 23.7354 41.2465 23.9443Z" fill="#FFBE9D"/>
<path d="M41.6575 40.6038C40.7861 40.2449 40.0157 39.6782 39.4134 38.9533C38.8111 38.2284 38.3953 37.3673 38.2021 36.4448C38.2021 36.4448 37.7201 39.6009 40.827 41.1806L41.6575 40.6038Z" fill="#EB996E"/>
<path d="M39.0478 27.2864C39.0122 27.2339 37.3987 25.4259 36.2012 27.4741C35.0038 29.5223 37.4697 30.3713 37.5086 30.3155C37.5475 30.2597 39.0478 27.2864 39.0478 27.2864Z" fill="#FFBE9D"/>
<path d="M37.1873 29.1059C37.1873 29.094 37.1366 29.1059 37.0604 29.1059C36.954 29.0932 36.8567 29.0392 36.7898 28.9553C36.6207 28.749 36.6376 28.2991 36.8423 27.9219C36.9402 27.7432 37.0765 27.5884 37.2414 27.4687C37.298 27.4154 37.3667 27.3768 37.4415 27.3562C37.5164 27.3356 37.5952 27.3335 37.671 27.3503C37.7185 27.3635 37.7598 27.3929 37.7879 27.4333C37.816 27.4738 37.8291 27.5227 37.8249 27.5718C37.8249 27.6446 37.7826 27.6784 37.7911 27.6885C37.7996 27.6987 37.8554 27.6801 37.8892 27.5854C37.9076 27.5305 37.9076 27.4711 37.8892 27.4162C37.8738 27.3781 37.8509 27.3435 37.8218 27.3145C37.7928 27.2854 37.7582 27.2625 37.7201 27.2471C37.626 27.2148 37.5252 27.207 37.4272 27.2244C37.3293 27.2419 37.2374 27.284 37.1602 27.3469C36.9683 27.476 36.8109 27.6502 36.7019 27.8543C36.4752 28.2771 36.46 28.7879 36.7019 29.0467C36.7478 29.095 36.8041 29.1322 36.8665 29.1556C36.9289 29.1791 36.9958 29.1881 37.0621 29.182C37.1518 29.1532 37.1873 29.1143 37.1873 29.1059Z" fill="#EB996E"/>
<path d="M47.3826 31.8495C47.4672 31.8208 47.6735 32.2402 48.1488 32.4838C48.624 32.7274 49.0959 32.6698 49.1162 32.7544C49.1298 32.7933 49.0198 32.8677 48.8101 32.8999C48.5315 32.9367 48.2483 32.8859 47.9999 32.7544C47.7518 32.6288 47.5507 32.4265 47.4266 32.1777C47.3353 31.9916 47.3353 31.8614 47.3826 31.8495Z" fill="#263238"/>
<path d="M42.9378 29.2431C43.024 29.2194 43.205 29.6507 43.665 29.9197C44.1251 30.1886 44.597 30.1632 44.6139 30.2579C44.6223 30.2968 44.5107 30.3662 44.2993 30.3848C44.0184 30.4037 43.7385 30.3358 43.4976 30.1903C43.2591 30.0482 43.0715 29.8346 42.9615 29.5797C42.8769 29.3818 42.8887 29.26 42.9378 29.2431Z" fill="#263238"/>
<path d="M44.2334 34.577C44.2469 34.55 44.5598 34.6768 45.052 34.9052C45.1754 34.9644 45.2989 35.01 45.3683 34.9441C45.4524 34.8307 45.5001 34.6944 45.5053 34.5534C45.5729 34.205 45.6428 33.8396 45.715 33.4574C46.0262 31.9064 46.3272 30.6599 46.3915 30.6734C46.4558 30.687 46.2528 31.9555 45.9433 33.5064L45.715 34.5973C45.7007 34.782 45.6216 34.9557 45.4917 35.0878C45.4494 35.1188 45.4005 35.1394 45.3489 35.1483C45.2972 35.1571 45.2442 35.1537 45.1941 35.1386C45.1193 35.1155 45.0476 35.0831 44.9809 35.0422C44.5057 34.78 44.2198 34.6041 44.2334 34.577Z" fill="#263238"/>
<path d="M42.7044 34.0545C42.7805 34.0968 42.4744 34.589 42.6757 35.2013C42.8769 35.8135 43.4351 36.0875 43.3962 36.1585C43.3843 36.1941 43.227 36.1805 42.9953 36.0486C42.7045 35.8726 42.4852 35.5994 42.3763 35.2774C42.2705 34.9678 42.2899 34.6291 42.4304 34.3336C42.5421 34.1188 42.6723 34.0309 42.7044 34.0545Z" fill="#263238"/>
<path d="M45.923 28.4867C45.8012 28.5831 45.3852 28.2414 44.8135 27.9793C44.2418 27.7171 43.7209 27.5852 43.7209 27.4313C43.7209 27.3585 43.8697 27.2892 44.1167 27.279C44.4403 27.2741 44.7604 27.3466 45.0503 27.4905C45.3429 27.6273 45.5981 27.8327 45.7945 28.0892C45.9399 28.282 45.9822 28.441 45.923 28.4867Z" fill="#263238"/>
<path d="M49.852 31.4788C49.7082 31.5313 49.463 31.2285 49.0909 30.9884C48.7188 30.7482 48.3552 30.6247 48.3501 30.4708C48.3501 30.3981 48.4651 30.327 48.6647 30.3169C48.9243 30.3169 49.178 30.3941 49.3936 30.5386C49.6093 30.6832 49.7771 30.8886 49.8757 31.1287C49.9416 31.3165 49.9196 31.4585 49.852 31.4788Z" fill="#263238"/>
<path d="M54.9463 28.135C55.0815 27.9654 55.1714 27.7642 55.2078 27.5504C55.2442 27.3366 55.2258 27.117 55.1543 26.9122C55.0742 26.7106 54.9247 26.5442 54.7327 26.4431C54.5407 26.342 54.319 26.3128 54.1074 26.3608C54.2122 26.2551 54.2936 26.1285 54.3464 25.9893C54.3991 25.8501 54.422 25.7013 54.4135 25.5527C54.4051 25.404 54.3655 25.2589 54.2973 25.1265C54.2291 24.9942 54.1339 24.8776 54.0177 24.7845C53.556 24.4462 52.9184 24.5578 52.3738 24.3955C51.8292 24.2331 51.4232 23.8238 51.0985 23.3807C50.7738 22.9376 50.5167 22.4352 50.175 21.9972C49.4557 21.0721 48.4003 20.4685 47.2382 20.3174C46.0762 20.1663 44.9015 20.4801 43.9695 21.1904C43.452 20.5849 42.515 20.453 41.7708 20.7507C41.0266 21.0483 40.4803 21.7012 40.1404 22.42C39.9205 22.9117 39.7555 23.4262 39.6482 23.954C39.6245 23.9912 39.5975 24.0268 39.5755 24.0657C38.5911 25.7046 37.5814 27.7223 38.2664 28.1655C39.4588 28.9401 40.5936 26.4893 40.5936 26.4893C42.4304 26.8445 43.2676 24.2906 43.8478 24.179C44.4279 24.0674 45.6913 23.7781 47.7953 27.2995C48.6139 28.6678 50.2241 29.6488 51.2203 30.0056L51.3065 30.0378H51.3268H51.359C51.6837 30.1459 52.0231 30.2029 52.3653 30.2069C52.7595 30.2212 53.1481 30.1099 53.4748 29.8889C53.6353 29.7755 53.7594 29.618 53.832 29.4355C53.9047 29.2529 53.9228 29.0532 53.8841 28.8606C54.302 28.7287 54.6715 28.4763 54.9463 28.135Z" fill="#263238"/>
<path d="M52.531 27.3656C52.4755 27.3343 52.4271 27.2917 52.389 27.2405C52.2792 27.0913 52.2264 26.9077 52.2401 26.7229C52.2456 26.589 52.2821 26.4581 52.3467 26.3407C52.4244 26.1986 52.5469 26.0862 52.6951 26.021C52.877 25.9481 53.0763 25.93 53.2684 25.9691C53.4605 26.0082 53.6369 26.1027 53.7759 26.2409C53.9362 26.4188 54.0373 26.6421 54.0652 26.88C54.0931 27.1178 54.0464 27.3585 53.9315 27.5686C53.7971 27.8047 53.6013 28 53.3648 28.1337C53.1284 28.2674 52.8601 28.3345 52.5886 28.328C51.9899 28.3104 51.4224 28.0576 51.0088 27.6244C50.5638 27.1766 50.218 26.6401 49.9941 26.0498C49.7505 25.4544 49.5729 24.8557 49.3699 24.2908C49.1913 23.7441 48.9404 23.2236 48.6241 22.7432L48.5057 22.5741C48.4651 22.52 48.4177 22.4726 48.3738 22.4219L48.2435 22.273C48.1962 22.2274 48.1505 22.1817 48.1014 22.1394C47.9147 21.9717 47.7086 21.827 47.4875 21.7081C46.9996 21.4424 46.4511 21.3077 45.8956 21.3172C45.3401 21.3267 44.7965 21.48 44.3179 21.7623C44.1631 21.8522 44.0155 21.954 43.8765 22.0667C43.8303 22.1091 43.7811 22.1481 43.7294 22.1834C43.8949 22.0048 44.0858 21.8515 44.296 21.7284C44.8679 21.3745 45.536 21.2077 46.2072 21.2515C46.9318 21.3015 47.6196 21.5893 48.164 22.0701C48.2148 22.1124 48.2621 22.1597 48.3112 22.2071L48.4465 22.3593C48.4905 22.41 48.5395 22.4591 48.5818 22.5149C48.6241 22.5707 48.6613 22.6265 48.7036 22.684C49.0274 23.1701 49.2846 23.6974 49.468 24.2519C49.6727 24.8202 49.8503 25.4172 50.0921 26.0058C50.3082 26.5826 50.643 27.1075 51.0748 27.5466C51.4705 27.9598 52.0117 28.2025 52.5835 28.2231C52.8382 28.2306 53.0901 28.1691 53.3128 28.0453C53.5354 27.9215 53.7206 27.7398 53.8486 27.5196C53.9562 27.3264 54.0017 27.1047 53.9791 26.8848C53.9564 26.6648 53.8665 26.4571 53.7217 26.29C53.5934 26.1602 53.4302 26.0705 53.2518 26.0317C53.0735 25.993 52.8877 26.0069 52.7171 26.0718C52.5915 26.1294 52.4842 26.2205 52.4069 26.335C52.3296 26.4496 52.2854 26.5832 52.279 26.7212C52.2617 26.9002 52.3072 27.0795 52.4076 27.2286C52.4459 27.2768 52.4871 27.3225 52.531 27.3656Z" fill="#FAFAFA"/>
<path d="M34.9716 61.0772L40.3196 44.8202L39.0477 42.4016L31.3217 37.3901C31.0393 37.5779 22.0194 41.0772 19.3133 49.3106C17.3733 55.2185 16.2198 67.3791 16.2198 67.3791L15.205 72.9758H34.9716V61.0772Z" fill="#E50C00"/>
<g opacity="0.2">
<path d="M19.5636 67.041C20.986 68.0372 22.4254 69.0436 24.0507 69.6524C25.6761 70.2613 27.5315 70.4406 29.1247 69.7674C29.8419 69.4647 30.5522 68.9877 31.3235 69.0909C32.2452 69.211 32.8457 70.0922 33.6287 70.5928C34.0465 70.86 34.5252 71.2051 34.904 70.8837L34.9328 69.4968C34.9125 67.7412 34.9632 63.9154 34.9632 63.9154C34.9497 63.7243 34.9632 63.8715 34.8972 63.8258C34.559 63.5856 34.1057 63.7767 33.7911 64.0507C32.3281 65.326 31.0985 66.926 29.3514 67.7717C27.841 68.504 26.082 68.5835 24.4296 68.3061C22.7772 68.0288 21.1991 67.4165 19.6364 66.8076" fill="black"/>
</g>
<path d="M33.2972 43.7139C33.2972 43.7139 28.6579 47.0966 31.4672 53.8788C34.2765 60.6611 36.827 64.1723 36.827 64.1723L45.8131 56.837L44.1928 53.8129C43.4766 52.4866 42.9602 51.0617 42.6604 49.5845C42.2765 47.6598 41.3378 44.6881 39.09 42.9883C37.72 41.9617 35.7175 42.2374 33.2972 43.7139Z" fill="#E50C00"/>
<path d="M26.082 40.4482C26.3455 40.447 26.6084 40.4725 26.8668 40.5243C27.1736 40.5789 27.4685 40.6871 27.7378 40.8439C27.9059 40.9457 28.0556 41.0749 28.1809 41.2262C28.3193 41.3979 28.4253 41.5933 28.4938 41.8029C28.6547 42.281 28.681 42.7942 28.5699 43.2862C28.4466 43.8555 28.1429 44.3698 27.704 44.7526C27.2473 45.1568 26.6706 45.4291 26.1209 45.7776C25.8394 45.9448 25.5802 46.1472 25.3496 46.3797C25.1174 46.621 24.9463 46.9145 24.8507 47.2355C24.6579 47.89 24.7255 48.5767 24.6816 49.2296C24.6678 49.5542 24.6109 49.8755 24.5124 50.1852C24.4145 50.481 24.2756 50.7617 24.0997 51.019C23.7742 51.497 23.3363 51.8879 22.8245 52.1573C22.3777 52.3876 21.8827 52.5087 21.3801 52.5108C20.9668 52.5125 20.5566 52.4397 20.1691 52.296C19.8773 52.19 19.6017 52.0437 19.3505 51.8613C19.1918 51.7466 19.0446 51.6169 18.9107 51.474L18.8109 51.359C18.789 51.3319 18.7788 51.3184 18.7805 51.3167C18.9626 51.5035 19.1613 51.6733 19.3742 51.8241C19.6257 51.9983 19.9 52.1371 20.1894 52.2368C20.5693 52.3714 20.9703 52.4372 21.3733 52.4313C21.8633 52.4254 22.3449 52.3036 22.7788 52.0761C23.2752 51.811 23.6991 51.4283 24.0135 50.9615C24.3619 50.4457 24.5566 49.8416 24.575 49.2194C24.619 48.5767 24.5479 47.885 24.7441 47.2017C24.844 46.8649 25.0239 46.5574 25.2685 46.3053C25.5052 46.0657 25.7718 45.8577 26.0617 45.6862C26.6181 45.348 27.1898 45.0672 27.6346 44.6714C28.0616 44.305 28.3583 43.8101 28.4803 43.2609C28.5925 42.784 28.5714 42.2855 28.4194 41.8198C28.3561 41.6178 28.257 41.4287 28.1268 41.2617C28.0072 41.1149 27.8643 40.9886 27.704 40.8879C27.4436 40.7275 27.1575 40.6131 26.8583 40.5497C26.6114 40.4955 26.4169 40.4752 26.2849 40.4583L26.1327 40.4414C26.1162 40.4462 26.0991 40.4485 26.082 40.4482Z" fill="#FAFAFA"/>
<path d="M30.3864 39.0073C30.3864 39.0073 30.4118 38.9904 30.4659 38.9667C30.5459 38.9335 30.6285 38.9069 30.7129 38.8872C31.0275 38.817 31.3554 38.8357 31.66 38.9413C31.872 39.0154 32.0633 39.1389 32.2182 39.3016C32.3931 39.4935 32.5104 39.731 32.5564 39.9866C32.615 40.2702 32.5719 40.5654 32.4346 40.8204C32.2738 41.0872 32.0222 41.2872 31.726 41.3836C31.4452 41.4806 31.1431 41.4985 30.8528 41.4352C30.5626 41.372 30.2953 41.2301 30.0803 41.025C29.9079 40.855 29.7827 40.643 29.7172 40.4099C29.6516 40.1768 29.648 39.9306 29.7065 39.6957C29.7958 39.382 30.0039 39.1156 30.2866 38.9532C30.3624 38.9104 30.4431 38.8769 30.5268 38.8534C30.5559 38.8446 30.5861 38.84 30.6165 38.8398C30.5103 38.8824 30.4069 38.9315 30.3069 38.987C30.0466 39.156 29.8585 39.4159 29.7792 39.716C29.7293 39.937 29.7371 40.1672 29.802 40.3844C29.8669 40.6015 29.9866 40.7983 30.1497 40.9557C30.3521 41.1457 30.6027 41.2767 30.8743 41.3346C31.1459 41.3924 31.4281 41.3749 31.6905 41.2838C31.962 41.1986 32.1937 41.0185 32.3433 40.7764C32.47 40.5423 32.5118 40.2716 32.4617 40.0102C32.4206 39.7716 32.314 39.5491 32.1539 39.3675C32.0095 39.2123 31.8312 39.0925 31.633 39.0174C31.3417 38.9101 31.0272 38.8815 30.7213 38.9346C30.5031 38.9667 30.3898 39.0174 30.3864 39.0073Z" fill="#FAFAFA"/>
<path d="M34.312 59.8733C34.3807 59.9665 34.4628 60.0491 34.5555 60.1185C34.8298 60.308 35.1675 60.3822 35.4959 60.3249C36.0098 60.2094 36.4736 59.9333 36.8202 59.5367C37.0441 59.2987 37.2394 59.0353 37.402 58.7519C37.5764 58.4316 37.7099 58.0907 37.7995 57.7371C38.0091 56.9182 37.9546 56.054 37.6439 55.2678C37.4588 54.8396 37.2121 54.4407 36.9115 54.0839C36.6139 53.7016 36.2824 53.3228 36.0016 52.8864C35.7005 52.4424 35.5251 51.9252 35.4942 51.3896C35.486 50.8368 35.5427 50.2851 35.6633 49.7456C35.7879 49.1956 35.8352 48.6309 35.8037 48.0678C35.7228 47.1958 35.3483 46.3771 34.7416 45.7456C34.5379 45.5434 34.3108 45.3662 34.065 45.2179C33.5805 44.9235 33.0173 44.7848 32.4515 44.8204C32.1797 44.8364 31.9109 44.8865 31.6515 44.9693C31.3984 45.0534 31.156 45.1669 30.9293 45.3075C30.713 45.4538 30.5163 45.6271 30.3441 45.8234C30.1791 46.0182 30.0472 46.2388 29.9534 46.4762C29.7924 46.9452 29.7074 47.4368 29.7014 47.9325C29.6921 48.4084 29.6228 48.8812 29.4951 49.3397C29.3393 49.7571 29.1209 50.1483 28.8473 50.4999C28.5987 50.8382 28.3483 51.1646 28.1471 51.4944C27.9492 51.802 27.8184 52.1477 27.7631 52.5092C27.7195 52.8325 27.7431 53.1613 27.8325 53.475C27.9179 53.7454 28.0477 53.9997 28.2164 54.2276C28.293 54.3266 28.3772 54.4193 28.4684 54.505L28.597 54.6234L28.7306 54.7215C29.0032 54.9105 29.3099 55.0449 29.6337 55.1173C29.7454 55.1393 29.8316 55.146 29.8891 55.1579L29.9771 55.1731C29.9478 55.1753 29.9184 55.1753 29.8891 55.1731C29.8299 55.1731 29.742 55.1612 29.6287 55.1426C29.2985 55.0788 28.9848 54.9482 28.7069 54.7587L28.5699 54.6623L28.4363 54.5439C28.1264 54.2605 27.8986 53.8988 27.7767 53.497C27.6811 53.1758 27.654 52.8381 27.6972 52.5058C27.7511 52.1346 27.8831 51.7789 28.0845 51.4623C28.2841 51.124 28.5361 50.8027 28.7813 50.4593C29.0482 50.1135 29.2609 49.7291 29.4122 49.3194C29.5351 48.8671 29.601 48.4011 29.6084 47.9325C29.6142 47.4267 29.6998 46.9249 29.8621 46.4458C29.9607 46.2002 30.0977 45.9719 30.268 45.7693C30.4453 45.564 30.6496 45.3837 30.8752 45.2331C31.1081 45.0849 31.358 44.9651 31.6194 44.8762C31.8873 44.7894 32.1652 44.7371 32.4464 44.7206C32.7331 44.7045 33.0207 44.729 33.3006 44.7934C33.5831 44.8656 33.8545 44.976 34.1073 45.1215C34.3606 45.2743 34.5941 45.4578 34.8025 45.6678C35.0105 45.8824 35.1932 46.1202 35.3471 46.3765C35.652 46.8874 35.8387 47.4601 35.8934 48.0526C35.9259 48.6253 35.8781 49.1997 35.7513 49.7591C35.6325 50.2903 35.5758 50.8335 35.5822 51.3777C35.6138 51.8969 35.7844 52.3981 36.076 52.8289C36.6257 53.6746 37.3851 54.3511 37.7183 55.2357C38.0323 56.0385 38.0838 56.9201 37.8655 57.7541C37.7722 58.1149 37.6341 58.4626 37.4545 58.7891C37.2876 59.0772 37.0865 59.3441 36.8557 59.5841C36.4998 59.9835 36.0259 60.259 35.5027 60.3705C35.3356 60.3976 35.1647 60.3912 35.0001 60.3517C34.8355 60.3122 34.6803 60.2404 34.5437 60.1405C34.4741 60.0871 34.4121 60.0245 34.3593 59.9545C34.3418 59.9285 34.326 59.9014 34.312 59.8733Z" fill="#FAFAFA"/>
<path d="M41.627 47.2588C41.615 47.2892 41.5985 47.3177 41.578 47.3433C41.5296 47.4224 41.4729 47.4961 41.4089 47.5632C41.1667 47.8156 40.8648 48.0029 40.5311 48.1078C40.0336 48.2689 39.4957 48.2528 39.0089 48.0621C38.4124 47.8274 37.9145 47.3952 37.5983 46.8376C37.2883 46.2819 37.1363 45.652 37.1585 45.016C37.1755 44.4376 37.2972 43.9048 37.5543 43.5361C37.6509 43.3888 37.777 43.263 37.9246 43.1666C38.0721 43.0703 38.238 43.0055 38.4118 42.9763C38.5053 42.961 38.6007 42.961 38.6943 42.9763C38.7273 42.9802 38.7594 42.9899 38.789 43.0051C38.6655 42.9882 38.5403 42.9882 38.4169 43.0051C38.2527 43.0407 38.0972 43.1087 37.9595 43.2051C37.8219 43.3016 37.7048 43.4244 37.6152 43.5666C37.3665 44.0046 37.2425 44.5024 37.2566 45.0059C37.2398 45.6232 37.3893 46.2337 37.6896 46.7733C37.9946 47.3089 38.4713 47.726 39.0427 47.9573C39.5097 48.1455 40.027 48.1688 40.5091 48.0232C40.8357 47.9258 41.1343 47.7519 41.3801 47.5158C41.5459 47.367 41.6186 47.252 41.627 47.2588Z" fill="#FAFAFA"/>
<path d="M43.4215 52.2927C43.3304 52.1831 43.2232 52.0879 43.1036 52.0103C42.9351 51.9165 42.7482 51.8608 42.5559 51.8471C42.3637 51.8334 42.1707 51.8619 41.9907 51.9308C41.5323 52.0999 41.1196 52.5786 40.9133 53.1925C40.7069 53.8065 40.6883 54.5456 40.5987 55.2965C40.5091 56.0475 40.3873 56.7663 40.3315 57.4209C40.2714 57.9987 40.2776 58.5815 40.3501 59.1578C40.4011 59.5457 40.4999 59.9258 40.6444 60.2893C40.7492 60.5464 40.8253 60.68 40.8135 60.6851C40.7893 60.6565 40.7683 60.6253 40.7509 60.5921C40.696 60.4997 40.6463 60.4042 40.6021 60.3063C40.4413 59.9435 40.3303 59.5606 40.2723 59.168C40.1889 58.5865 40.1753 57.9971 40.2317 57.4124C40.2824 56.7528 40.4008 56.0373 40.4905 55.283C40.5801 54.5287 40.5902 53.7963 40.8169 53.1604C41.0435 52.5244 41.4731 52.0323 41.9619 51.8598C42.1516 51.7904 42.3545 51.7648 42.5554 51.785C42.7564 51.8052 42.9501 51.8707 43.1222 51.9765C43.2134 52.0358 43.2941 52.1102 43.3606 52.1963C43.386 52.225 43.4065 52.2576 43.4215 52.2927Z" fill="#FAFAFA"/>
<path d="M15.8765 69.8805C15.8765 69.8805 15.912 69.9752 15.9983 70.146C16.123 70.3959 16.2806 70.628 16.4668 70.8361C16.6023 70.9843 16.7537 71.117 16.9184 71.2318C17.1131 71.3678 17.3386 71.4533 17.5746 71.4805C17.8473 71.4913 18.1176 71.4251 18.3543 71.2893C18.6323 71.1541 18.9027 71.0039 19.1645 70.8394C19.7175 70.5012 20.3349 70.0952 21.1027 69.9346C21.8706 69.7739 22.6926 69.7468 23.4808 69.4069C24.2952 69.0245 24.9614 68.3851 25.3767 67.587C25.8173 66.7279 26.0753 65.787 26.1345 64.8234C26.2424 63.8637 26.1684 62.8922 25.9163 61.9599C25.7877 61.5222 25.5871 61.1089 25.3226 60.7371C25.0669 60.3832 24.7382 60.0885 24.3586 59.8728C23.9882 59.6563 23.5975 59.494 23.2423 59.2809C22.8937 59.0772 22.5899 58.805 22.3493 58.4809C21.8824 57.8568 21.6304 57.1752 21.3531 56.5883C21.1299 56.0474 20.8127 55.5504 20.4161 55.1202C20.1072 54.8046 19.7137 54.5849 19.2829 54.4876C19.0109 54.4254 18.7277 54.4324 18.4592 54.5079C18.2765 54.5671 18.192 54.6229 18.1886 54.6162C18.2701 54.5613 18.3589 54.518 18.4524 54.4876C18.7261 54.4013 19.0174 54.3873 19.2981 54.447C19.7403 54.539 20.146 54.7583 20.4651 55.0779C20.8711 55.5096 21.197 56.0102 21.4275 56.5561C21.7099 57.1447 21.9653 57.8213 22.4271 58.4284C22.662 58.7425 22.9583 59.0055 23.2981 59.2014C23.6448 59.4094 24.0355 59.5701 24.4144 59.7883C24.8061 60.0104 25.1457 60.3137 25.4106 60.6779C25.6828 61.0582 25.8897 61.4812 26.0228 61.9295C26.2802 62.8747 26.3566 63.86 26.2478 64.8335C26.1846 65.8113 25.9215 66.7657 25.4748 67.6377C25.0466 68.4545 24.3621 69.1081 23.5264 69.4982C23.1325 69.6582 22.7199 69.7678 22.2985 69.8246C21.8943 69.8906 21.5002 69.9396 21.1281 70.0225C20.3772 70.1747 19.775 70.5705 19.2101 70.9037C18.9452 71.0681 18.6713 71.2177 18.3898 71.3519C18.2594 71.4143 18.1242 71.4663 17.9856 71.5075C17.9501 71.516 17.9163 71.5278 17.8824 71.5329L17.7793 71.5447C17.7118 71.5507 17.6438 71.5507 17.5763 71.5447C17.3318 71.5142 17.0991 71.4223 16.8998 71.2775C16.7325 71.1595 16.5798 71.0221 16.4448 70.8682C16.2593 70.6552 16.1055 70.4165 15.9882 70.1595C15.9416 70.0705 15.9042 69.977 15.8765 69.8805Z" fill="#FAFAFA"/>
<path d="M45.813 56.8366L45.7724 56.8738L45.649 56.9804L45.1636 57.3863L43.3234 58.9085L36.8625 64.2108L36.8219 64.2447L36.7932 64.2024C36.4549 63.717 36.1454 63.1876 35.8359 62.6565C35.5263 62.1254 35.2185 61.5656 34.9073 60.999C34.29 59.8624 33.6777 58.67 33.0739 57.4354C32.487 56.2362 31.9373 55.054 31.435 53.9005C31.1864 53.322 30.9445 52.7521 30.7348 52.1838C30.6282 51.8996 30.5302 51.6155 30.4473 51.3381C30.4118 51.1927 30.3762 51.0489 30.3424 50.9068C30.3086 50.7647 30.29 50.6176 30.2646 50.4738C30.0968 49.3809 30.1912 48.2638 30.5403 47.2146C30.846 46.3034 31.3276 45.461 31.9576 44.7352C32.479 44.1388 33.1028 43.6405 33.7995 43.2637C34.3229 42.9754 34.8868 42.7678 35.4722 42.648C35.8408 42.5738 36.2159 42.537 36.5919 42.5381L36.8862 42.555C36.9521 42.555 36.9843 42.5635 36.9843 42.5635H36.8845H36.5919C36.2183 42.5712 35.8462 42.6143 35.4807 42.692C34.9023 42.8189 34.3456 43.0297 33.8282 43.3178C33.1413 43.6968 32.5269 44.1944 32.0135 44.7876C31.3948 45.5084 30.9231 46.3432 30.6249 47.2451C30.2841 48.2803 30.1936 49.3816 30.361 50.4586C30.3864 50.599 30.4118 50.7411 30.4388 50.8848C30.4659 51.0286 30.5082 51.1673 30.5437 51.3094C30.6249 51.5918 30.723 51.8726 30.8278 52.155C31.0392 52.7216 31.2811 53.2899 31.5297 53.865C32.0371 55.0168 32.5817 56.1973 33.1686 57.3948C33.7724 58.6278 34.383 59.8218 34.9987 60.9567C35.3087 61.5205 35.6171 62.0724 35.9238 62.6125C36.2316 63.1487 36.5361 63.6713 36.871 64.1533L36.8016 64.1432C39.4485 61.9901 41.6963 60.1618 43.2879 58.8696L45.1483 57.3711L45.6439 56.977L45.7724 56.8772C45.7978 56.8451 45.813 56.8282 45.813 56.8366Z" fill="#263238"/>
<path d="M53.4968 64.0504C53.0486 61.8788 51.5957 61.3612 51.5957 61.3612L51.2575 64.0267L47.3674 62.4352L44.3332 58.0986L37.9416 63.3248C37.9416 63.3248 43.0359 68.568 45.1771 68.7895C47.3184 69.0111 52.3704 68.776 52.3704 68.776C52.3704 68.776 53.9433 66.2221 53.4968 64.0504Z" fill="#FFBE9D"/>
<path d="M29.4342 58.0127L25.4833 62.7247L17.0452 61.5036L17.0604 61.3954L17.3209 58.7214C14.8042 59.0901 14.4118 61.0317 14.2985 62.3848C14.1733 63.8816 16.0169 65.2837 16.4008 65.5577V65.6254C16.4008 65.6254 24.9387 70.2444 28.8084 68.9759C30.6046 68.3873 34.9784 63.7954 34.9784 63.7954V61.5797L29.4342 58.0127Z" fill="#B78876"/>
<path d="M28.3281 57.3206L34.9716 62.376L35.3302 61.7755C33.9187 59.2369 32.6416 56.6259 31.5044 53.9531L28.3281 57.3206Z" fill="#455A64"/>
<path d="M19.9002 46.7395L20.8794 48.5813C21.0384 48.8807 21.2651 49.2223 21.6033 49.2156C21.9128 49.2156 22.1395 48.8858 22.153 48.5762C22.1383 48.2662 22.0471 47.9646 21.8875 47.6984C21.5176 46.9509 21.1478 46.2039 20.778 45.4574L20.7154 45.2494C20.7154 45.2494 20.3585 44.6388 19.9374 44.8485C19.5534 45.0414 19.3995 45.7974 19.9002 46.7395Z" fill="#B78876"/>
<path d="M19.2034 48.257C19.5281 48.8704 19.854 49.4843 20.181 50.0988C20.3399 50.3982 20.5463 50.8396 20.8862 50.8329C21.0491 50.812 21.2 50.7364 21.314 50.6183C21.4281 50.5002 21.4985 50.3468 21.5137 50.1834C21.5273 49.8756 21.3277 49.4933 21.1907 49.2159L20.0795 46.9749L20.0169 46.7669C20.0169 46.7669 19.6617 46.1563 19.2389 46.3677C18.855 46.5589 18.7027 47.3149 19.2034 48.257Z" fill="#B78876"/>
<path d="M18.5454 49.8164L19.4739 51.5619C19.6244 51.846 19.8392 52.1707 20.1606 52.164C20.4532 52.164 20.668 51.8511 20.6815 51.5585C20.6681 51.2644 20.5815 50.9784 20.4295 50.7263L19.3775 48.6003L19.3183 48.4041C19.3183 48.4041 18.98 47.8257 18.5809 48.0253C18.2156 48.2029 18.0752 48.9234 18.5454 49.8164Z" fill="#B78876"/>
<path d="M17.9467 50.5827L18.6367 51.8817C18.7501 52.0931 18.909 52.3349 19.1441 52.3299C19.2523 52.3147 19.3513 52.2607 19.4225 52.1779C19.4938 52.0951 19.5325 51.9892 19.5315 51.88C19.5217 51.6606 19.4572 51.4472 19.3437 51.2593L18.5606 49.6762L18.5167 49.529C18.5167 49.529 18.2646 49.0977 17.967 49.2466C17.6997 49.387 17.5932 49.9163 17.9467 50.5827Z" fill="#B78876"/>
<path d="M19.7666 46.3844C19.8302 46.4705 19.8868 46.5615 19.9357 46.6567C20.0439 46.8512 20.186 47.1066 20.3552 47.4145C20.5243 47.7223 20.7391 48.1231 20.9657 48.546C21.0604 48.7709 21.2163 48.9649 21.4156 49.1058C21.5273 49.1591 21.6553 49.1672 21.7728 49.1284C21.8903 49.0896 21.9884 49.007 22.0465 48.8977C22.1049 48.7828 22.1385 48.6569 22.1452 48.5281C22.1519 48.3993 22.1316 48.2706 22.0854 48.1502C21.9983 47.9174 21.8943 47.6912 21.7742 47.4736L21.1974 46.3235L20.8169 45.5455C20.7658 45.452 20.7234 45.3541 20.69 45.2529C20.7542 45.3392 20.8108 45.4309 20.8592 45.5269L21.2685 46.2897L21.8655 47.428C21.9908 47.6514 22.0993 47.8837 22.1903 48.1231C22.2415 48.2574 22.2636 48.401 22.2551 48.5445C22.2467 48.6879 22.2078 48.8279 22.1412 48.9553C22.0634 49.084 21.9441 49.1824 21.8029 49.2343C21.733 49.2592 21.6586 49.2691 21.5845 49.2633C21.5105 49.2574 21.4385 49.236 21.3733 49.2005C21.1554 49.0497 20.9861 48.8387 20.8862 48.5933L20.296 47.4534L19.9019 46.6804C19.8482 46.5859 19.8029 46.4869 19.7666 46.3844Z" fill="#A36957"/>
<path d="M19.09 48.0102C19.1529 48.0968 19.2094 48.1878 19.2592 48.2825L19.6786 49.0402L20.2892 50.1717C20.3839 50.3962 20.539 50.59 20.7374 50.7315C20.8493 50.7849 20.9775 50.793 21.0954 50.7543C21.2132 50.7156 21.3115 50.6329 21.3699 50.5235C21.4284 50.4085 21.462 50.2826 21.4687 50.1538C21.4754 50.0251 21.455 49.8963 21.4088 49.7759C21.3208 49.5432 21.2163 49.3172 21.0959 49.0994C20.8811 48.6715 20.6866 48.2842 20.5209 47.951L20.1403 47.173C20.0893 47.0795 20.0468 46.9816 20.0135 46.8804C20.078 46.9664 20.1346 47.0581 20.1826 47.1544C20.2892 47.3506 20.4279 47.6076 20.5936 47.9172L21.1907 49.0554C21.3163 49.2784 21.4243 49.5108 21.5137 49.7506C21.5621 49.8836 21.5822 50.0253 21.5726 50.1666C21.563 50.3079 21.5239 50.4456 21.4579 50.5709C21.3801 50.6996 21.2608 50.798 21.1196 50.8499C21.0497 50.8748 20.9752 50.8847 20.9012 50.8789C20.8272 50.873 20.7552 50.8517 20.69 50.8161C20.4721 50.6654 20.3028 50.4543 20.2029 50.2089L19.6126 49.069L19.2236 48.2943C19.1703 48.204 19.1255 48.1089 19.09 48.0102Z" fill="#A36957"/>
<path d="M18.3069 49.2175C18.3736 49.3033 18.4303 49.3963 18.4761 49.4949C18.5742 49.6775 18.7061 49.9464 18.8634 50.2813C19.0207 50.6162 19.2017 51.0171 19.4249 51.4483C19.5198 51.677 19.669 51.879 19.8596 52.0369C19.9087 52.0699 19.9641 52.0925 20.0222 52.1033C20.0804 52.114 20.1402 52.1127 20.1979 52.0995C20.3209 52.0648 20.4283 51.989 20.5023 51.8847C20.568 51.7728 20.6082 51.6478 20.6202 51.5186C20.6322 51.3894 20.6156 51.2592 20.5716 51.1371C20.4885 50.8987 20.3849 50.6678 20.2621 50.4471C20.0439 50.0158 19.8477 49.6234 19.6786 49.2868L19.2947 48.5003C19.2447 48.4055 19.2018 48.3072 19.1661 48.2061C19.2309 48.2925 19.2876 48.3848 19.3353 48.4817C19.4418 48.6813 19.5805 48.9401 19.7497 49.253C19.9188 49.5659 20.1268 49.9752 20.3518 50.4031C20.4801 50.6282 20.5882 50.8642 20.6748 51.1084C20.724 51.2453 20.742 51.3915 20.7277 51.5363C20.7133 51.6811 20.667 51.8209 20.5919 51.9456C20.5028 52.0702 20.374 52.1608 20.2266 52.2027C20.1537 52.2202 20.0779 52.2222 20.0042 52.2085C19.9305 52.1948 19.8605 52.1657 19.7987 52.1232C19.5932 51.9555 19.4328 51.7393 19.3319 51.494C19.1103 51.0559 18.9378 50.6483 18.789 50.3101L18.4355 49.5101C18.3859 49.4156 18.343 49.3179 18.3069 49.2175Z" fill="#A36957"/>
</svg>
