<svg width="165" height="97" viewBox="0 0 165 97" fill="none" xmlns="http://www.w3.org/2000/svg">
<path d="M107.438 25.9046C85.1693 22.664 46.7777 36.0418 33.9251 55.0232C21.827 72.8912 27.6434 100.807 50.2908 104.41C76.3716 108.574 105.248 95.768 122.64 77.3682C138.517 60.5903 134.486 29.8431 107.438 25.9046Z" fill="#EBEBEB"/>
<path opacity="0.9" d="M107.438 25.9046C85.1693 22.664 46.7777 36.0418 33.9251 55.0232C21.827 72.8912 27.6434 100.807 50.2908 104.41C76.3716 108.574 105.248 95.768 122.64 77.3682C138.517 60.5903 134.486 29.8431 107.438 25.9046Z" fill="#FACECC"/>
<path d="M91.6471 91.3252C91.6471 91.302 91.6471 91.2787 91.6305 91.2554L90.763 85.7913C90.7353 85.6457 90.7405 85.4958 90.778 85.3524C90.8156 85.209 90.8846 85.0758 90.9801 84.9625C91.0756 84.8492 91.1952 84.7586 91.3301 84.6973C91.4651 84.6359 91.6119 84.6055 91.7601 84.6081H101.219L103.483 69.6716C103.549 69.2965 103.742 68.9555 104.029 68.7056C104.316 68.4557 104.681 68.3122 105.061 68.2989H120.174C120.347 68.2936 120.519 68.3273 120.677 68.3976C120.835 68.4679 120.975 68.5729 121.087 68.7048C121.198 68.8368 121.279 68.9922 121.322 69.1596C121.366 69.3269 121.371 69.5019 121.337 69.6716L118.22 90.255C118.154 90.6301 117.961 90.9711 117.674 91.2209C117.386 91.4708 117.022 91.6144 116.641 91.6277H116.352L116.066 92.5816C115.973 92.8907 115.782 93.1616 115.523 93.3543C115.264 93.547 114.95 93.6513 114.627 93.6518H90.5969C90.5959 93.2115 90.6892 92.7762 90.8703 92.3749C91.0515 91.9736 91.3163 91.6157 91.6471 91.3252Z" fill="#E50C00"/>
<path opacity="0.5" d="M91.6471 91.3252C91.6471 91.302 91.6471 91.2787 91.6305 91.2554L90.763 85.7913C90.7353 85.6457 90.7405 85.4958 90.778 85.3524C90.8156 85.209 90.8846 85.0758 90.9801 84.9625C91.0756 84.8492 91.1952 84.7586 91.3301 84.6973C91.4651 84.6359 91.6119 84.6055 91.7601 84.6081H101.219L103.483 69.6716C103.549 69.2965 103.742 68.9555 104.029 68.7056C104.316 68.4557 104.681 68.3122 105.061 68.2989H120.174C120.347 68.2936 120.519 68.3273 120.677 68.3976C120.835 68.4679 120.975 68.5729 121.087 68.7048C121.198 68.8368 121.279 68.9922 121.322 69.1596C121.366 69.3269 121.371 69.5019 121.337 69.6716L118.22 90.255C118.154 90.6301 117.961 90.9711 117.674 91.2209C117.386 91.4708 117.022 91.6144 116.641 91.6277H116.352L116.066 92.5816C115.973 92.8907 115.782 93.1616 115.523 93.3543C115.264 93.547 114.95 93.6513 114.627 93.6518H90.5969C90.5959 93.2115 90.6892 92.7762 90.8703 92.3749C91.0515 91.9736 91.3163 91.6157 91.6471 91.3252Z" fill="black"/>
<path d="M107.418 118.094H108.472L107.029 93.6484H105.972L107.418 118.094Z" fill="#E50C00"/>
<path opacity="0.5" d="M107.418 118.094H108.472L107.029 93.6484H105.972L107.418 118.094Z" fill="white"/>
<path d="M91.7136 118.094H90.6567L92.1024 93.6484H93.1561L91.7136 118.094Z" fill="#E50C00"/>
<path opacity="0.5" d="M91.7136 118.094H90.6567L92.1024 93.6484H93.1561L91.7136 118.094Z" fill="white"/>
<path d="M114.025 118.094H115.079L113.633 93.6484H112.58L114.025 118.094Z" fill="#E50C00"/>
<path opacity="0.5" d="M114.025 118.094H115.079L113.633 93.6484H112.58L114.025 118.094Z" fill="white"/>
<path d="M98.321 118.094H97.2641L98.7099 93.6484H99.7635L98.321 118.094Z" fill="#E50C00"/>
<path opacity="0.5" d="M98.321 118.094H97.2641L98.7099 93.6484H99.7635L98.321 118.094Z" fill="white"/>
<path d="M100.392 78.5259C100.392 78.5259 81.716 79.4897 81.6894 86.7353C81.6495 97.1517 77.9603 110.197 77.9603 110.197L82.2545 111.925C82.2545 111.925 88.7356 96.7362 88.6425 88.6065C93.7477 87.1408 106.963 89.6036 108.525 85.3693C109.29 83.1734 109.493 80.8203 109.113 78.5259H100.392Z" fill="#E50C00"/>
<path opacity="0.3" d="M100.392 78.5259C100.392 78.5259 81.716 79.4897 81.6894 86.7353C81.6495 97.1517 77.9603 110.197 77.9603 110.197L82.2545 111.925C82.2545 111.925 88.7356 96.7362 88.6425 88.6065C93.7477 87.1408 106.963 89.6036 108.525 85.3693C109.29 83.1734 109.493 80.8203 109.113 78.5259H100.392Z" fill="black"/>
<path d="M101.615 60.1893C101.399 60.854 101.183 61.4722 100.95 62.1004C100.717 62.7286 100.468 63.3401 100.209 63.9517C99.6871 65.1781 99.1154 66.3912 98.4673 67.5778C97.8168 68.7958 97.071 69.9605 96.2371 71.061C95.7954 71.6424 95.311 72.1901 94.788 72.6996C94.2174 73.2626 93.5747 73.7476 92.8769 74.142L92.7373 74.2185L92.6675 74.2417C92.2291 74.4031 91.7593 74.4612 91.2948 74.4112C90.9947 74.3835 90.6977 74.329 90.4074 74.2484C89.931 74.1149 89.4646 73.9483 89.0115 73.7498C88.1933 73.3853 87.3975 72.9724 86.6284 72.5134C85.8772 72.0681 85.1527 71.6027 84.4447 71.1142C83.7368 70.6256 83.0488 70.1171 82.3708 69.5653L83.3679 67.96C84.119 68.2924 84.8768 68.648 85.6379 68.9571C86.3991 69.2662 87.1502 69.6218 87.9014 69.921C88.6525 70.2201 89.4036 70.5093 90.1216 70.7319C90.4476 70.8368 90.7809 70.9179 91.1187 70.9746C91.2362 70.9942 91.3552 71.0031 91.4743 71.0012C91.5474 71.0012 91.5673 70.9546 91.3447 71.0244L91.1353 71.1275C91.98 70.5119 92.7063 69.7484 93.279 68.874C93.9502 67.8893 94.5554 66.8611 95.0904 65.7963C95.6388 64.7095 96.1507 63.5861 96.6293 62.4394C96.8686 61.8711 97.1012 61.2927 97.3239 60.7144C97.5466 60.1361 97.766 59.5379 97.9521 58.9961L101.615 60.1893Z" fill="#FFC3BD"/>
<path d="M98.7731 57.4376C95.9912 58.8668 94.911 63.7526 94.911 63.7526L100.422 67.4319C102.196 65.77 103.772 62.114 104.078 60.4322C104.51 57.8763 102.077 55.7392 98.7731 57.4376Z" fill="#263238"/>
<path opacity="0.3" d="M99.7934 61.6182C98.8628 62.7117 98.4972 64.3502 98.5038 66.155L100.422 67.4346C102.143 65.8093 103.695 62.3128 104.028 60.5912C102.403 60.3319 100.501 60.7773 99.7934 61.6182Z" fill="black"/>
<path d="M105.357 78.5259C105.357 78.5259 88.6924 79.9351 89.1045 87.1674C89.5532 95.0877 95.9679 112.906 95.9679 112.906H100.594C100.594 112.906 98.5038 96.7861 97.4868 88.7195C102.183 88.7195 111.928 89.6036 113.49 85.366C114.266 83.2143 114.643 80.9392 114.604 78.6522L105.357 78.5259Z" fill="#E50C00"/>
<path opacity="0.3" d="M105.357 78.5259C105.357 78.5259 88.6924 79.9351 89.1045 87.1674C89.5532 95.0877 95.9679 112.906 95.9679 112.906H100.594C100.594 112.906 98.5038 96.7861 97.4868 88.7195C102.183 88.7195 111.928 89.6036 113.49 85.366C114.266 83.2143 114.643 80.9392 114.604 78.6522L105.357 78.5259Z" fill="black"/>
<path d="M83.986 68.2317L81.6362 66.7095L80.7854 69.6509C80.7854 69.6509 83.4443 70.4951 83.9295 69.7772L83.986 68.2317Z" fill="#FFC3BD"/>
<path d="M79.0039 67.208L79.0803 69.4814L80.7853 69.6509L81.6362 66.7095L79.0039 67.208Z" fill="#FFC3BD"/>
<path d="M113.553 56.3094C113.301 55.6447 112.141 54.98 111.423 54.98H110.951C110.13 54.98 109.1 55.0431 108.103 55.1628C106.203 55.3703 104.316 55.6866 102.452 56.11C101.595 56.336 100.767 56.6219 100.126 56.8678C99.2849 57.2002 98.7963 57.4229 98.7963 57.4229C98.7963 57.4229 100.196 72.1899 100.432 78.6411H114.614C115.102 75.8725 114.783 70.7973 114.823 65.7919C114.823 62.7906 114.58 59.0481 113.553 56.3094Z" fill="#263238"/>
<path d="M114.225 58.8286C114.295 59.3371 114.341 59.7659 114.371 60.2312C114.401 60.6965 114.427 61.1419 114.441 61.5972C114.464 62.5079 114.441 63.4219 114.381 64.3392C114.317 65.2654 114.196 66.1867 114.019 67.0979L113.879 67.7925L113.7 68.4672C113.643 68.6966 113.56 68.9292 113.49 69.1586L113.377 69.4909L113.351 69.574L113.287 69.7402C113.245 69.854 113.195 69.965 113.138 70.0726C112.78 70.6999 112.261 71.2207 111.636 71.5815C111.18 71.8549 110.699 72.0842 110.2 72.2662C109.313 72.5845 108.402 72.828 107.474 72.9941C105.712 73.3112 103.924 73.4659 102.133 73.4561L101.937 71.5715C103.562 71.176 105.218 70.734 106.763 70.2188C107.509 69.9752 108.238 69.6809 108.943 69.338C109.242 69.1943 109.525 69.0206 109.788 68.8195C110.01 68.6534 110.12 68.4639 110.077 68.5038L110.057 68.5337L110.073 68.4639L110.133 68.1881C110.173 68.0019 110.226 67.8225 110.253 67.6297L110.353 67.0613L110.432 66.4797C110.526 65.702 110.585 64.9076 110.605 64.1066C110.625 63.3056 110.622 62.4913 110.605 61.6803C110.605 61.2748 110.572 60.8693 110.542 60.4672L110.496 59.8656L110.449 59.2973L114.225 58.8286Z" fill="#FFC3BD"/>
<path d="M114.221 55.8924C112.114 54.4 110.286 54.5363 109.322 57.8866C108.688 60.0769 108.9 64.7699 108.9 64.7699L115.215 64.3179C115.97 60.8247 116.046 57.1886 114.221 55.8924Z" fill="#263238"/>
<path d="M107.268 48.5264L105.859 50.1616L103.938 52.3851C104.054 52.671 104.152 52.9641 104.231 53.2626C104.563 54.4525 104.423 55.5892 102.715 56.3237C102.715 56.3237 101.239 58.2514 104.749 57.7163C108.259 57.1812 108.787 55.3465 108.787 55.3465C107.235 54.2597 107.145 50.5837 107.268 48.5264Z" fill="#FFC3BD"/>
<path opacity="0.2" d="M103.938 52.3915C104.054 52.6774 104.152 52.9705 104.231 53.2689C105.035 52.9632 105.999 51.8896 105.972 51.0221C105.965 50.7342 105.927 50.4479 105.859 50.168L103.938 52.3915Z" fill="black"/>
<path d="M100.578 42.7207C99.4677 43.2126 99.6172 46.6526 100.578 47.1977C101.538 47.7427 102.941 41.6671 100.578 42.7207Z" fill="#263238"/>
<path d="M107.471 45.5842C107.338 48.2963 107.398 49.8883 106.052 51.3408C105.619 51.8177 105.065 52.1673 104.448 52.3519C103.831 52.5366 103.176 52.5492 102.552 52.3883C101.929 52.2275 101.361 51.8994 100.911 51.4395C100.46 50.9795 100.144 50.4052 99.9962 49.7786C99.3846 47.3723 99.7037 43.3407 102.323 42.1342C102.886 41.8566 103.513 41.7323 104.14 41.774C104.767 41.8156 105.372 42.0217 105.894 42.3715C106.416 42.7212 106.836 43.2023 107.113 43.7663C107.39 44.3303 107.514 44.9573 107.471 45.5842Z" fill="#FFC3BD"/>
<path opacity="0.3" d="M105.045 48.0001C104.988 48.4189 104.45 48.6915 103.838 48.6117C103.227 48.5319 102.778 48.1264 102.841 47.7077C102.904 47.2889 103.433 47.0197 104.044 47.0994C104.656 47.1792 105.098 47.5847 105.045 48.0001Z" fill="#ED847E"/>
<path opacity="0.3" d="M100.332 47.7382C100.281 47.6182 100.199 47.5143 100.093 47.4381C99.9879 47.3618 99.8634 47.3162 99.7336 47.3062C99.724 47.769 99.7451 48.232 99.7967 48.6921C100.212 48.4595 100.442 48.0706 100.332 47.7382Z" fill="#ED847E"/>
<path d="M100.279 42.9934C101.176 44.5622 105.972 43.7346 105.972 43.7346C105.689 45.0916 105.563 46.4767 105.597 47.8626C106.081 48.0772 106.629 48.0986 107.129 47.9224L108.309 46.9951C108.309 46.9951 110.22 44.8347 109.372 43.256C110.137 42.2389 97.5101 40.4575 100.279 42.9934Z" fill="#263238"/>
<path d="M110.177 42.946C110.183 42.7777 110.142 42.611 110.059 42.4647C109.975 42.3184 109.853 42.1984 109.705 42.1184C109.71 41.8969 109.631 41.6817 109.483 41.5164C109.336 41.351 109.131 41.2478 108.91 41.2277C108.862 41.0795 108.782 40.944 108.675 40.8311C108.568 40.7181 108.437 40.6307 108.291 40.5752C108.146 40.5197 107.99 40.4975 107.834 40.5104C107.679 40.5232 107.529 40.5707 107.395 40.6494C107.342 40.5111 107.261 40.3856 107.156 40.2815C107.051 40.1773 106.925 40.0968 106.787 40.0455C106.648 39.9941 106.5 39.9731 106.353 39.9838C106.205 39.9945 106.062 40.0367 105.932 40.1076C105.769 39.8735 105.523 39.7106 105.244 39.6519C104.964 39.5932 104.673 39.6433 104.43 39.7918C104.254 39.878 104.102 40.0044 103.985 40.1608C103.808 40.0104 103.589 39.919 103.357 39.8993C103.126 39.8797 102.895 39.9327 102.695 40.0511C102.461 40.1635 102.272 40.3523 102.16 40.5862C101.994 40.4783 101.801 40.4179 101.603 40.4114C101.405 40.405 101.209 40.4528 101.036 40.5496C100.893 40.6165 100.767 40.7144 100.666 40.8363C100.566 40.9582 100.493 41.101 100.455 41.2543C100.384 41.2741 100.315 41.3008 100.249 41.334C100.14 41.3813 100.042 41.4511 99.9625 41.5387C99.8826 41.6264 99.8221 41.73 99.7851 41.8427C99.748 41.9554 99.7352 42.0746 99.7476 42.1926C99.7599 42.3106 99.797 42.4246 99.8566 42.5272C99.8196 42.6375 99.8059 42.7543 99.8162 42.8702C99.8265 42.9861 99.8607 43.0986 99.9166 43.2006C99.9724 43.3027 100.049 43.3921 100.141 43.4632C100.233 43.5344 100.339 43.5857 100.451 43.6141C100.583 43.6653 100.724 43.6843 100.864 43.6692C101.004 43.6542 101.139 43.6057 101.256 43.5278C101.374 43.4499 101.47 43.3449 101.539 43.2216C101.607 43.0984 101.644 42.9605 101.648 42.8197C101.651 42.7732 101.651 42.7266 101.648 42.6801C102.282 42.9494 102.955 43.1154 103.642 43.172C105.952 43.4412 107.508 43.1388 108.162 42.7167C108.224 42.7736 108.294 42.8217 108.368 42.8596C108.363 42.9729 108.381 43.0862 108.422 43.192C108.293 43.2862 108.194 43.4152 108.136 43.5638C108.078 43.7123 108.064 43.8743 108.095 44.0307C108.126 44.187 108.201 44.3313 108.312 44.4465C108.422 44.5617 108.563 44.643 108.717 44.681C108.849 44.733 108.99 44.7526 109.131 44.7379C109.271 44.7233 109.406 44.6748 109.524 44.5968C109.641 44.5187 109.738 44.4133 109.806 44.2897C109.874 44.166 109.911 44.0277 109.914 43.8866C109.917 43.7852 109.902 43.684 109.871 43.5875C109.962 43.5067 110.037 43.4083 110.089 43.298C110.142 43.1878 110.172 43.068 110.177 42.946Z" fill="#263238"/>
<path d="M108.488 47.9617C108.16 48.5755 107.618 49.0482 106.966 49.2912C106.118 49.5903 105.716 48.8292 105.969 47.985C106.198 47.2239 106.919 46.1503 107.76 46.2168C108.601 46.2833 108.894 47.1973 108.488 47.9617Z" fill="#FFC3BD"/>
<path d="M103.031 46.5762C103.031 46.7955 102.921 46.9816 102.778 46.9883C102.635 46.9949 102.515 46.8221 102.512 46.5994C102.509 46.3767 102.622 46.1973 102.768 46.1906C102.914 46.184 103.031 46.3568 103.031 46.5762Z" fill="#263238"/>
<path d="M100.538 46.6919C100.538 46.9146 100.428 47.0974 100.285 47.104C100.142 47.1107 100.023 46.9378 100.019 46.7185C100.016 46.4991 100.129 46.313 100.275 46.3063C100.422 46.2997 100.538 46.4725 100.538 46.6919Z" fill="#263238"/>
<path d="M101.296 46.6548C101.119 47.2535 100.863 47.8259 100.535 48.3565C100.671 48.4326 100.823 48.478 100.979 48.4895C101.135 48.501 101.292 48.4783 101.439 48.423L101.296 46.6548Z" fill="#ED847E"/>
<path d="M101.618 49.4797C101.874 49.4756 102.126 49.42 102.36 49.316C102.593 49.2121 102.803 49.062 102.977 48.8748C102.984 48.8614 102.987 48.8459 102.984 48.8311C102.981 48.8163 102.973 48.8029 102.961 48.7932C102.949 48.7836 102.935 48.7781 102.92 48.7778C102.905 48.7776 102.89 48.7825 102.878 48.7917C102.687 48.993 102.452 49.1475 102.191 49.2432C101.931 49.3389 101.651 49.3732 101.375 49.3434C101.367 49.3425 101.358 49.3434 101.35 49.3459C101.342 49.3485 101.334 49.3527 101.328 49.3583C101.321 49.3639 101.316 49.3708 101.312 49.3785C101.308 49.3862 101.306 49.3947 101.306 49.4033C101.305 49.4116 101.305 49.42 101.308 49.428C101.31 49.436 101.314 49.4435 101.319 49.4499C101.325 49.4564 101.331 49.4618 101.338 49.4658C101.346 49.4698 101.354 49.4722 101.362 49.4731C101.447 49.4801 101.533 49.4823 101.618 49.4797Z" fill="#263238"/>
<path d="M103.925 45.7941C103.946 45.7877 103.965 45.7763 103.981 45.7609C104.005 45.7366 104.019 45.7037 104.019 45.6695C104.019 45.6352 104.005 45.6024 103.981 45.5781C103.841 45.4302 103.667 45.3192 103.474 45.2549C103.281 45.1905 103.075 45.1748 102.874 45.2091C102.858 45.2128 102.843 45.2197 102.829 45.2294C102.815 45.2391 102.804 45.2514 102.795 45.2656C102.786 45.2798 102.78 45.2956 102.777 45.3122C102.774 45.3287 102.774 45.3457 102.778 45.362C102.782 45.3784 102.789 45.3939 102.798 45.4076C102.808 45.4213 102.82 45.4329 102.835 45.4419C102.849 45.4508 102.865 45.4569 102.881 45.4597C102.898 45.4626 102.915 45.4621 102.931 45.4584C103.089 45.4352 103.25 45.4502 103.401 45.5023C103.552 45.5543 103.688 45.6419 103.798 45.7575C103.814 45.7743 103.834 45.7866 103.857 45.793C103.879 45.7995 103.902 45.7998 103.925 45.7941Z" fill="#263238"/>
<path d="M99.7469 45.8672C99.7674 45.8672 99.7876 45.8619 99.8056 45.8521C99.8236 45.8422 99.8388 45.828 99.8499 45.8107C99.9358 45.6685 100.053 45.5481 100.193 45.4587C100.334 45.3694 100.492 45.3135 100.658 45.2956C100.691 45.2938 100.723 45.279 100.746 45.2541C100.769 45.2293 100.781 45.1964 100.781 45.1626C100.781 45.1454 100.777 45.1285 100.77 45.1127C100.764 45.0969 100.754 45.0827 100.741 45.0709C100.729 45.059 100.714 45.0499 100.698 45.0439C100.682 45.038 100.665 45.0354 100.648 45.0363C100.441 45.0552 100.242 45.1222 100.066 45.2318C99.8898 45.3415 99.7419 45.4908 99.6339 45.6678C99.6246 45.6822 99.6184 45.6983 99.6154 45.7151C99.6124 45.7319 99.6128 45.7492 99.6165 45.7658C99.6202 45.7825 99.6271 45.7983 99.637 45.8123C99.6468 45.8263 99.6593 45.8382 99.6737 45.8473C99.684 45.8554 99.6957 45.8613 99.7083 45.8647C99.7208 45.8682 99.734 45.869 99.7469 45.8672Z" fill="#263238"/>
<path d="M102.439 71.5065L100.112 71.3735L101.11 73.9195C101.11 73.9195 103.403 74.0158 103.356 72.8293L102.439 71.5065Z" fill="#FFC3BD"/>
<path d="M97.7959 72.8459L98.896 74.5244L101.096 73.9195L100.112 71.3735L97.7959 72.8459Z" fill="#FFC3BD"/>
<path d="M116.249 82.7154H106.058C105.745 82.7262 105.444 82.8437 105.207 83.0487C104.969 83.2536 104.809 83.5335 104.752 83.8421L103.925 89.0736C103.896 89.2123 103.899 89.3558 103.934 89.4931C103.969 89.6305 104.034 89.7582 104.125 89.8666C104.216 89.9751 104.331 90.0614 104.46 90.1192C104.59 90.177 104.73 90.2047 104.872 90.2003H115.062C115.376 90.1895 115.676 90.0719 115.914 89.867C116.151 89.6621 116.312 89.3821 116.369 89.0736L117.196 83.8554C117.227 83.7157 117.226 83.5708 117.192 83.4318C117.158 83.2927 117.093 83.1632 117.002 83.0531C116.911 82.9431 116.795 82.8554 116.665 82.7969C116.534 82.7383 116.392 82.7105 116.249 82.7154Z" fill="#E50C00"/>
<path opacity="0.5" d="M116.249 82.7154H106.058C105.745 82.7262 105.444 82.8437 105.207 83.0487C104.969 83.2536 104.809 83.5335 104.752 83.8421L103.925 89.0736C103.896 89.2123 103.899 89.3558 103.934 89.4931C103.969 89.6305 104.034 89.7582 104.125 89.8666C104.216 89.9751 104.331 90.0614 104.46 90.1192C104.59 90.177 104.73 90.2047 104.872 90.2003H115.062C115.376 90.1895 115.676 90.0719 115.914 89.867C116.151 89.6621 116.312 89.3821 116.369 89.0736L117.196 83.8554C117.227 83.7157 117.226 83.5708 117.192 83.4318C117.158 83.2927 117.093 83.1632 117.002 83.0531C116.911 82.9431 116.795 82.8554 116.665 82.7969C116.534 82.7383 116.392 82.7105 116.249 82.7154Z" fill="black"/>
<path d="M88.1905 74.5802C88.1715 74.5978 88.1466 74.6075 88.1207 74.6075C88.0949 74.6075 88.0699 74.5978 88.0509 74.5802L75.0122 61.5382C74.9949 61.5197 74.9853 61.4954 74.9853 61.4701C74.9853 61.4447 74.9949 61.4204 75.0122 61.4019C75.0307 61.3846 75.055 61.375 75.0803 61.375C75.1056 61.375 75.13 61.3846 75.1485 61.4019L88.1905 74.4506C88.2054 74.469 88.2134 74.4918 88.2134 74.5154C88.2134 74.539 88.2054 74.5619 88.1905 74.5802Z" fill="#E50C00"/>
<path d="M74.158 62.1929L73.6195 61.6545C73.4052 61.439 73.2849 61.1475 73.2849 60.8435C73.2849 60.5396 73.4052 60.248 73.6195 60.0326C73.738 59.9123 73.8819 59.8201 74.0406 59.7626C74.1993 59.7051 74.3689 59.6838 74.5369 59.7002C74.2588 60.045 74.0772 60.4574 74.0106 60.8954C73.944 61.3333 73.9949 61.7811 74.158 62.1929Z" fill="#E50C00"/>
<path d="M74.2378 60.5849C74.4159 60.8862 74.7057 61.1051 75.0442 61.194C75.3826 61.283 75.7426 61.2349 76.0458 61.0602L74.7164 58.7769C74.4145 58.9544 74.195 59.244 74.1054 59.5825C74.0157 59.921 74.0633 60.2813 74.2378 60.5849Z" fill="#E50C00"/>
<path d="M76.4879 61.2748C76.7034 61.4899 76.8247 61.7818 76.825 62.0863C76.8253 62.3908 76.7046 62.6829 76.4895 62.8984C76.2745 63.114 75.9826 63.2352 75.6781 63.2355C75.3736 63.2358 75.0815 63.1152 74.8659 62.9001L74.158 62.1922C73.9962 61.7812 73.946 61.3347 74.0125 60.8981C74.0791 60.4614 74.26 60.0502 74.5369 59.7061C74.8051 59.7282 75.0565 59.8462 75.2448 60.0384L76.4879 61.2748Z" fill="#E50C00"/>
<path d="M74.2212 60.8241C74.5219 61.0028 74.74 61.2928 74.8284 61.6312C74.9167 61.9697 74.8681 62.3293 74.6931 62.6322L72.4098 61.3027C72.5874 61 72.8775 60.7798 73.2168 60.6901C73.5562 60.6004 73.9172 60.6486 74.2212 60.8241Z" fill="#E50C00"/>
<path d="M75.1119 60.6704C75.0697 60.4503 75.1157 60.2223 75.2401 60.0358C75.3644 59.8492 75.5572 59.7191 75.7766 59.6733L76.109 61.3352C75.8889 61.3765 75.6614 61.3301 75.4751 61.2059C75.2887 61.0817 75.1584 60.8895 75.1119 60.6704Z" fill="#E50C00"/>
<path d="M78.5253 64.9382C77.4385 64.0641 75.4443 64.4796 74.5569 65.809C76.4414 66.158 80.5494 66.5768 78.5253 64.9382Z" fill="#E50C00"/>
<path d="M85.166 71.5689C84.365 70.9208 82.8826 71.2166 82.2145 72.2337C83.6171 72.473 86.6683 72.7887 85.166 71.5689Z" fill="#E50C00"/>
<path d="M81.6296 67.9898C80.905 67.0957 81.2341 65.4372 82.3575 64.686C82.6433 66.2581 82.9923 69.6715 81.6296 67.9898Z" fill="#E50C00"/>
<path opacity="0.2" d="M74.158 62.1929L73.6195 61.6545C73.4052 61.439 73.2849 61.1475 73.2849 60.8435C73.2849 60.5396 73.4052 60.248 73.6195 60.0326C73.738 59.9123 73.8819 59.8201 74.0406 59.7626C74.1993 59.7051 74.3689 59.6838 74.5369 59.7002C74.2588 60.045 74.0772 60.4574 74.0106 60.8954C73.944 61.3333 73.9949 61.7811 74.158 62.1929Z" fill="black"/>
<path d="M89.2208 117.812V75.2222H87.1967V117.812H89.2208Z" fill="#E50C00"/>
<path opacity="0.3" d="M89.2208 78.1536V75.2222H87.1967V78.1536H89.2208Z" fill="black"/>
<path d="M117.08 73.9419H59.3411V76.5044H117.08V73.9419Z" fill="#E50C00"/>
<path opacity="0.3" d="M79.6387 73.9419H59.3411V76.5044H79.6387V73.9419Z" fill="black"/>
<path d="M52.0988 81.531C58.2177 81.8334 70.5186 86.6162 71.5821 88.7733C74.9723 95.6466 88.7123 113.624 86.2727 111.225L82.6632 114.146C84.6175 115.599 66.3108 99.7314 65.9053 92.5423C59.7931 92.1867 51.5172 92.0172 48.044 89.6706C45.6476 88.052 44.9264 84.6851 45.385 81.5875C45.3751 81.5842 45.9833 81.2252 52.0988 81.531Z" fill="#263238"/>
<path d="M52.7735 52.1821C52.6572 54.3159 52.8201 59.4576 51.0785 60.6575C51.0785 60.6575 50.7195 62.3492 54.4387 62.8511C58.5235 63.4061 56.9049 61.0098 56.9049 61.0098C55.479 60.2752 55.6917 57.3006 56.4761 55.7384L52.7735 52.1821Z" fill="#FF8B7B"/>
<path d="M59.2381 50.135C59.2123 50.135 59.1871 50.1281 59.1649 50.115C59.1283 50.0935 59.1016 50.0585 59.0904 50.0175C59.0792 49.9765 59.0845 49.9328 59.1051 49.8957C59.2259 49.6714 59.3983 49.479 59.6081 49.3346C59.8178 49.1901 60.059 49.0976 60.3116 49.0648C60.3557 49.0621 60.399 49.0771 60.432 49.1064C60.4651 49.1357 60.4851 49.1769 60.4878 49.221C60.4904 49.265 60.4754 49.3084 60.4461 49.3414C60.4168 49.3744 60.3756 49.3945 60.3315 49.3971C60.1321 49.4244 59.9421 49.499 59.7773 49.6146C59.6125 49.7302 59.4778 49.8836 59.3843 50.0619C59.3688 50.0861 59.347 50.1057 59.3213 50.1186C59.2955 50.1314 59.2668 50.1371 59.2381 50.135Z" fill="#263238"/>
<path d="M60.3747 51.9526C60.6631 52.5538 61.0321 53.1129 61.4715 53.6145C61.3407 53.725 61.187 53.8052 61.0215 53.8494C60.8561 53.8937 60.6829 53.9008 60.5143 53.8704L60.3747 51.9526Z" fill="#FF5652"/>
<path d="M60.0955 51.5182C60.1155 51.7908 60.275 52.0001 60.4545 51.9868C60.634 51.9736 60.7603 51.7442 60.7403 51.4717C60.7204 51.1991 60.5575 50.9897 60.3814 51.003C60.2052 51.0163 60.0756 51.2291 60.0955 51.5182Z" fill="#263238"/>
<path d="M60.305 51.0065L60.9431 50.7705C60.9431 50.7705 60.6473 51.3056 60.305 51.0065Z" fill="#263238"/>
<path d="M51.1815 63.1503C51.258 63.3364 51.371 63.5823 51.4707 63.815C51.5704 64.0476 51.6767 64.267 51.803 64.4797C52.0246 64.9229 52.2528 65.366 52.4877 65.8092C52.941 66.6787 53.4517 67.517 54.0166 68.3185C54.5396 69.0816 55.1448 69.7849 55.8214 70.4158C55.9842 70.562 56.1537 70.695 56.3133 70.8213C56.3963 70.8778 56.4794 70.9476 56.5625 70.9941L56.6888 71.0739L56.752 71.1171C56.6982 71.107 56.6438 71.1003 56.5891 71.0971C56.4653 71.0918 56.342 71.1169 56.2302 71.1703C56.1271 71.2268 56.0906 71.2633 56.0806 71.2833C56.0706 71.3032 56.0972 71.2833 56.1271 71.2334C56.3185 70.9149 56.4587 70.5684 56.5426 70.2064C56.6656 69.7677 56.7586 69.2891 56.845 68.8038C57.0112 67.8233 57.1143 66.8096 57.204 65.7726C57.3669 63.7153 57.4566 61.6081 57.5064 59.5241L59.2181 59.4111C59.5143 61.5463 59.6841 63.6972 59.7267 65.8524C59.7505 66.9534 59.7183 68.055 59.6303 69.1528C59.5828 69.7307 59.5029 70.3055 59.391 70.8744C59.3293 71.184 59.2516 71.4902 59.1583 71.7918C59.0487 72.1465 58.9016 72.4885 58.7196 72.8121C58.5993 73.0219 58.4567 73.2181 58.2942 73.3971C58.0696 73.6369 57.8025 73.833 57.5064 73.9754C57.1517 74.1379 56.7626 74.2109 56.3731 74.1881C56.0545 74.1654 55.7427 74.0855 55.4524 73.9522L55.2796 73.8724L55.1699 73.8159L54.9506 73.6962C54.8043 73.6198 54.6714 73.5301 54.5318 73.447C54.2641 73.278 54.0056 73.0949 53.7574 72.8986C52.8263 72.1507 51.9943 71.2873 51.2812 70.3294C50.5985 69.421 49.9767 68.4683 49.42 67.4777C49.1508 66.9858 48.8982 66.4806 48.6555 65.9853C48.5326 65.7327 48.4162 65.4768 48.2999 65.2209C48.1836 64.965 48.0872 64.7157 47.9675 64.4132L51.1815 63.1503Z" fill="#FF8B7B"/>
<path d="M50.5766 60.659C52.2151 61.2307 54.0631 66.5884 54.0631 66.5884L48.3132 69.018C48.3132 69.018 45.7872 64.5244 46.5117 62.7961C47.2662 60.998 48.5924 59.9677 50.5766 60.659Z" fill="#E50C00"/>
<path d="M58.5201 60.3061L60.6639 59.0796L59.4673 57.3081C59.4673 57.3081 56.5791 58.508 57.5828 59.9438L58.5201 60.3061Z" fill="#FF8B7B"/>
<path d="M61.199 57.3078L60.1787 55.7988L59.4674 57.3078L60.6639 59.0793L61.199 57.3078Z" fill="#FF8B7B"/>
<path opacity="0.2" d="M60.1786 55.7988L59.4674 57.3078C59.4674 57.3078 57.8488 57.9725 57.4566 58.9197L59.9194 57.9758L60.6639 56.5167L60.1786 55.7988Z" fill="black"/>
<path d="M63.4159 65.3838C63.1733 68.2488 61.1226 73.889 58.7628 81.5301H44.9895C45.1923 76.5945 46.5051 73.088 46.0897 64.3368C45.9833 62.1632 47.3294 60.2122 49.5064 60.0925C50.088 60.0593 50.6963 60.0393 51.3045 60.0427C53.3898 59.9972 55.4757 60.1005 57.5463 60.3518C58.344 60.4648 59.1683 60.611 59.936 60.7639C60.9828 60.9711 61.9164 61.5568 62.5584 62.4091C63.2004 63.2615 63.5057 64.3205 63.4159 65.3838Z" fill="#E50C00"/>
<path opacity="0.2" d="M60.9863 66.6011C60.6373 67.9904 61.1159 70.2571 61.9069 71.5866C62.2393 70.5296 62.5185 69.5691 62.7478 68.7016C62.2666 67.919 61.6731 67.2113 60.9863 66.6011Z" fill="black"/>
<path d="M62.565 63.061C63.8479 64.3074 65.1974 65.5671 66.5534 66.7736C67.2181 67.3751 67.9194 67.9634 68.6074 68.5251C69.2954 69.0868 70.0001 69.6352 70.7047 70.1205C70.8775 70.2401 71.057 70.3698 71.2298 70.4529L71.725 70.7586C71.9402 70.8817 72.1794 70.9565 72.4263 70.978C73.1444 71.0101 73.861 70.8865 74.5269 70.6157C75.3242 70.317 76.0947 69.9512 76.8302 69.5222C77.2091 69.2996 77.5913 69.0735 77.9635 68.8309C78.3358 68.5883 78.7147 68.329 79.057 68.0897L80.2436 69.3295C79.9112 69.725 79.5788 70.0607 79.2265 70.403C78.8742 70.7453 78.5153 71.0677 78.1331 71.4001C77.3575 72.0517 76.514 72.6178 75.617 73.0885C74.6099 73.6408 73.4878 73.9504 72.3399 73.9926C71.6525 74.0015 70.9715 73.8585 70.3457 73.5738L70.2227 73.5173L70.1396 73.4741L69.9668 73.3843L69.6344 73.2015C69.4018 73.0819 69.1924 72.9489 68.9697 72.8193C67.3256 71.7927 65.7643 70.6392 64.3 69.3693C62.8409 68.1396 61.4616 66.8733 60.1155 65.4973L62.565 63.061Z" fill="#FF8B7B"/>
<path d="M59.5505 60.7246C61.2622 60.4487 65.7059 64.9423 65.7059 64.9423L63.2298 70.5693C63.2298 70.5693 57.1641 66.4014 56.9912 64.5368C56.7985 62.5958 57.4765 61.057 59.5505 60.7246Z" fill="#E50C00"/>
<path d="M79.4692 69.9641L82.271 69.6949L81.1676 66.9961C81.1676 66.9961 79.1002 67.5977 78.369 68.8008L79.4692 69.9641Z" fill="#FF8B7B"/>
<path d="M84.2586 69.2662L83.3512 67.3052L81.1676 66.9961L82.2677 69.6949L84.2586 69.2662Z" fill="#FF8B7B"/>
<path d="M50.8491 51.2414C51.3011 54.5651 51.4208 55.9942 53.2388 57.5863C55.9709 59.9826 59.9659 58.6997 60.5177 55.2996C61.0162 52.2385 60.1853 47.3028 56.8184 46.2127C56.0754 45.9685 55.2823 45.9184 54.5144 46.067C53.7465 46.2157 53.0295 46.5583 52.4313 47.0622C51.8331 47.5661 51.3738 48.2146 51.0968 48.9461C50.8199 49.6776 50.7346 50.4677 50.8491 51.2414Z" fill="#FF8B7B"/>
<path d="M56.9613 47.2534C58.0449 47.7054 59.3378 50.1317 59.0852 51.7935C58.8326 53.4553 57.2439 56.4466 59.2846 57.6963C59.2846 57.6963 55.6053 59.7504 49.0976 57.929C47.0402 57.354 46.987 56.0179 46.987 56.0179C46.987 56.0179 49.4798 54.941 48.6721 53.1861C47.8645 51.4312 47.3692 47.7253 49.5695 47.2534C49.9019 45.2592 55.3228 44.5579 57.7524 46.3992C60.182 48.2405 56.9613 47.2534 56.9613 47.2534Z" fill="#263238"/>
<path d="M55.0835 47.5467C56.6423 49.1919 60.8401 48.7432 60.3049 47.3107C59.7698 45.8782 57.8621 45.4927 57.8621 45.4927C57.8621 45.4927 58.5567 46.3435 56.2567 45.6655C53.9567 44.9875 54.1728 46.5695 55.0835 47.5467Z" fill="#263238"/>
<path d="M59.2513 52.0087C59.5242 52.5908 59.5899 53.2487 59.4375 53.8733C59.2247 54.6976 58.4902 54.6378 58.0216 54.0196C57.5995 53.4612 57.2006 52.3577 57.6626 51.7229C58.1246 51.0881 58.9123 51.3074 59.2513 52.0087Z" fill="#FF8B7B"/>
<path d="M61.0694 81.5311C67.1849 81.8335 77.1958 83.1697 76.5709 87.8028C75.1418 98.4219 70.5352 113.561 70.5352 113.561H65.9153C65.9153 113.561 66.4338 95.6134 68.531 92.1834C62.4919 92.5158 54.9571 91.9574 51.4141 89.7106C48.4228 87.8095 47.3094 84.6753 47.7581 81.5843C47.7581 81.5843 54.9505 81.2253 61.0694 81.5311Z" fill="#E50C00"/>
<path d="M44.7834 80.7231L44.1619 81.9529C44.1154 82.0493 44.2284 82.1456 44.3879 82.1456H58.8259C58.9489 82.1456 59.0519 82.0858 59.0619 82.0094L59.1849 80.7763C59.1849 80.6899 59.0851 80.6201 58.9489 80.6201H45.0094C44.9661 80.6163 44.9225 80.6238 44.8829 80.6419C44.8433 80.6599 44.809 80.6879 44.7834 80.7231Z" fill="#263238"/>
<path d="M46.6546 82.2808H46.2824C46.2093 82.2808 46.1528 82.2409 46.1561 82.1944L46.3323 80.5924C46.3323 80.5458 46.402 80.5093 46.4752 80.5093H46.8607C46.9338 80.5093 46.9903 80.5458 46.9837 80.5924L46.8109 82.1944C46.7942 82.2409 46.7311 82.2808 46.6546 82.2808Z" fill="#E50C00"/>
<path d="M55.7017 82.2808H55.3294C55.2563 82.2808 55.1965 82.2409 55.2031 82.1944L55.3793 80.5924C55.3793 80.5458 55.4491 80.5093 55.5222 80.5093H55.8944C55.9709 80.5093 56.0274 80.5458 56.0207 80.5924L55.8346 82.1944C55.8346 82.2409 55.7781 82.2808 55.7017 82.2808Z" fill="#E50C00"/>
<path d="M67.9627 91.3252C67.9627 91.302 67.9627 91.2787 67.9627 91.2554L68.8301 85.7913C68.8578 85.6457 68.8527 85.4958 68.8152 85.3524C68.7776 85.209 68.7086 85.0758 68.6131 84.9625C68.5176 84.8492 68.398 84.7586 68.2631 84.6973C68.1281 84.6359 67.9812 84.6055 67.833 84.6081H58.3938L56.1337 69.6716C56.0676 69.296 55.8743 68.9545 55.5862 68.7046C55.2981 68.4547 54.9329 68.3114 54.5517 68.2989H39.439C39.2662 68.2936 39.0944 68.3273 38.9364 68.3976C38.7784 68.4679 38.6383 68.5729 38.5265 68.7048C38.4147 68.8368 38.3341 68.9922 38.2907 69.1596C38.2473 69.3269 38.2421 69.5019 38.2757 69.6716L41.3933 90.255C41.4595 90.6306 41.6528 90.972 41.9409 91.222C42.2289 91.4719 42.5942 91.6151 42.9754 91.6277H43.2612L43.547 92.5816C43.6404 92.8907 43.8307 93.1616 44.0899 93.3543C44.349 93.547 44.6632 93.6513 44.9862 93.6518H69.0163C69.0168 93.2113 68.923 92.7757 68.7413 92.3745C68.5596 91.9732 68.2941 91.6154 67.9627 91.3252Z" fill="#E50C00"/>
<path opacity="0.3" d="M67.9627 91.3252C67.9627 91.302 67.9627 91.2787 67.9627 91.2554L68.8301 85.7913C68.8578 85.6457 68.8527 85.4958 68.8152 85.3524C68.7776 85.209 68.7086 85.0758 68.6131 84.9625C68.5176 84.8492 68.398 84.7586 68.2631 84.6973C68.1281 84.6359 67.9812 84.6055 67.833 84.6081H58.3938L56.1337 69.6716C56.0676 69.296 55.8743 68.9545 55.5862 68.7046C55.2981 68.4547 54.9329 68.3114 54.5517 68.2989H39.439C39.2662 68.2936 39.0944 68.3273 38.9364 68.3976C38.7784 68.4679 38.6383 68.5729 38.5265 68.7048C38.4147 68.8368 38.3341 68.9922 38.2907 69.1596C38.2473 69.3269 38.2421 69.5019 38.2757 69.6716L41.3933 90.255C41.4595 90.6306 41.6528 90.972 41.9409 91.222C42.2289 91.4719 42.5942 91.6151 42.9754 91.6277H43.2612L43.547 92.5816C43.6404 92.8907 43.8307 93.1616 44.0899 93.3543C44.349 93.547 44.6632 93.6513 44.9862 93.6518H69.0163C69.0168 93.2113 68.923 92.7757 68.7413 92.3745C68.5596 91.9732 68.2941 91.6154 67.9627 91.3252Z" fill="black"/>
<path d="M52.1919 121.604H51.1383L52.5841 93.6484H53.6377L52.1919 121.604Z" fill="#E50C00"/>
<path opacity="0.5" d="M52.1919 121.604H51.1383L52.5841 93.6484H53.6377L52.1919 121.604Z" fill="white"/>
<path d="M67.8962 121.604H68.9532L67.5074 93.6484H66.4538L67.8962 121.604Z" fill="#E50C00"/>
<path opacity="0.5" d="M67.8962 121.604H68.9532L67.5074 93.6484H66.4538L67.8962 121.604Z" fill="white"/>
<path d="M45.5878 121.604H44.5309L45.9766 93.6484H47.0302L45.5878 121.604Z" fill="#E50C00"/>
<path opacity="0.5" d="M45.5878 121.604H44.5309L45.9766 93.6484H47.0302L45.5878 121.604Z" fill="white"/>
<path d="M61.2921 121.604H62.3457L60.9032 93.6484H59.8463L61.2921 121.604Z" fill="#E50C00"/>
<path opacity="0.5" d="M61.2921 121.604H62.3457L60.9032 93.6484H59.8463L61.2921 121.604Z" fill="white"/>
</svg>
