<svg width="118" height="67" viewBox="0 0 118 67" fill="none" xmlns="http://www.w3.org/2000/svg">
<path d="M116.832 14.2307C116.832 14.2307 115.422 13.3708 113.865 16.7226C112.307 20.0744 111.738 21.9981 111.738 21.9981C111.738 21.9981 111.319 22.7029 110.83 22.2696C110.341 21.8363 109.65 20.5836 108.847 20.8398C108.021 21.1079 107.78 22.0504 107.989 23.4144C108.198 24.7783 108.544 27.7828 108.576 28.0542C108.608 28.3257 108.466 28.7286 108.085 28.4791C107.704 28.2296 105.478 25.9316 104.447 27.0528C103.415 28.1739 104.615 31.8781 104.747 32.2794C104.878 32.6806 104.796 32.8644 104.603 32.974C104.411 33.0836 103.737 32.2372 103.086 31.6066C102.435 30.9761 101.55 30.3624 101.01 31.0587C100.471 31.755 100.39 34.5706 103.228 39.0352L104.678 41.0179L107.134 40.792C112.361 39.9895 114.428 38.0775 114.596 37.2126C114.765 36.3477 113.726 36.0914 112.819 36.0105C111.912 35.9296 110.83 35.9751 110.786 35.7593C110.742 35.5435 110.826 35.3698 111.216 35.1961C111.605 35.0225 115.185 33.4916 115.352 31.9759C115.519 30.4602 112.317 30.3051 111.883 30.1769C111.45 30.0488 111.659 29.6812 111.883 29.5278C112.108 29.3744 114.6 27.6563 115.761 26.9162C116.923 26.176 117.459 25.3786 117.122 24.5794C116.785 23.8089 115.39 24.1124 114.741 24.0281C114.092 23.9438 114.348 23.1648 114.348 23.1648C114.348 23.1648 115.422 21.4788 116.92 18.095C118.417 14.7112 116.8 14.2172 116.8 14.2172" fill="#F5F5F5"/>
<path d="M115.436 17.2305C115.436 17.2305 115.427 17.2558 115.407 17.303C115.387 17.3502 115.357 17.4244 115.32 17.5137L114.972 18.3146C114.669 19.0109 114.224 20.0157 113.669 21.255C112.56 23.7334 110.998 27.1425 109.262 30.9023C107.525 34.662 105.95 38.0711 104.828 40.5445L103.501 43.4731L103.14 44.2689C103.098 44.3566 103.066 44.4257 103.044 44.4746C103.033 44.4982 103.021 44.5213 103.008 44.5437C103.016 44.519 103.025 44.4948 103.035 44.4712C103.057 44.4206 103.086 44.3515 103.123 44.2621C103.204 44.075 103.322 43.8052 103.47 43.4596C103.774 42.7633 104.219 41.7601 104.774 40.5209C105.883 38.0425 107.444 34.6334 109.181 30.8719C110.917 27.1104 112.487 23.7047 113.61 21.233C114.17 20.0006 114.622 19.0008 114.937 18.3061L115.299 17.5103C115.34 17.421 115.372 17.3535 115.395 17.303C115.419 17.2524 115.436 17.2305 115.436 17.2305Z" fill="#E0E0E0"/>
<path d="M109.749 22.6338C109.779 22.6867 109.803 22.7434 109.818 22.8024C109.859 22.9086 109.911 23.0654 109.975 23.2593C110.1 23.6488 110.26 24.1883 110.425 24.7885L110.842 26.3261C110.892 26.5099 110.934 26.6633 110.97 26.7915C110.99 26.8457 111.003 26.9024 111.008 26.9601C110.978 26.9071 110.955 26.8504 110.939 26.7915C110.899 26.6853 110.847 26.5285 110.784 26.3329C110.663 25.9434 110.509 25.4005 110.344 24.8003L109.918 23.266L109.788 22.8024C109.769 22.7478 109.755 22.6913 109.749 22.6338Z" fill="#E0E0E0"/>
<path d="M111.236 26.9956C111.236 26.9737 112.329 26.5943 113.693 26.1526C115.057 25.7109 116.169 25.3619 116.176 25.3838C116.183 25.4057 115.084 25.7851 113.72 26.2268C112.356 26.6685 111.243 27.0175 111.236 26.9956Z" fill="#E0E0E0"/>
<path d="M108.307 32.6506C108.368 32.6394 108.429 32.6343 108.49 32.6355L108.982 32.6186C109.397 32.6034 109.972 32.5815 110.604 32.5326C111.236 32.4837 111.808 32.4264 112.222 32.3792L112.711 32.3235C112.771 32.3124 112.833 32.309 112.893 32.3134C112.839 32.3333 112.782 32.3474 112.725 32.3556C112.61 32.3775 112.443 32.4062 112.238 32.4365C111.826 32.4989 111.253 32.5697 110.619 32.6169C109.985 32.6641 109.408 32.6776 108.99 32.6759C108.783 32.6759 108.614 32.6759 108.498 32.6675C108.434 32.6706 108.37 32.6649 108.307 32.6506Z" fill="#E0E0E0"/>
<path d="M106.095 29.002C106.134 29.042 106.168 29.0868 106.197 29.1351C106.257 29.2228 106.345 29.3526 106.45 29.5145C106.66 29.8365 106.945 30.285 107.255 30.7824C107.566 31.2797 107.844 31.7333 108.041 32.0637C108.141 32.2323 108.218 32.3638 108.27 32.4583C108.302 32.5047 108.328 32.5551 108.346 32.6083C108.306 32.5691 108.271 32.5243 108.243 32.4751C108.183 32.3858 108.097 32.2576 107.991 32.0958C107.781 31.7737 107.497 31.3253 107.185 30.8262C106.873 30.3272 106.596 29.8753 106.399 29.5448C106.301 29.3762 106.23 29.2447 106.17 29.152C106.139 29.1052 106.114 29.0548 106.095 29.002Z" fill="#E0E0E0"/>
<path d="M102.875 33.665C102.924 33.7165 102.968 33.773 103.005 33.8336L103.33 34.3192C103.6 34.7306 103.971 35.3021 104.376 35.9361C104.78 36.57 105.143 37.1483 105.401 37.5681L105.704 38.0739C105.744 38.1338 105.777 38.197 105.805 38.2628C105.756 38.2112 105.713 38.1547 105.676 38.0942L105.352 37.6086C105.08 37.1955 104.71 36.624 104.305 35.99C103.9 35.3561 103.539 34.7778 103.28 34.358C103.158 34.159 103.057 33.9904 102.978 33.8522C102.937 33.7936 102.903 33.7309 102.875 33.665Z" fill="#E0E0E0"/>
<path d="M105.767 38.1312C105.841 38.1142 105.918 38.1051 105.994 38.1042L106.618 38.0604C107.144 38.0233 107.872 37.9694 108.673 37.8918C109.474 37.8142 110.191 37.7232 110.722 37.6507L111.341 37.5681C111.416 37.5545 111.493 37.5477 111.57 37.5479C111.497 37.5728 111.422 37.5903 111.346 37.6001C111.201 37.6288 110.99 37.6659 110.73 37.708C110.208 37.794 109.484 37.8952 108.682 37.9761C107.879 38.057 107.149 38.1025 106.621 38.1245C106.357 38.1346 106.144 38.1413 105.996 38.1413C105.919 38.1445 105.843 38.1411 105.767 38.1312Z" fill="#E0E0E0"/>
<path d="M16.4322 30.8379C20.3656 28.2128 21.3216 23.2509 21.2423 18.7678C21.2272 18.0192 21.3233 17.2336 20.9726 16.576C20.6219 15.9185 19.7924 15.4531 19.1062 15.7583C18.5414 16.0112 18.2851 16.6536 17.9631 17.183C17.5288 17.8903 16.9042 18.4611 16.1607 18.8302C15.6752 19.0696 15.0766 19.2112 14.6046 18.9449C13.9571 18.5807 13.8931 17.6888 13.9099 16.9453L14.001 12.7909C14.0161 12.0474 14.0313 11.2887 13.8071 10.5789C13.5828 9.86911 13.077 9.20819 12.3639 8.99913C11.6507 8.79006 10.7588 9.18459 10.5952 9.90957C10.5278 10.2114 10.5851 10.5266 10.5598 10.8352C10.5345 11.1437 10.3912 11.4826 10.0844 11.5635C9.77753 11.6445 9.48586 11.4303 9.2633 11.2112C8.49786 10.4474 7.98531 9.47458 7.50818 8.51356C7.03104 7.55254 6.5657 6.55274 5.87444 5.72491C5.18318 4.89709 4.21541 4.2328 3.13806 4.15524C2.0607 4.07769 0.90242 4.72005 0.609055 5.76032C0.315691 6.80058 0.922652 7.87625 1.58356 8.73443C2.5677 10.0057 3.73008 11.1283 5.03481 12.0677C5.27085 12.2363 5.52375 12.42 5.61142 12.6965C5.76654 13.2023 5.28434 13.6795 4.78528 13.8363C4.22047 14.0049 3.60508 13.9459 3.0251 14.0049C2.44511 14.0639 1.796 14.31 1.56502 14.8479C1.24636 15.6032 1.87693 16.4091 2.50244 16.9402C3.75556 18.004 5.18102 18.8461 6.71744 19.4304C7.26876 19.6395 7.84875 19.8233 8.28879 20.2144C8.72884 20.6056 8.99017 21.2766 8.71198 21.7959C8.43379 22.3152 7.73747 22.4703 7.15917 22.359C6.58087 22.2477 6.06664 21.9257 5.51701 21.7116C4.48686 21.3103 3.1566 21.3609 2.47377 22.2342C2.02867 22.8075 1.97809 23.6151 2.18715 24.3097C2.39622 25.0043 2.83458 25.6063 3.29991 26.1643C4.92859 28.11 7.02935 29.6881 9.41673 30.5479C11.8041 31.4078 14.0246 31.6607 16.4238 30.8345" fill="#EBEBEB"/>
<path d="M16.1304 30.9236C15.4981 28.6559 13.77 23.3197 12.7331 20.8076L11.9626 18.953C11.708 18.3443 11.4568 17.7424 11.1719 17.1675C10.6244 16.067 10.0165 14.9975 9.35098 13.9641C8.72041 12.9693 8.08647 12.0488 7.49637 11.1906C6.90627 10.3324 6.31617 9.54845 5.76316 8.85213C4.89109 7.74876 3.93267 6.71649 2.89696 5.76506C2.5311 5.42786 2.23942 5.17496 2.03878 5.00636L1.79937 4.80066C1.74711 4.75851 1.71844 4.73828 1.71844 4.73828C1.71844 4.73828 1.74205 4.76357 1.79094 4.80909L2.0135 5.00804C2.20739 5.17664 2.49569 5.43966 2.8565 5.78192C3.87665 6.74456 4.82345 7.7821 5.68898 8.88585C6.23862 9.58385 6.80848 10.3729 7.40702 11.2294C8.00555 12.0859 8.63274 13.0098 9.26162 14.0029C9.92293 15.0367 10.5269 16.1061 11.0707 17.2063C11.3523 17.7795 11.6035 18.3865 11.8581 18.9884C12.1126 19.5903 12.3639 20.2175 12.6286 20.843C13.6587 23.3517 15.3919 28.6829 16.0292 30.9438" fill="#E0E0E0"/>
<path d="M11.1365 17.1563C11.1714 17.0533 11.1962 16.9472 11.2107 16.8394C11.2511 16.6337 11.3017 16.3336 11.359 15.966C11.4754 15.2276 11.6018 14.2025 11.7384 13.0712C11.8749 11.9399 12.0183 10.9198 12.1498 10.1847C12.2138 9.81718 12.2695 9.52044 12.3184 9.31643C12.3447 9.21131 12.3622 9.10415 12.3706 8.99609C12.3294 9.09626 12.2977 9.20014 12.2762 9.30632C12.2206 9.50864 12.1531 9.81212 12.079 10.1712C11.9154 10.903 11.7637 11.9264 11.6271 13.0627C11.4905 14.1991 11.3725 15.1989 11.2815 15.961C11.2359 16.315 11.1972 16.6101 11.1668 16.8377C11.1477 16.9429 11.1376 17.0495 11.1365 17.1563Z" fill="#E0E0E0"/>
<path d="M1.48242 15.2253C1.51462 15.2356 1.54811 15.2413 1.5819 15.2422L1.86852 15.2709C2.11804 15.2961 2.47716 15.3299 2.9189 15.3855C3.80405 15.49 5.02303 15.6806 6.35834 15.9486C7.69365 16.2167 8.88734 16.5185 9.7472 16.7596C10.1771 16.8776 10.5228 16.9821 10.7588 17.053L11.0353 17.1339C11.0666 17.146 11.0996 17.1534 11.1331 17.1558C11.105 17.1373 11.0743 17.1231 11.0421 17.1137C10.9679 17.085 10.8735 17.0513 10.7723 17.0125C10.5379 16.9282 10.194 16.8102 9.76069 16.6753C8.90589 16.414 7.70883 16.1021 6.37183 15.8323C5.03483 15.5625 3.82259 15.3922 2.92733 15.3063C2.48391 15.2607 2.12142 15.2388 1.87189 15.2287H1.58358C1.55013 15.2234 1.51615 15.2222 1.48242 15.2253Z" fill="#E0E0E0"/>
<path d="M15.1896 27.8368C15.2153 27.8003 15.2373 27.7614 15.2553 27.7205L15.4239 27.3833C15.5689 27.0832 15.7611 26.6448 16.0107 26.1003C16.4929 25.0128 17.1116 23.4886 17.7742 21.7993C18.4368 20.1099 19.0421 18.5756 19.5024 17.4797L20.0554 16.1849C20.1161 16.0399 20.1667 15.9235 20.2054 15.8325C20.2245 15.7919 20.2398 15.7495 20.251 15.7061C20.2237 15.7416 20.2016 15.7807 20.1852 15.8224L20.0166 16.1596C19.8716 16.4597 19.671 16.8981 19.4316 17.441C18.9494 18.5301 18.3289 20.0543 17.668 21.7436C17.0071 23.433 16.3984 24.9605 15.9348 26.0564L15.3818 27.3513L15.2334 27.7036C15.2134 27.7461 15.1987 27.7908 15.1896 27.8368Z" fill="#E0E0E0"/>
<path d="M2.38782 23.5527C2.42815 23.5738 2.47052 23.5908 2.51427 23.6033L2.88687 23.7298L4.25928 24.19C5.41756 24.5778 7.01083 25.1325 8.76933 25.7496C10.5278 26.3667 12.1278 26.9096 13.2929 27.2788C13.8745 27.4626 14.3483 27.6076 14.6754 27.702L15.0548 27.8082C15.0985 27.823 15.1437 27.8332 15.1896 27.8386C15.1487 27.8171 15.1058 27.7996 15.0615 27.7863L14.6889 27.6598L13.3165 27.2029C12.1582 26.8151 10.5649 26.2605 8.80643 25.6434C7.04793 25.0263 5.4496 24.4817 4.28457 24.1142C3.70121 23.9304 3.22913 23.7854 2.90036 23.691L2.5227 23.5831C2.47884 23.5686 2.43366 23.5584 2.38782 23.5527Z" fill="#E0E0E0"/>
<path d="M81.1696 4.86344H102.425L98.2673 7.81901V10.2873C98.258 11.5069 97.7646 12.6728 96.8958 13.5287C96.0269 14.3845 94.8537 14.8603 93.6342 14.8513H80.2962C79.0767 14.8603 77.9035 14.3845 77.0346 13.5287C76.1658 12.6728 75.6724 11.5069 75.6631 10.2873C75.6684 9.56958 75.815 8.85992 76.0946 8.19887C76.3743 7.53782 76.7814 6.93833 77.2927 6.43465C77.8041 5.93097 78.4096 5.53297 79.0748 5.26338C79.74 4.99379 80.4518 4.85789 81.1696 4.86344Z" fill="#F5F5F5"/>
<path d="M94.6812 8.16298C94.6812 8.18658 91.1406 8.20681 86.757 8.20681C82.3734 8.20681 78.8328 8.18658 78.8328 8.16298C78.8328 8.13937 82.3734 8.11914 86.757 8.11914C91.1406 8.11914 94.6812 8.13769 94.6812 8.16298Z" fill="#E0E0E0"/>
<path d="M94.6812 9.80507C94.6812 9.82867 91.1406 9.8489 86.757 9.8489C82.3734 9.8489 78.8328 9.82867 78.8328 9.80507C78.8328 9.78146 82.3734 9.76123 86.757 9.76123C91.1406 9.76123 94.6812 9.77978 94.6812 9.80507Z" fill="#E0E0E0"/>
<path d="M48.9214 55.4521H23.7697L27.8666 58.4161V64.2328C27.8666 64.3924 27.8981 64.5504 27.9592 64.6978C28.0203 64.8452 28.1099 64.9791 28.2228 65.0918C28.3357 65.2046 28.4697 65.2939 28.6172 65.3548C28.7647 65.4158 28.9227 65.447 29.0822 65.4468H48.9214C49.081 65.447 49.239 65.4158 49.3865 65.3548C49.534 65.2939 49.668 65.2046 49.7809 65.0918C49.8938 64.9791 49.9834 64.8452 50.0445 64.6978C50.1056 64.5504 50.137 64.3924 50.137 64.2328V56.6661C50.1366 56.344 50.0083 56.0352 49.7804 55.8076C49.5525 55.58 49.2435 55.4521 48.9214 55.4521Z" fill="#F5F5F5"/>
<path d="M47.8727 59.5624C47.8727 59.5877 44.0792 59.6062 39.4006 59.6062C34.7219 59.6062 30.9284 59.5877 30.9284 59.5624C30.9284 59.5371 34.7202 59.5186 39.4006 59.5186C44.0809 59.5186 47.8727 59.5388 47.8727 59.5624Z" fill="#E0E0E0"/>
<path d="M47.8727 61.7963C47.8727 61.8199 44.0792 61.8401 39.4006 61.8401C34.7219 61.8401 30.9284 61.8199 30.9284 61.7963C30.9284 61.7727 34.7202 61.7524 39.4006 61.7524C44.0809 61.7524 47.8727 61.7727 47.8727 61.7963Z" fill="#E0E0E0"/>
<path d="M100.275 26.7866H70.8394C67.2275 26.7866 64.2994 29.7147 64.2994 33.3266V57.2847C64.2994 60.8967 67.2275 63.8247 70.8394 63.8247H100.275C103.887 63.8247 106.815 60.8967 106.815 57.2847V33.3266C106.815 29.7147 103.887 26.7866 100.275 26.7866Z" fill="#4ECDC4"/>
<g opacity="0.4">
<path d="M100.275 26.7871H70.8395C67.2276 26.7871 64.2995 29.7152 64.2995 33.3271V57.2852C64.2995 60.8972 67.2276 63.8252 70.8395 63.8252H100.275C103.887 63.8252 106.815 60.8972 106.815 57.2852V33.3271C106.815 29.7152 103.887 26.7871 100.275 26.7871Z" fill="black"/>
</g>
<path d="M106.804 39.6982H113.172L106.66 46.2113L106.804 39.6982Z" fill="#4ECDC4"/>
<g opacity="0.4">
<path d="M106.804 39.6978H113.172L106.66 46.2108L106.804 39.6978Z" fill="black"/>
</g>
<path d="M63.2811 43.7024L60.6121 40.6676C59.8905 39.946 59.6427 39.5986 59.7877 39.4722C59.9799 39.3036 59.8973 39.3592 61.3961 40.4838C61.3961 40.4838 59.2718 38.8602 60.0086 38.8501C60.1384 38.8501 60.4992 39.0591 60.8853 39.312C60.3592 38.8652 60.2109 38.5634 60.3137 38.4201C60.4823 38.1706 61.7839 39.0726 62.3824 39.5059C61.8935 39.1417 60.9611 38.4353 60.7976 38.2128C60.5717 37.9093 61.0286 37.9346 61.3995 38.061C61.816 38.2026 64.1173 39.3778 64.7985 39.6813C64.8531 39.7138 64.9141 39.7342 64.9774 39.7409C65.0406 39.7477 65.1045 39.7406 65.1648 39.7203C65.2251 39.6999 65.2802 39.6668 65.3264 39.6231C65.3726 39.5794 65.4088 39.5262 65.4324 39.4671C65.6836 38.4117 66.444 37.7255 66.734 37.6361C67.024 37.5468 67.2482 37.9177 67.0409 38.1875C66.8458 38.5013 66.6949 38.8406 66.5924 39.1957C66.4985 39.4742 66.4523 39.7667 66.4558 40.0606C66.4558 40.3978 66.4794 40.6895 66.5014 40.934L68.941 44.2807L64.8609 46.6411L63.2811 43.7024Z" fill="#B78876"/>
<path d="M62.3268 40.9555C62.2998 40.9926 61.821 40.6672 61.268 40.2272C60.715 39.7871 60.2834 39.3994 60.3154 39.364C60.3474 39.3285 60.8212 39.6556 61.3742 40.0923C61.9272 40.529 62.3504 40.9168 62.3268 40.9555Z" fill="#AA6550"/>
<path d="M62.8427 40.423C62.8157 40.4618 62.2914 40.1415 61.6709 39.7098C61.0505 39.2782 60.5683 38.8955 60.5953 38.8584C60.6222 38.8213 61.1466 39.1383 61.767 39.5699C62.3875 40.0015 62.8697 40.3843 62.8427 40.423Z" fill="#AA6550"/>
<path d="M63.2204 39.8565C63.1934 39.8952 62.691 39.6019 62.0992 39.2006C61.5074 38.7993 61.0488 38.4436 61.0741 38.4031C61.0994 38.3627 61.6018 38.6577 62.1953 39.059C62.7888 39.4603 63.2457 39.8177 63.2204 39.8565Z" fill="#AA6550"/>
<path d="M66.7289 41.3877L76.4538 53.7191L74.2266 58.9036C74.2266 58.9036 71.5593 58.3135 70.7501 57.1906C69.9408 56.0677 63.2811 43.7026 63.2811 43.7026L66.7289 41.3877Z" fill="#B78876"/>
<path d="M91.4154 24.1362C92.1151 24.7432 92.1134 25.8121 92.0325 26.7344C91.9515 27.6566 91.8892 28.707 92.5282 29.378C93.0559 29.931 94.0118 30.1721 94.1332 30.9258C94.162 31.1028 94.1352 31.2845 94.0565 31.4457C93.9778 31.6069 93.8512 31.7398 93.6939 31.8261C93.5366 31.9124 93.3565 31.9479 93.1782 31.9277C93 31.9074 92.8324 31.8325 92.6984 31.7131C92.9041 32.3083 92.7625 33.0518 92.2466 33.4126C91.7307 33.7734 90.8658 33.5509 90.7056 32.9422C90.7318 33.0438 90.7368 33.1498 90.7202 33.2534C90.7037 33.357 90.666 33.4561 90.6094 33.5445C90.5529 33.6329 90.4787 33.7087 90.3916 33.7672C90.3044 33.8257 90.2062 33.8656 90.1029 33.8844C89.9997 33.9032 89.8937 33.9005 89.7915 33.8765C89.6894 33.8526 89.5932 33.8078 89.5092 33.745C89.4251 33.6823 89.3548 33.6028 89.3028 33.5117C89.2507 33.4206 89.218 33.3197 89.2067 33.2154" fill="#263238"/>
<path d="M81.3955 30.3613C81.3013 30.5871 81.1214 30.7663 80.8951 30.8594C80.6689 30.9525 80.4149 30.952 80.1891 30.8578C79.9633 30.7637 79.7841 30.5837 79.691 30.3575C79.5979 30.1313 79.5985 29.8773 79.6926 29.6515C79.8528 29.3008 80.2321 29.0479 80.2692 28.6635C80.3131 28.1999 79.8393 27.8677 79.4262 27.6654C79.0131 27.4631 78.5141 27.2001 78.4686 26.7347C78.423 26.2694 78.826 25.9372 79.1615 25.6371C79.497 25.337 79.8359 24.8717 79.6218 24.4721C79.5156 24.2664 79.2947 24.1501 79.1514 23.9663C78.8361 23.565 79.0013 22.926 79.4043 22.6175C79.8073 22.309 80.3636 22.2601 80.8661 22.3494C81.3685 22.4388 81.8406 22.6479 82.3295 22.7945C83.14 23.0302 83.9906 23.0953 84.8275 22.9856C85.6645 22.8759 86.4695 22.5938 87.1919 22.1572" fill="#263238"/>
<path d="M84.3814 41.2342C85.2524 41.41 86.1577 41.2363 86.9018 40.7505C87.6458 40.2648 88.1691 39.506 88.3587 38.6378L90.7511 27.6687C90.9004 27.0353 90.9212 26.3784 90.8123 25.7368C90.7033 25.0952 90.4668 24.482 90.1168 23.9334C89.7667 23.3848 89.3102 22.912 88.7742 22.5429C88.2383 22.1738 87.6337 21.9159 86.9964 21.7845L86.7469 21.7474C85.528 21.5682 84.2864 21.8548 83.2694 22.55C82.2523 23.2452 81.5345 24.2981 81.2589 25.4988C80.7261 27.8137 80.1681 30.3781 79.9995 31.6375C79.6505 34.2458 82.1913 35.0314 82.1913 35.0314L81.7344 37.2232C81.6438 37.6599 81.6404 38.1102 81.7243 38.5483C81.8083 38.9863 81.978 39.4034 82.2236 39.7756C82.4693 40.1479 82.7861 40.4679 83.1558 40.7174C83.5255 40.9668 83.9409 41.1407 84.378 41.2292L84.3814 41.2342Z" fill="#B78876"/>
<path d="M81.7276 27.2247C81.7128 27.3215 81.7362 27.4203 81.7928 27.5001C81.8494 27.58 81.9349 27.6348 82.0311 27.6529C82.0777 27.6636 82.126 27.6648 82.1731 27.6565C82.2202 27.6482 82.2652 27.6306 82.3054 27.6046C82.3456 27.5787 82.3802 27.545 82.4073 27.5056C82.4343 27.4661 82.4531 27.4216 82.4627 27.3747C82.4784 27.2781 82.4556 27.1791 82.3992 27.099C82.3428 27.019 82.2572 26.9642 82.1609 26.9465C82.1142 26.9359 82.0658 26.9346 82.0186 26.9429C81.9713 26.9512 81.9262 26.9688 81.8859 26.9947C81.8456 27.0206 81.8108 27.0543 81.7836 27.0938C81.7564 27.1332 81.7374 27.1778 81.7276 27.2247Z" fill="#263238"/>
<path d="M81.6315 26.8542C81.6703 26.9098 81.9822 26.7412 82.3835 26.8019C82.7848 26.8626 83.0461 27.1037 83.0967 27.0615C83.122 27.043 83.0866 26.9486 82.9736 26.8373C82.818 26.692 82.6213 26.5984 82.4105 26.5692C82.2025 26.5378 81.99 26.5733 81.8035 26.6704C81.6669 26.748 81.613 26.8289 81.6315 26.8542Z" fill="#263238"/>
<path d="M85.6375 27.8656C85.6223 27.9625 85.6455 28.0615 85.7022 28.1415C85.7588 28.2215 85.8445 28.2762 85.941 28.2939C85.9877 28.3045 86.0362 28.3056 86.0834 28.2972C86.1306 28.2888 86.1756 28.2711 86.2158 28.245C86.2561 28.2189 86.2907 28.185 86.3176 28.1453C86.3445 28.1057 86.3632 28.061 86.3726 28.014C86.3878 27.9173 86.3646 27.8186 86.3078 27.7388C86.2511 27.6591 86.1654 27.6048 86.0691 27.5874C86.0225 27.5766 85.9741 27.5752 85.9269 27.5834C85.8797 27.5916 85.8347 27.6092 85.7944 27.6351C85.7541 27.6611 85.7195 27.6949 85.6925 27.7344C85.6656 27.774 85.6469 27.8187 85.6375 27.8656Z" fill="#263238"/>
<path d="M85.5532 27.505C85.592 27.559 85.9039 27.3921 86.3035 27.4528C86.703 27.5135 86.9678 27.7546 87.0183 27.7124C87.0419 27.6939 87.0082 27.5995 86.8936 27.4882C86.738 27.3429 86.5413 27.2492 86.3304 27.2201C86.1225 27.1887 85.91 27.2241 85.7235 27.3213C85.5937 27.3938 85.533 27.4798 85.5532 27.505Z" fill="#263238"/>
<path d="M83.6665 30.2599C83.6665 30.2363 83.4288 30.157 83.0343 30.0474C82.9331 30.0221 82.8404 29.9867 82.8336 29.9142C82.8406 29.808 82.8794 29.7064 82.9449 29.6226C83.0787 29.3899 83.2175 29.1454 83.3614 28.8891C83.943 27.8421 84.373 26.9772 84.3376 26.9536C84.3022 26.93 83.7896 27.7595 83.2079 28.8082L82.8033 29.5467C82.7216 29.6613 82.6822 29.8008 82.692 29.9412C82.7024 29.9785 82.7209 30.0129 82.7463 30.0421C82.7717 30.0713 82.8032 30.0944 82.8387 30.1098C82.8927 30.1329 82.9493 30.1494 83.0073 30.1587C83.222 30.2197 83.4434 30.2536 83.6665 30.2599Z" fill="#263238"/>
<path d="M85.678 25.9218C85.7016 26.0365 86.1096 26.0432 86.5698 26.168C87.0301 26.2928 87.3909 26.4765 87.4685 26.3889C87.5022 26.3467 87.4516 26.2337 87.3151 26.1073C87.1298 25.9481 86.9106 25.8333 86.6742 25.7717C86.4378 25.71 86.1905 25.7031 85.9511 25.7516C85.7623 25.7954 85.6695 25.8763 85.678 25.9218Z" fill="#263238"/>
<path d="M81.9485 25.7178C82.0058 25.8189 82.2857 25.765 82.6229 25.8088C82.9601 25.8526 83.2265 25.9605 83.2973 25.8746C83.3327 25.8324 83.2973 25.7346 83.1928 25.6301C83.0431 25.5029 82.8589 25.4231 82.6638 25.4009C82.4686 25.3787 82.2713 25.415 82.0969 25.5053C81.9755 25.5812 81.9232 25.6689 81.9485 25.7178Z" fill="#263238"/>
<path d="M88.3435 24.3992L88.3553 24.4127C88.7226 24.8003 88.9256 25.3151 88.9218 25.8491V25.9014C88.9218 26.6601 88.7852 27.4188 88.7869 28.1691C88.7886 28.9193 88.9336 29.7185 89.4074 30.3086C89.6013 30.5531 89.9789 30.7554 90.1998 30.5362C90.2776 30.443 90.3273 30.3295 90.3431 30.2091C90.7444 28.4371 91.466 26.9197 91.7374 25.0449C91.7751 24.7939 91.7523 24.5376 91.6711 24.2972C91.5899 24.0567 91.4525 23.8391 91.2704 23.6624C90.9197 23.3252 90.483 22.961 90.016 23.1043C89.549 23.2476 88.8662 23.981 88.4767 24.2845" fill="#263238"/>
<path d="M89.7007 28.7173C89.7479 28.7038 91.5671 28.4492 91.2485 30.2212C90.9298 31.9932 89.2253 31.3087 89.2253 31.2564C89.2253 31.2041 89.7007 28.7173 89.7007 28.7173Z" fill="#B78876"/>
<path d="M89.8862 30.683C89.8862 30.683 89.9132 30.71 89.9604 30.742C90.0284 30.787 90.1112 30.8039 90.1914 30.7892C90.3903 30.7538 90.6011 30.4857 90.6668 30.1671C90.7007 30.0167 90.7007 29.8606 90.6668 29.7102C90.6598 29.6519 90.6389 29.5961 90.6057 29.5477C90.5725 29.4993 90.5281 29.4596 90.4763 29.432C90.4425 29.4161 90.4042 29.4126 90.3681 29.4221C90.3321 29.4317 90.3005 29.4537 90.279 29.4842C90.247 29.5281 90.2521 29.5669 90.242 29.5669C90.2318 29.5669 90.2099 29.5315 90.242 29.4606C90.2595 29.4186 90.291 29.3841 90.3313 29.3629C90.3866 29.3347 90.4508 29.3292 90.51 29.3477C90.5806 29.3758 90.6428 29.4215 90.6907 29.4806C90.7385 29.5396 90.7703 29.61 90.7832 29.6849C90.8299 29.8495 90.8363 30.023 90.8017 30.1907C90.7258 30.5464 90.483 30.8465 90.215 30.8752C90.1648 30.8805 90.114 30.8745 90.0664 30.8576C90.0189 30.8406 89.9757 30.8132 89.9402 30.7774C89.8812 30.7251 89.8795 30.6847 89.8862 30.683Z" fill="#AA6550"/>
<path d="M90.0362 23.3891C90.5791 22.74 89.5304 21.543 88.6874 21.1366C87.8444 20.7303 86.6305 20.99 85.7133 21.1518C85.135 21.2547 84.5483 21.43 83.9717 21.3204C83.589 21.2246 83.223 21.0718 82.8859 20.8669C82.5479 20.6657 82.1729 20.5344 81.7833 20.4808C81.5872 20.4567 81.3884 20.4865 81.208 20.567C81.0277 20.6475 80.8728 20.7757 80.7598 20.9377C80.5592 21.2749 80.6992 21.8026 81.0768 21.9122C80.963 21.8258 80.8299 21.7683 80.689 21.7446C80.5481 21.7209 80.4035 21.7318 80.2677 21.7763C80.1319 21.8208 80.0089 21.8975 79.9093 22C79.8096 22.1024 79.7364 22.2275 79.6957 22.3645C79.655 22.5015 79.6482 22.6463 79.6758 22.7865C79.7034 22.9267 79.7646 23.0582 79.8542 23.1695C79.9437 23.2809 80.0589 23.3689 80.19 23.4259C80.321 23.4829 80.4639 23.5074 80.6064 23.497C80.3822 23.2677 79.9472 23.5291 79.932 23.8494C79.9169 24.1698 80.1698 24.4412 80.4378 24.6115C81.1308 25.0465 82.0109 25.0684 82.8168 24.9234C83.6227 24.7784 84.3949 24.4783 85.1974 24.3131C85.9999 24.1478 87.3471 23.8342 88.072 24.217C88.6048 24.4968 88.8982 25.2286 89.2371 25.1291C89.3975 25.07 89.542 24.9743 89.6591 24.8496C89.7762 24.7249 89.8626 24.5747 89.9115 24.4109C90.0028 24.0818 90.0409 23.7403 90.0244 23.3992" fill="#263238"/>
<path d="M93.5044 31.6089C93.5375 31.6013 93.569 31.5876 93.5971 31.5684C93.6805 31.5148 93.7471 31.4389 93.7893 31.3492C93.8547 31.2058 93.8747 31.0458 93.8466 30.8906C93.8029 30.6866 93.6911 30.5035 93.5297 30.3714C93.3381 30.2136 93.1223 30.0878 92.8907 29.9987C92.6303 29.9037 92.3801 29.7829 92.1438 29.6379C91.8962 29.464 91.7074 29.2187 91.6026 28.9349C91.4874 28.6292 91.4341 28.3037 91.4458 27.9772C91.4626 27.3028 91.6498 26.6706 91.6953 26.0754C91.7408 25.4803 91.665 24.9222 91.4121 24.5361C91.2219 24.2256 90.9204 23.9994 90.5691 23.9038C90.4749 23.8801 90.3777 23.8705 90.2807 23.8752C90.2471 23.8757 90.2136 23.8808 90.1813 23.8904C90.3092 23.8895 90.4368 23.9054 90.5606 23.9376C90.8947 24.0432 91.178 24.2683 91.3564 24.5698C91.5908 24.9441 91.6717 25.487 91.6127 26.0687C91.5537 26.6503 91.3733 27.2826 91.353 27.9755C91.3423 28.314 91.3996 28.6511 91.5216 28.9669C91.6344 29.2668 91.8362 29.5251 92.0999 29.7071C92.3419 29.8524 92.5978 29.9732 92.8637 30.0679C93.0892 30.1515 93.3002 30.2698 93.4892 30.4186C93.6433 30.5404 93.7524 30.7101 93.7994 30.9008C93.8302 31.046 93.8161 31.1971 93.759 31.3341C93.7068 31.4513 93.6173 31.548 93.5044 31.6089Z" fill="#455A64"/>
<path d="M81.0195 21.8706C80.9958 21.8528 80.9697 21.8386 80.942 21.8284C80.9105 21.8129 80.8778 21.7999 80.8442 21.7897C80.7975 21.7737 80.7496 21.7618 80.7009 21.7542C80.541 21.729 80.3774 21.7405 80.2226 21.7878C80.0678 21.8351 79.9258 21.9171 79.8073 22.0274C79.6873 22.1736 79.5974 22.3422 79.543 22.5233C79.4886 22.7045 79.4707 22.8947 79.4903 23.0828C79.513 23.3165 79.5822 23.5433 79.694 23.7498C79.8058 23.9562 79.9578 24.1382 80.1411 24.2849C80.5625 24.6244 81.0756 24.8305 81.6147 24.8767C82.2001 24.9271 82.7897 24.8913 83.3648 24.7705C84.2766 24.5919 85.1498 24.254 85.9443 23.7724C86.2849 23.5617 86.6412 23.3774 87.0099 23.2211C87.3315 23.0905 87.6744 23.0202 88.0215 23.0137C88.5265 23.0028 89.0262 23.1187 89.4748 23.3509C89.637 23.4417 89.794 23.5413 89.9452 23.6493C89.8102 23.5167 89.6576 23.4032 89.4917 23.3121C89.0419 23.0615 88.5347 22.9319 88.0198 22.9361C87.6642 22.9389 87.3122 23.0069 86.9812 23.1368C86.6086 23.2929 86.2485 23.4772 85.9039 23.6881C85.1148 24.1597 84.25 24.4912 83.3479 24.6677C82.7813 24.7877 82.2003 24.8246 81.6231 24.7772C81.1005 24.7339 80.6024 24.5368 80.1917 24.2108C80.015 24.0711 79.868 23.8976 79.7591 23.7005C79.6503 23.5034 79.5818 23.2865 79.5578 23.0626C79.5372 22.8832 79.5522 22.7015 79.6019 22.5279C79.6517 22.3543 79.7352 22.1922 79.8477 22.051C79.9601 21.9437 80.095 21.8628 80.2426 21.8141C80.3901 21.7654 80.5467 21.7501 80.7009 21.7694C80.81 21.7933 80.9166 21.8272 81.0195 21.8706Z" fill="#455A64"/>
<path d="M82.0058 20.395C81.9998 20.5305 82.021 20.6658 82.0682 20.7929C82.1998 21.1442 82.4456 21.4412 82.7662 21.6359C82.9817 21.7763 83.2212 21.8757 83.4727 21.9293C83.7611 21.9874 84.0565 22.0027 84.3494 21.9748C84.9682 21.9293 85.6156 21.7168 86.295 21.5415C86.9745 21.3662 87.654 21.2734 88.2407 21.4302C88.7614 21.5682 89.2245 21.8689 89.5625 22.2884C89.7949 22.5671 89.9671 22.8908 90.0683 23.2393C90.1357 23.4871 90.1442 23.6321 90.156 23.6305C90.1582 23.5956 90.1582 23.5607 90.156 23.5259C90.1467 23.4265 90.1304 23.3279 90.1071 23.2309C90.0171 22.8714 89.8497 22.5359 89.6165 22.2479C89.2752 21.8112 88.8022 21.496 88.2677 21.3493C87.6607 21.1807 86.9627 21.2768 86.2799 21.4538C85.597 21.6309 84.9547 21.8433 84.3494 21.8922C84.0642 21.9217 83.7763 21.9098 83.4946 21.8568C83.2509 21.8072 83.018 21.7147 82.8067 21.5836C82.4941 21.3993 82.2493 21.1191 82.1087 20.7845C82.0636 20.6578 82.0292 20.5275 82.0058 20.395Z" fill="#455A64"/>
<path d="M82.8674 31.5831C82.8895 31.7572 82.9355 31.9273 83.0039 32.0889C83.0397 32.1687 83.092 32.2401 83.1574 32.2982C83.2228 32.3563 83.2998 32.3999 83.3833 32.4261C83.4737 32.4448 83.5673 32.4405 83.6557 32.4137C83.744 32.3869 83.8243 32.3384 83.8891 32.2727C84.0183 32.1365 84.1015 31.9631 84.1268 31.777C84.1538 31.6084 84.1268 31.3976 83.9582 31.3437C83.8901 31.3268 83.8189 31.3268 83.7508 31.3437L82.8168 31.5123" fill="#AA6550"/>
<path d="M83.0309 32.2917C83.1795 32.3488 83.3371 32.3785 83.4963 32.3794C83.661 32.3697 83.8162 32.2987 83.9313 32.1804C83.9992 32.1081 84.051 32.0221 84.0833 31.9282C84.1156 31.8343 84.1275 31.7347 84.1184 31.6358C84.1134 31.5852 84.102 31.5353 84.0847 31.4875C84.0628 31.442 84.0695 31.4453 84.0307 31.4403C83.9919 31.4352 83.9313 31.4403 83.8807 31.4487L83.7239 31.4605C83.5216 31.4757 83.3395 31.4875 83.186 31.4959C83.018 31.5193 82.8472 31.5159 82.6802 31.4858C82.8379 31.4282 83.0033 31.3941 83.1709 31.3846C83.3226 31.3627 83.5081 31.3408 83.7053 31.3172L83.8604 31.3003C83.9163 31.2921 83.9726 31.2871 84.029 31.2852C84.0737 31.2864 84.1168 31.3017 84.1521 31.329C84.1836 31.3568 84.2074 31.3922 84.2212 31.4318C84.2442 31.4926 84.2589 31.5561 84.2651 31.6207C84.2762 31.7421 84.2603 31.8644 84.2186 31.9789C84.1769 32.0935 84.1105 32.1974 84.024 32.2833C83.8801 32.4201 83.688 32.4946 83.4895 32.4906C83.3598 32.4912 83.2326 32.4556 83.122 32.3878C83.0647 32.3406 83.0259 32.2984 83.0309 32.2917Z" fill="#263238"/>
<path d="M82.1946 35.0312C82.1946 35.0312 83.8941 35.6753 85.5481 35.1999C85.5481 35.1999 84.3005 36.2469 82.0244 35.8456L82.1946 35.0312Z" fill="#AA6550"/>
<path d="M84.7877 59.2034C84.7058 59.1497 84.628 59.09 84.5551 59.0247C84.4826 58.9657 84.3865 58.8932 84.2836 58.8156C84.1808 58.7381 84.056 58.647 83.9127 58.5543C83.7694 58.4616 83.621 58.3604 83.4474 58.2643C83.2737 58.1682 83.0899 58.067 82.8927 57.9659C82.0277 57.5403 81.0977 57.2622 80.1411 57.1431C79.9202 57.1195 79.7112 57.0925 79.5139 57.0875C79.3166 57.0824 79.1329 57.074 78.966 57.0757C78.799 57.0774 78.6456 57.0858 78.5124 57.0908C78.3792 57.0959 78.2646 57.106 78.1752 57.1161C78.0787 57.1309 77.9812 57.1377 77.8835 57.1364C77.9784 57.112 78.0747 57.094 78.1719 57.0824C78.2835 57.0633 78.396 57.0498 78.5091 57.0419C78.6422 57.0318 78.794 57.0133 78.9643 57.0133C79.1346 57.0133 79.3183 57.0032 79.5173 57.0133C79.7162 57.0234 79.9287 57.0403 80.1512 57.0605C80.6337 57.1205 81.1106 57.2186 81.5776 57.3539C82.041 57.4963 82.4921 57.6761 82.9264 57.8917C83.1236 57.9962 83.3142 58.0923 83.4811 58.2002C83.648 58.3081 83.8065 58.4042 83.9447 58.502C84.083 58.5998 84.2044 58.6942 84.3106 58.7752C84.4168 58.8561 84.5045 58.9336 84.5736 58.9977C84.6506 59.0602 84.7222 59.129 84.7877 59.2034Z" fill="#FAFAFA"/>
<path d="M74.8791 50.5438L76.2616 44.5535C76.791 42.301 77.4182 40.1362 78.4719 39.8799V40.5762L78.0201 57.6908C78.0201 57.6908 75.2028 60.8942 71.6133 59.1172C70.4904 58.5591 68.4419 54.6391 68.4419 54.6391C68.4419 54.6391 63.6756 46.135 63.8745 45.7489C64.0735 45.3628 66.9852 41.6097 67.2819 41.4226L74.8791 50.5438Z" fill="#4ECDC4"/>
<path d="M89.1056 38.1837C91.8538 38.7098 94.9476 40.3132 96.3722 44.4219C96.8915 45.9225 100.675 56.9843 100.675 56.9843L94.2226 56.8495L93.1806 54.5717L93.6864 58.2724L94.1231 63.5496L77.8296 63.8245L77.9442 55.8733L78.101 40.0586C78.101 40.0586 78.2831 39.8192 81.0937 38.2697C82.837 37.307 89.1056 38.1837 89.1056 38.1837Z" fill="#4ECDC4"/>
<g opacity="0.2">
<path d="M90.7309 48.7617C90.9989 52.1 91.3058 53.1318 91.5739 56.4701C91.5802 56.7862 91.6372 57.0993 91.7425 57.3974C91.7988 57.5457 91.8891 57.6786 92.0063 57.7855C92.1234 57.8924 92.2641 57.9703 92.4169 58.0128C92.8923 58.1089 93.5094 58.4529 93.6426 57.9875L93.1924 54.7723C93.0957 54.3046 92.9463 53.8493 92.7473 53.4151C91.7475 51.1946 91.3783 51.0648 90.7241 48.7617" fill="black"/>
</g>
<path d="M81.092 39.9814L81.1459 39.634L81.6669 36.3025C81.6819 36.2057 81.733 36.1181 81.81 36.0574C81.8869 35.9967 81.984 35.9674 82.0817 35.9754L88.4969 36.5116C88.6907 36.5275 88.8703 36.6194 88.9966 36.7672C89.123 36.915 89.1857 37.1067 89.1713 37.3006L89.028 39.2361L87.025 41.8494L84.1403 42.2996" fill="#4ECDC4"/>
<path d="M77.8701 46.2451C77.8954 46.2451 77.9139 48.855 77.9139 52.0736C77.9139 55.2922 77.8954 57.9021 77.8701 57.9021C77.8448 57.9021 77.8262 55.2922 77.8262 52.0736C77.8262 48.855 77.8465 46.2451 77.8701 46.2451Z" fill="#263238"/>
<path d="M94.3608 57.3862C94.3608 57.3862 94.3608 57.3744 94.3406 57.3491C94.3204 57.3238 94.3086 57.2817 94.2867 57.2345L94.0911 56.791L93.388 55.1539L91.0967 49.7402C90.6516 48.6814 90.2285 47.6731 89.844 46.7543C89.6497 46.3239 89.5104 45.8707 89.4293 45.4055C89.3581 44.999 89.3209 44.5873 89.318 44.1747C89.2966 43.5768 89.3834 42.9799 89.5743 42.4128L89.6265 42.2729L89.6856 42.1549C89.7133 42.0921 89.7472 42.0322 89.7867 41.9761L89.8575 41.8716C89.8657 41.8597 89.8747 41.8485 89.8845 41.8379C89.7736 42.0243 89.6805 42.2208 89.6063 42.4246C89.4299 42.9904 89.3534 43.5826 89.3804 44.1747C89.3833 45.0539 89.5663 45.9232 89.9182 46.729L91.1777 49.7115L93.4453 55.1354L94.1197 56.7826L94.3001 57.2328L94.3457 57.3508C94.3518 57.3621 94.3569 57.374 94.3608 57.3862Z" fill="#263238"/>
<path d="M91.1051 38.7725C91.0462 38.8323 90.9837 38.8886 90.918 38.9411C90.7284 39.0856 90.5217 39.2062 90.3026 39.3002C89.9555 39.445 89.592 39.5469 89.2202 39.6037C88.7287 39.68 88.2334 39.729 87.7365 39.7503C87.1835 39.7739 86.5799 39.7638 85.9325 39.7756C85.2448 39.7745 84.5596 39.8583 83.8924 40.0252C83.1533 40.1998 82.4844 40.5942 81.9738 41.1565C81.7194 41.4627 81.5373 41.8223 81.441 42.2085C81.3381 42.6047 81.3451 43.0215 81.4612 43.414C81.5257 43.6077 81.6207 43.7899 81.7428 43.9535C81.8657 44.1124 82.0208 44.2434 82.198 44.338C82.3699 44.4321 82.5659 44.4732 82.7611 44.456C82.9521 44.4364 83.1289 44.3462 83.2568 44.2031C83.3708 44.0526 83.4519 43.8798 83.4949 43.6959C83.5378 43.5121 83.5418 43.3213 83.5063 43.1358C83.4783 42.9527 83.4214 42.7751 83.3377 42.6098C83.2545 42.4485 83.1545 42.2965 83.0393 42.1563C82.5887 41.6369 81.9817 41.2778 81.3095 41.1329C80.7271 40.9955 80.12 41.0024 79.5409 41.1531C79.0645 41.2763 78.6097 41.4713 78.1921 41.7314C77.874 41.9297 77.5739 42.1554 77.2951 42.4058C77.0641 42.6081 76.9006 42.7835 76.7893 42.8981L76.6645 43.033C76.6509 43.0491 76.6356 43.0638 76.619 43.0768C76.8175 42.826 77.0375 42.593 77.2766 42.3805C77.5526 42.1252 77.8517 41.896 78.1701 41.696C78.5918 41.4277 79.0525 41.2264 79.5358 41.0991C80.1244 40.9413 80.7429 40.9308 81.3365 41.0688C82.026 41.2143 82.6493 41.5807 83.1118 42.1124C83.2296 42.2531 83.3325 42.4057 83.4187 42.5677C83.5037 42.7413 83.5606 42.9274 83.5873 43.119C83.6167 43.3143 83.6133 43.5132 83.5771 43.7074C83.5408 43.9095 83.4518 44.0985 83.3192 44.2553C83.1775 44.4144 82.9815 44.5148 82.7696 44.5369C82.5569 44.5571 82.3432 44.5131 82.1558 44.4105C81.9677 44.31 81.8028 44.1709 81.672 44.0024C81.5433 43.8308 81.4431 43.6395 81.3752 43.4359C81.2541 43.0281 81.2471 42.5948 81.355 42.1832C81.4534 41.7834 81.642 41.4114 81.9063 41.0958C82.4294 40.5221 83.1134 40.1196 83.8688 39.9409C84.5436 39.7759 85.2362 39.6955 85.9308 39.7014C86.5799 39.6913 87.1835 39.7015 87.7331 39.6863C88.2281 39.669 88.7217 39.6246 89.2118 39.5531C89.5814 39.5 89.9436 39.4038 90.2908 39.2665C90.5087 39.178 90.7157 39.0649 90.9079 38.9293C90.9753 38.8837 91.0209 38.8416 91.0546 38.818C91.0699 38.8012 91.0869 38.786 91.1051 38.7725Z" fill="#FAFAFA"/>
<path d="M96.6808 45.7897C96.6572 45.7963 96.6328 45.8003 96.6083 45.8015C96.5611 45.8015 96.492 45.8133 96.4009 45.8166C96.1462 45.825 95.8912 45.8189 95.6372 45.7981C95.3151 45.7745 94.9341 45.7256 94.5126 45.6666C94.0911 45.6076 93.6291 45.5452 93.1402 45.5199C92.683 45.495 92.2245 45.5296 91.7762 45.6228C91.4097 45.6973 91.0577 45.8311 90.7343 46.019C90.4413 46.1981 90.1812 46.4262 89.9655 46.6934C89.9746 46.6708 89.9871 46.6498 90.0026 46.631C90.0381 46.5714 90.0787 46.515 90.1239 46.4624C90.2873 46.2629 90.4827 46.0919 90.7022 45.9566C91.0278 45.7577 91.3846 45.6152 91.7577 45.5351C92.2131 45.4357 92.6798 45.3982 93.1453 45.4238C93.6393 45.4491 94.1029 45.5165 94.5244 45.5789C94.9459 45.6413 95.3236 45.6969 95.6422 45.7273C95.9609 45.7576 96.2222 45.7711 96.4009 45.7728C96.4945 45.7727 96.5879 45.7783 96.6808 45.7897Z" fill="#FAFAFA"/>
<path d="M92.6293 53.3481C92.3123 53.2743 91.9864 53.2465 91.6615 53.2655C91.2805 53.2912 90.9034 53.3585 90.537 53.4661C90.1071 53.5824 89.6265 53.7527 89.087 53.9196C88.5012 54.1183 87.888 54.2246 87.2695 54.2349C86.5572 54.2347 85.8526 54.0884 85.1991 53.805C84.4729 53.498 83.8269 53.0285 83.3108 52.4326C83.0316 52.1211 82.8039 51.7671 82.6364 51.3839C82.4581 50.9872 82.3911 50.5495 82.4425 50.1177C82.5012 49.6824 82.7135 49.2824 83.041 48.9897C83.2037 48.8479 83.3989 48.7483 83.6092 48.6998C83.815 48.6562 84.0282 48.662 84.2313 48.7168C84.4344 48.7716 84.6216 48.8738 84.7776 49.015C84.9299 49.1547 85.0359 49.3377 85.0811 49.5394C85.1247 49.7368 85.1089 49.9427 85.0356 50.1312C84.9646 50.3123 84.8573 50.477 84.7203 50.6151C84.4588 50.8769 84.1428 51.0779 83.7947 51.2035C83.6308 51.2657 83.4614 51.3125 83.2889 51.3434C83.2046 51.3586 83.1203 51.3771 83.0377 51.3889L82.7864 51.4193C82.1704 51.4803 81.5484 51.4364 80.947 51.2895C80.4511 51.1714 79.9731 50.9877 79.5257 50.7432C79.1874 50.5604 78.8702 50.3411 78.5799 50.089L78.4113 49.9423L78.273 49.8024C78.1984 49.7318 78.1286 49.6563 78.0639 49.5765L77.9425 49.4315C77.9287 49.4158 77.9163 49.3988 77.9055 49.3809C77.9218 49.3949 77.937 49.4101 77.951 49.4264L78.0774 49.5647C78.1443 49.642 78.2158 49.7152 78.2916 49.7839L78.4315 49.9204L78.6001 50.0637C78.8917 50.3088 79.2088 50.5219 79.5459 50.6994C79.991 50.9372 80.4655 51.1152 80.9571 51.2288C81.5525 51.3706 82.1676 51.4105 82.7763 51.3468L83.0225 51.3164C83.1051 51.3029 83.1911 51.2844 83.272 51.2692C83.4406 51.2387 83.606 51.1925 83.766 51.131C84.1027 51.0083 84.4083 50.8132 84.6613 50.5594C84.7902 50.4289 84.8912 50.2734 84.958 50.1025C85.0241 49.9288 85.0388 49.7397 85.0002 49.5579C84.9502 49.3722 84.8504 49.2037 84.7116 49.0706C84.5729 48.9375 84.4004 48.8448 84.2128 48.8026C84.0207 48.7472 83.8176 48.7414 83.6227 48.786C83.4278 48.8305 83.2473 48.9238 83.0983 49.0572C82.7862 49.3354 82.5845 49.7166 82.5302 50.1312C82.4818 50.5468 82.5459 50.9677 82.7156 51.3501C82.8788 51.7244 83.0995 52.0709 83.3698 52.3769C83.8771 52.962 84.5115 53.4233 85.2244 53.7257C85.8675 54.0064 86.5611 54.1533 87.2628 54.1573C87.8751 54.1498 88.4825 54.0474 89.0634 53.8539C89.6013 53.6853 90.075 53.5268 90.5184 53.4138C90.8886 53.3098 91.2691 53.247 91.6531 53.2267C91.7929 53.2179 91.9331 53.2179 92.0729 53.2267C92.1926 53.2452 92.2955 53.2536 92.3764 53.2722L92.5602 53.3177C92.5845 53.3246 92.6078 53.3348 92.6293 53.3481Z" fill="#FAFAFA"/>
<path d="M77.8144 51.549C77.7992 51.549 77.7217 51.3804 77.5582 51.0971C77.1302 50.3783 76.5061 49.7964 75.7592 49.4196C75.4726 49.2746 75.2837 49.2105 75.2888 49.1953C75.3362 49.1994 75.3827 49.2102 75.427 49.2273C75.5498 49.2639 75.6697 49.3089 75.7862 49.3622C76.1724 49.5384 76.5277 49.7758 76.8382 50.0653C77.1493 50.3545 77.4107 50.6928 77.6121 51.0668C77.6759 51.1787 77.7322 51.2947 77.7807 51.4141C77.7979 51.4574 77.8092 51.5027 77.8144 51.549Z" fill="#FAFAFA"/>
<path d="M71.2727 58.765C71.2727 58.765 71.2609 58.7515 71.2458 58.7229C71.2306 58.6942 71.2053 58.6487 71.1766 58.5964C71.1159 58.4851 71.0283 58.3182 70.9204 58.1024C70.6072 57.4932 70.3488 56.8573 70.1482 56.2023C70.0141 55.7473 69.9332 55.2782 69.9071 54.8046C69.8937 54.54 69.9044 54.2748 69.9391 54.0122C69.981 53.7342 70.0476 53.4606 70.1381 53.1945C70.3349 52.6192 70.6756 52.1038 71.1278 51.6973C71.3693 51.4757 71.6532 51.3054 71.9624 51.1967C72.2716 51.0881 72.5997 51.0433 72.9267 51.065C73.2666 51.0905 73.5839 51.2449 73.8136 51.4967C73.9228 51.6212 74.0022 51.7689 74.0457 51.9288C74.0893 52.0886 74.0958 52.2562 74.0648 52.4189C74.0284 52.5785 73.945 52.7236 73.8254 52.8353C73.7085 52.9424 73.5673 53.0193 73.414 53.0596C73.1172 53.1368 72.8021 53.0989 72.5322 52.9534C72.2817 52.8182 72.0628 52.6314 71.8898 52.4054C71.724 52.1961 71.5873 51.9653 71.4835 51.7192C71.301 51.2777 71.2254 50.7994 71.2626 50.3232C71.2967 49.9303 71.4115 49.5486 71.5998 49.202C71.7394 48.9405 71.9179 48.7018 72.1292 48.4939C72.2613 48.362 72.4065 48.244 72.5625 48.1415C72.6148 48.1061 72.6586 48.0842 72.6873 48.0673L72.7311 48.0454C72.7311 48.0454 72.6772 48.0842 72.5727 48.1567C72.4221 48.264 72.2816 48.3848 72.1528 48.5175C71.9508 48.7272 71.7805 48.9652 71.647 49.2239C71.4679 49.5661 71.3606 49.9414 71.3318 50.3266C71.2992 50.7935 71.3777 51.2615 71.5611 51.6922C71.6634 51.931 71.7972 52.1549 71.959 52.3582C72.1267 52.5746 72.3381 52.7532 72.5794 52.8826C72.8314 53.0182 73.1254 53.0531 73.4022 52.9803C73.5441 52.9471 73.6741 52.8754 73.7779 52.7731C73.8818 52.6708 73.9553 52.5418 73.9906 52.4004C74.0173 52.2514 74.0103 52.0983 73.9701 51.9524C73.9298 51.8065 73.8573 51.6715 73.7579 51.5574C73.5427 51.3227 73.246 51.1791 72.9284 51.1561C72.6134 51.1353 72.2974 51.1785 71.9995 51.2831C71.7017 51.3877 71.428 51.5515 71.1952 51.7647C70.7538 52.1617 70.4203 52.664 70.2257 53.2248C70.1348 53.4852 70.0677 53.7532 70.0251 54.0257C69.9901 54.2837 69.9783 54.5444 69.9897 54.8046C70.0133 55.2732 70.0903 55.7376 70.219 56.1888C70.4133 56.8422 70.6614 57.4783 70.9608 58.0906L71.2019 58.5964C71.2272 58.6504 71.2475 58.6942 71.2643 58.7279C71.2812 58.7616 71.2727 58.765 71.2727 58.765Z" fill="#FAFAFA"/>
<path d="M69.1906 43.8809C69.1906 43.8809 69.199 43.9045 69.2057 43.95C69.2176 44.0181 69.2261 44.0867 69.231 44.1557C69.2532 44.4075 69.2532 44.6608 69.231 44.9127C69.1629 45.7513 68.8761 46.5573 68.3992 47.2505C67.9223 47.9436 67.272 48.4996 66.5132 48.863C66.2861 48.9739 66.0497 49.0647 65.8067 49.1344C65.7224 49.1614 65.6533 49.1732 65.6078 49.185C65.5623 49.1968 65.537 49.1985 65.537 49.1951C65.6215 49.1587 65.7082 49.1277 65.7966 49.1024C66.0331 49.0204 66.2636 48.9218 66.4862 48.8074C67.2248 48.4342 67.8578 47.8814 68.3268 47.1996C68.7958 46.5179 69.0859 45.7291 69.1703 44.9059C69.1969 44.6574 69.2065 44.4073 69.199 44.1574C69.1902 44.0655 69.1874 43.9731 69.1906 43.8809Z" fill="#FAFAFA"/>
<path d="M98.156 51.1917C97.9052 51.3488 97.6848 51.5498 97.5052 51.7851C97.3366 52.0026 97.168 52.2909 96.9775 52.5944C96.7686 52.9342 96.5275 53.2532 96.2576 53.547C95.764 54.0802 95.1787 54.5205 94.5294 54.8469C94.334 54.9458 94.1324 55.032 93.9258 55.1049C93.8505 55.1344 93.7726 55.157 93.6932 55.1723C93.763 55.1324 93.8364 55.0991 93.9124 55.0728C94.054 55.0104 94.2597 54.9228 94.5008 54.7913C95.1307 54.4527 95.7004 54.0123 96.1868 53.488C96.4539 53.1988 96.6937 52.8855 96.9033 52.5523C97.0709 52.2737 97.2539 52.0047 97.4513 51.7463C97.5884 51.5732 97.7517 51.4225 97.9352 51.2996C97.9849 51.2665 98.0374 51.2377 98.092 51.2136C98.1358 51.1967 98.156 51.1883 98.156 51.1917Z" fill="#FAFAFA"/>
<path d="M89.0449 38.3863C89.0202 38.3969 88.9941 38.4037 88.9673 38.4065L88.7431 38.447C88.5475 38.479 88.2643 38.5212 87.9153 38.5684C87.2139 38.6628 86.2428 38.7741 85.1654 38.8533C84.661 38.8994 84.1544 38.9174 83.648 38.9073C83.2302 38.8971 82.8162 38.8261 82.4189 38.6965C82.1507 38.6096 81.8976 38.4816 81.6686 38.3172C81.6061 38.2732 81.5465 38.2253 81.4899 38.1739C81.4528 38.1368 81.4343 38.1182 81.436 38.1149C81.4376 38.1115 81.5236 38.1823 81.6872 38.2835C81.9201 38.4332 82.1726 38.5501 82.4374 38.6308C82.8312 38.7506 83.2398 38.8142 83.6514 38.8196C84.1579 38.825 84.6643 38.8047 85.1688 38.7589C86.2427 38.6797 87.2139 38.5802 87.9153 38.501L88.7465 38.4065C88.8453 38.3928 88.9451 38.3861 89.0449 38.3863Z" fill="#263238"/>
<path d="M100.599 58.1786C100.726 58.8309 100.708 59.5031 100.546 60.1475C100.384 60.792 100.082 61.393 99.6622 61.9078C99.2421 62.4227 98.7139 62.8388 98.1151 63.1267C97.5162 63.4146 96.8613 63.5673 96.1969 63.5738L83.4254 63.4322L83.7626 59.2965L94.698 57.6543" fill="#B78876"/>
<path d="M84.545 59.4766C84.486 59.4952 83.7492 59.1647 83.0883 58.8595C82.3872 58.5348 81.6176 58.3855 80.8459 58.4246L77.801 58.5797C77.801 58.5797 77.9881 59.0855 78.3068 59.2541C78.6254 59.4227 80.5357 59.4766 80.5357 59.4766L80.4379 59.5761C80.0384 59.9875 79.4937 60.226 78.9205 60.2404H78.6288C78.4128 60.2233 78.1996 60.1814 77.9932 60.1156L77.2429 59.8121C77.0153 59.711 76.7759 59.7262 76.6764 59.9555C76.5769 60.1847 76.6528 60.4478 77.2732 60.7597C77.6189 60.9283 78.9036 61.3784 78.9036 61.3784C78.9124 61.5613 78.9378 61.743 78.9795 61.9213C79.0351 62.1085 79.5392 62.2956 79.5392 62.2956C79.6702 62.5731 79.8201 62.8412 79.9877 63.0982C80.0467 63.1656 80.5036 63.3089 80.9909 63.4455C81.7764 63.6653 82.608 63.6589 83.3901 63.4269L84.55 63.0796V59.539" fill="#B78876"/>
<path d="M80.3805 61.7881C79.844 61.7745 79.3181 61.6359 78.8445 61.3835C78.8445 61.3632 79.1817 61.4914 79.6083 61.601C80.0349 61.7106 80.3822 61.7628 80.3805 61.7881Z" fill="#AA6550"/>
<path d="M80.2726 62.4982C80.1297 62.5279 79.9813 62.5168 79.8444 62.4662C79.7013 62.4398 79.5683 62.3745 79.46 62.2773C79.5978 62.3049 79.7332 62.3438 79.8646 62.3937C80.0031 62.418 80.1395 62.453 80.2726 62.4982Z" fill="#AA6550"/>
<path d="M80.829 59.2017C80.7624 59.2954 80.6836 59.3799 80.5947 59.4529C80.3927 59.6457 80.1699 59.8153 79.9304 59.9587C79.689 60.0996 79.4266 60.2009 79.1531 60.2588C79.0433 60.2882 78.9295 60.3007 78.8159 60.2959C79.1927 60.2093 79.5566 60.0738 79.8983 59.8929C80.1326 59.7517 80.3553 59.5922 80.5643 59.4158C80.646 59.3367 80.7346 59.265 80.829 59.2017Z" fill="#AA6550"/>
<path d="M84.8551 58.9216L84.5449 63.5986H96.5745C97.3913 63.5991 98.1928 63.377 98.8928 62.9562C99.6851 62.4801 100.311 61.7715 100.687 60.9269C101.062 60.0822 101.168 59.1424 100.99 58.2354C100.817 57.3472 100.557 56.4781 100.215 55.6406L94.1652 56.6371L94.3591 57.389L84.8551 58.9216Z" fill="#4ECDC4"/>
<path d="M97.1461 56.9964C97.1063 57.0079 97.0657 57.0169 97.0247 57.0234L96.6724 57.0874L95.3724 57.3032L91.0967 57.9776L86.816 58.6335L85.5178 58.8223L85.1637 58.8695C85.1223 58.8753 85.0807 58.8787 85.0389 58.8797C85.0788 58.8658 85.1201 58.8562 85.162 58.851L85.5127 58.7886L86.8076 58.5711L91.0833 57.8967L95.3724 57.2358L96.6707 57.047L97.0247 56.9998C97.065 56.9943 97.1057 56.9932 97.1461 56.9964Z" fill="#263238"/>
<path d="M90.9889 63.6023C90.9669 63.6023 91.0614 63.2651 91.0732 62.7138C91.0757 62.564 91.0695 62.4143 91.0546 62.2653C91.0401 62.0953 91.0154 61.9264 90.9804 61.7595C90.8969 61.3748 90.7655 61.0021 90.5893 60.6501C90.4088 60.2997 90.1881 59.9715 89.9317 59.6722L89.7631 59.4749C89.7058 59.4109 89.6434 59.3552 89.5861 59.2979C89.4731 59.1816 89.3534 59.0888 89.2489 58.9995C88.819 58.6623 88.5138 58.4937 88.5239 58.4785C88.5985 58.5084 88.6702 58.5451 88.7381 58.5881C88.822 58.6319 88.9031 58.6809 88.9808 58.7348C89.0702 58.7989 89.1815 58.8612 89.2877 58.9523C89.4091 59.0432 89.5251 59.1412 89.635 59.2456C89.694 59.303 89.7598 59.3569 89.8188 59.4142L90.0026 59.6132C90.2666 59.9146 90.4931 60.2469 90.677 60.6029C90.8555 60.9622 90.9869 61.343 91.0681 61.7359C91.1026 61.9078 91.1252 62.0818 91.1355 62.2568C91.1463 62.4084 91.1463 62.5605 91.1355 62.7121C91.1323 62.838 91.121 62.9636 91.1018 63.088C91.0926 63.1819 91.0762 63.2749 91.0529 63.3662C91.0384 63.4466 91.017 63.5256 90.9889 63.6023Z" fill="#FAFAFA"/>
<path d="M98.3128 63.2498C98.125 63.2487 97.9378 63.2266 97.7548 63.1841C97.5391 63.1346 97.3297 63.0605 97.131 62.9632C96.8674 62.8321 96.6293 62.6551 96.4279 62.4405C96.1835 62.1774 96.006 61.8594 95.9103 61.5132C95.857 61.3208 95.827 61.1227 95.8209 60.9231C95.8087 60.7122 95.8258 60.5006 95.8715 60.2943C95.9166 60.0746 96.0011 59.865 96.121 59.6755C96.2461 59.4746 96.4202 59.3087 96.6268 59.1933C96.8405 59.0687 97.0863 59.01 97.3333 59.0247C97.4602 59.0335 97.5841 59.0679 97.6974 59.1258C97.8107 59.1838 97.9111 59.2641 97.9925 59.3619C98.0768 59.4583 98.1401 59.5712 98.1784 59.6934C98.2167 59.8156 98.2292 59.9444 98.2151 60.0717C98.1943 60.1952 98.1464 60.3126 98.0746 60.4152C98.0029 60.5179 97.9092 60.6033 97.8003 60.6652C97.3922 60.8789 96.9223 60.9433 96.4717 60.8473C95.8322 60.7476 95.2476 60.4274 94.8193 59.9422C94.391 59.4569 94.1459 58.8371 94.1265 58.1901C94.1157 58.0022 94.1316 57.8138 94.1737 57.6304C94.1581 57.816 94.1536 58.0023 94.1602 58.1884C94.1916 58.6959 94.3575 59.1858 94.6407 59.6081C94.8518 59.918 95.124 60.1815 95.4406 60.3824C95.7572 60.5833 96.1115 60.7174 96.4818 60.7765C96.9123 60.869 97.3616 60.8094 97.7531 60.6079C97.8509 60.5526 97.9352 60.4762 98 60.3844C98.0647 60.2926 98.1082 60.1875 98.1274 60.0768C98.1373 59.9614 98.1244 59.8452 98.0893 59.7348C98.0542 59.6244 97.9977 59.522 97.923 59.4335C97.8483 59.345 97.7569 59.2721 97.6539 59.2191C97.551 59.166 97.4386 59.1337 97.3232 59.1242C97.0945 59.1086 96.8664 59.1608 96.6673 59.2742C96.48 59.3862 96.319 59.5372 96.1953 59.717C96.0717 59.8968 95.9882 60.1012 95.9508 60.3162C95.9051 60.5162 95.8875 60.7216 95.8985 60.9265C95.9031 61.1196 95.9309 61.3115 95.9811 61.4981C96.07 61.8351 96.2389 62.1456 96.4734 62.4034C96.6662 62.615 96.8944 62.7913 97.1478 62.9244C97.3421 63.0237 97.5468 63.1011 97.7582 63.1554C98.1122 63.2346 98.3145 63.238 98.3128 63.2498Z" fill="#FAFAFA"/>
<path d="M50.5941 12.2983H20.4669C18.706 12.2983 17.0172 12.9979 15.7721 14.243C14.5269 15.4881 13.8274 17.1769 13.8274 18.9378V29.6743H7.32788L13.8274 36.1738V43.4725C13.8274 45.2334 14.5269 46.9222 15.7721 48.1673C17.0172 49.4125 18.706 50.112 20.4669 50.112H50.5941C52.355 50.112 54.0437 49.4125 55.2889 48.1673C56.534 46.9222 57.2335 45.2334 57.2335 43.4725V18.9378C57.2335 17.1769 56.534 15.4881 55.2889 14.243C54.0437 12.9979 52.355 12.2983 50.5941 12.2983Z" fill="#4ECDC4"/>
<path d="M38.2862 13.433C38.0957 13.927 38.4228 14.4649 38.792 14.8459C39.1613 15.2269 39.603 15.5877 39.7193 16.1037C39.8154 16.537 39.6553 16.9871 39.694 17.4289C39.7328 17.8706 39.9773 18.287 40.1155 18.7187C40.3668 19.501 40.2656 20.3558 40.0414 21.1465C39.8796 21.8036 39.5706 22.4153 39.1377 22.9353C38.9196 23.1929 38.6493 23.4013 38.3447 23.5466C38.0401 23.6919 37.7081 23.7709 37.3707 23.7783C37.2753 23.7843 37.1797 23.7707 37.0898 23.7382C36.9999 23.7057 36.9176 23.6551 36.8481 23.5895C36.7535 23.4531 36.7013 23.2918 36.698 23.1259C36.3119 19.7311 36.3119 16.3035 36.698 12.9087" fill="#263238"/>
<path d="M37.9305 24.3738C39.3973 24.3097 40.7528 25.7141 40.6365 27.1776C42.1219 27.5401 43.1655 29.1738 42.8806 30.6744C42.7845 31.17 42.5636 31.6421 42.5333 32.1446C42.4995 32.6942 42.7019 33.2287 42.8013 33.7682C42.9922 34.7515 42.8902 35.7692 42.508 36.6951C42.277 37.2531 41.8454 37.8298 41.2418 37.8466C41.0373 37.838 40.838 37.7792 40.6616 37.6754C40.4852 37.5716 40.337 37.426 40.2302 37.2515C40.02 36.8981 39.8814 36.5068 39.8222 36.0999C39.5608 34.7815 39.485 33.4276 39.1208 32.1344C38.7566 30.8413 38.0485 29.5667 36.8801 28.9108C36.2344 28.5466 35.4588 28.3747 34.9446 27.8402C34.6859 27.5485 34.5134 27.1906 34.4464 26.8065C34.3794 26.4224 34.4206 26.0273 34.5652 25.6652C34.7168 25.3065 34.9422 24.9836 35.2269 24.7178C35.5116 24.452 35.8492 24.2492 36.2175 24.1226" fill="#263238"/>
<path d="M27.7774 14.642C27.7605 14.0148 28.3388 13.5309 28.9222 13.2932C29.5055 13.0555 30.1546 12.9762 30.6739 12.6188C31.1359 12.3086 31.4444 11.8247 31.8339 11.4386C32.3148 10.9509 32.9169 10.6 33.5782 10.4218C34.2396 10.2437 34.9365 10.2448 35.5973 10.425C36.2581 10.6053 36.859 10.9581 37.3384 11.4473C37.8178 11.9366 38.1583 12.5445 38.325 13.2089C38.5493 14.1008 38.3958 15.1562 37.6928 15.7497C36.8767 16.4376 35.6696 16.2841 34.6192 16.07C33.5688 15.8559 32.3886 15.6452 31.5153 16.2605C30.9892 16.6298 30.6857 17.2334 30.3637 17.7914C30.0417 18.3495 29.6387 18.9177 29.0301 19.1284C28.4214 19.3392 27.5936 18.975 27.57 18.3326" fill="#263238"/>
<path d="M30.2491 14.7705C29.988 14.7987 29.7471 14.9238 29.5738 15.1211C29.4006 15.3184 29.3076 15.5735 29.3134 15.836L29.9389 29.9984C29.9658 31.671 32.4105 32.6101 34.2011 32.5679C36.0102 32.5258 36.0675 31.6389 36.0911 30.0473C36.1282 27.3902 36.1248 26.3921 36.1265 26.4073C36.1282 26.4224 38.411 26.0228 38.8781 23.0352C39.109 21.5533 39.0298 19.122 38.9 17.1342C38.7836 15.3454 37.5933 13.1536 35.8112 13.3458L30.2491 14.7705Z" fill="#FFBE9D"/>
<path d="M38.3857 19.0124C38.3867 19.1119 38.3488 19.2079 38.2802 19.2799C38.2116 19.352 38.1176 19.3945 38.0182 19.3985C37.97 19.4026 37.9216 19.3971 37.8756 19.3824C37.8296 19.3676 37.787 19.3439 37.7503 19.3125C37.7136 19.2811 37.6835 19.2427 37.6617 19.1996C37.64 19.1565 37.627 19.1094 37.6236 19.0613C37.6222 18.9616 37.6599 18.8654 37.7287 18.7932C37.7974 18.7211 37.8916 18.6787 37.9912 18.6752C38.0393 18.671 38.0878 18.6765 38.1338 18.6913C38.1797 18.706 38.2223 18.7298 38.259 18.7612C38.2958 18.7925 38.3259 18.8309 38.3476 18.874C38.3694 18.9172 38.3823 18.9642 38.3857 19.0124Z" fill="#263238"/>
<path d="M38.3756 18.4054C38.3284 18.456 38.0384 18.2368 37.627 18.2368C37.2156 18.2368 36.9138 18.4459 36.8683 18.3953C36.8464 18.3734 36.8953 18.2823 37.0268 18.1862C37.2043 18.0626 37.4158 17.9972 37.6321 17.9991C37.8462 17.9978 38.0552 18.0645 38.2289 18.1896C38.3554 18.2891 38.3992 18.3835 38.3756 18.4054Z" fill="#263238"/>
<path d="M34.432 19.0124C34.433 19.1119 34.3951 19.2079 34.3265 19.2799C34.2579 19.352 34.1639 19.3945 34.0645 19.3985C34.0164 19.4026 33.9679 19.3971 33.9219 19.3824C33.8759 19.3676 33.8333 19.3439 33.7966 19.3125C33.7599 19.2811 33.7298 19.2427 33.7081 19.1996C33.6863 19.1565 33.6734 19.1094 33.67 19.0613C33.6686 18.9616 33.7063 18.8654 33.775 18.7932C33.8437 18.7211 33.9379 18.6787 34.0375 18.6752C34.0856 18.671 34.1341 18.6765 34.1801 18.6913C34.2261 18.706 34.2687 18.7298 34.3054 18.7612C34.3421 18.7925 34.3722 18.8309 34.3939 18.874C34.4157 18.9172 34.4286 18.9642 34.432 19.0124Z" fill="#263238"/>
<path d="M34.3393 18.491C34.2921 18.5416 34.0021 18.3224 33.5907 18.3224C33.1793 18.3224 32.8775 18.5315 32.8337 18.4809C32.8118 18.459 32.859 18.368 32.9905 18.2719C33.1679 18.148 33.3794 18.082 33.5958 18.083C33.8101 18.0823 34.0191 18.1496 34.1926 18.2752C34.3106 18.3781 34.3545 18.4691 34.3393 18.491Z" fill="#263238"/>
<path d="M35.8315 21.5397C35.8315 21.5161 36.0844 21.4722 36.5059 21.4183C36.6104 21.4065 36.7099 21.3846 36.7284 21.3138C36.7361 21.2051 36.7115 21.0965 36.6576 21.0019L36.344 20.2027C35.9107 19.0646 35.5954 18.1289 35.6426 18.112C35.6898 18.0952 36.0776 19.0039 36.5109 20.1352L36.811 20.9395C36.8764 21.0661 36.896 21.2114 36.8667 21.3509C36.8519 21.3876 36.8291 21.4206 36.7999 21.4475C36.7707 21.4743 36.7359 21.4943 36.6981 21.506C36.6431 21.5211 36.5864 21.529 36.5295 21.5296C36.0911 21.5599 35.8331 21.5633 35.8315 21.5397Z" fill="#263238"/>
<path d="M36.1265 26.4087C34.7224 26.4329 33.3391 26.0669 32.1307 25.3516C32.1307 25.3516 33.1035 27.3984 36.0877 27.1117L36.1265 26.4087Z" fill="#EB996E"/>
<path d="M35.6594 22.5308C35.5801 22.431 35.4763 22.3534 35.3581 22.3056C35.24 22.2577 35.1115 22.2412 34.985 22.2576C34.8943 22.2658 34.8061 22.2922 34.7258 22.3354C34.6455 22.3786 34.5748 22.4376 34.518 22.5088C34.4632 22.5776 34.4309 22.6616 34.4254 22.7494C34.42 22.8371 34.4417 22.9245 34.4877 22.9995C34.5537 23.0735 34.6404 23.126 34.7366 23.15C34.8329 23.1741 34.9341 23.1686 35.0272 23.1343C35.2213 23.0653 35.3996 22.9581 35.5515 22.8191C35.5982 22.7865 35.6383 22.7453 35.6696 22.6977C35.6849 22.675 35.6931 22.6483 35.6931 22.621C35.6931 22.5936 35.6849 22.5669 35.6696 22.5442" fill="#EB996E"/>
<path d="M34.6209 21.8296C34.6883 21.8296 34.69 22.273 35.0727 22.5883C35.4554 22.9036 35.9309 22.8547 35.9343 22.9255C35.9343 22.9542 35.828 23.0132 35.6274 23.0182C35.3657 23.023 35.1108 22.9352 34.9075 22.7704C34.7129 22.6112 34.5878 22.3827 34.5585 22.1331C34.5399 21.9358 34.5905 21.8296 34.6209 21.8296Z" fill="#263238"/>
<path d="M34.5079 17.7698C34.4674 17.8827 34.0561 17.8305 33.5739 17.8895C33.0917 17.9485 32.7005 18.0817 32.6364 17.9805C32.6078 17.9333 32.6752 17.8271 32.832 17.7192C33.0414 17.5846 33.2786 17.4995 33.5257 17.4703C33.7729 17.4411 34.0234 17.4686 34.2584 17.5506C34.4421 17.6298 34.5315 17.7175 34.5079 17.7698Z" fill="#263238"/>
<path d="M38.2171 17.2149C38.1446 17.3076 37.8614 17.2149 37.5191 17.2149C37.1769 17.2149 36.8902 17.279 36.8245 17.1812C36.7941 17.134 36.8397 17.0412 36.9661 16.9519C37.1353 16.846 37.3321 16.7926 37.5316 16.7983C37.7311 16.804 37.9244 16.8686 38.0873 16.9839C38.2171 17.0733 38.2525 17.1694 38.2171 17.2149Z" fill="#263238"/>
<path d="M28.1668 24.5792C28.5779 24.6623 29.0029 24.6465 29.4067 24.533C29.8105 24.4196 30.1815 24.2117 30.4891 23.9267C30.7967 23.6416 31.0322 23.2874 31.176 22.8935C31.3198 22.4995 31.3679 22.077 31.3163 21.6607C31.2236 20.9273 30.829 20.1838 31.0836 19.4892C31.4208 18.5737 32.7039 18.2921 33.0444 17.3766C33.2417 16.8455 33.0647 16.2234 33.2889 15.7024C33.4997 15.2135 34.0156 14.9319 34.518 14.7498C35.0204 14.5677 35.5566 14.443 35.9781 14.1159C36.3996 13.7888 36.6609 13.1717 36.3895 12.7114C34.1627 12.9786 31.9758 13.5101 29.8748 14.2946C29.3875 14.4767 28.8767 14.6959 28.5883 15.1275C28.2849 15.5861 28.3 16.1762 28.3253 16.7258C28.4501 19.4032 28.0421 21.9103 28.1668 24.5876" fill="#263238"/>
<path d="M27.4571 23.7398C27.4401 23.7373 27.4236 23.7322 27.4082 23.7247C27.36 23.7079 27.3142 23.6852 27.2716 23.6572C27.1074 23.551 26.9783 23.3984 26.9007 23.2189C26.7731 22.935 26.7389 22.618 26.8029 22.3135C26.9044 21.9178 27.0889 21.5483 27.3441 21.2294C27.6054 20.8652 27.9376 20.496 28.1635 20.0256C28.284 19.7865 28.3513 19.5243 28.3608 19.2568C28.351 18.9728 28.294 18.6925 28.1922 18.4272C28.0785 18.1405 28.0185 17.8353 28.0151 17.5269C28.0315 17.1969 28.1283 16.8759 28.2973 16.592C28.4663 16.3081 28.7023 16.0699 28.9846 15.8982C29.2874 15.733 29.6231 15.6374 29.9675 15.6184C30.3008 15.602 30.6308 15.5454 30.9505 15.4498C31.2506 15.3361 31.4972 15.1142 31.6417 14.8276C31.7794 14.5457 31.889 14.2509 31.9688 13.9475C32.0541 13.6564 32.167 13.3742 32.306 13.1045C32.5595 12.5934 32.9455 12.1596 33.4238 11.8485C33.8461 11.583 34.3402 11.4546 34.8384 11.4809C35.251 11.5023 35.644 11.6634 35.9528 11.9378C36.183 12.1448 36.3546 12.4088 36.4502 12.7033C36.5123 12.8876 36.5358 13.0827 36.5193 13.2765C36.5159 13.3439 36.5046 13.4107 36.4856 13.4755C36.4856 13.4755 36.4974 13.4063 36.5025 13.2748C36.5106 13.084 36.4819 12.8934 36.4182 12.7134C36.3021 12.3821 36.089 12.0933 35.8067 11.8846C35.5244 11.676 35.1858 11.557 34.835 11.5433C34.3507 11.522 33.8715 11.6503 33.4626 11.9108C32.9972 12.2167 32.6222 12.6417 32.3768 13.1416C32.2406 13.4113 32.1311 13.6937 32.0497 13.9846C31.9674 14.2935 31.8544 14.5934 31.7125 14.8799C31.6344 15.0281 31.5324 15.1626 31.4107 15.2778C31.2849 15.3943 31.137 15.4843 30.9758 15.5425C30.6473 15.6437 30.3075 15.7038 29.9642 15.7212C29.6323 15.7387 29.3085 15.8303 29.0166 15.9893C28.7468 16.153 28.521 16.3802 28.3591 16.6512C28.1972 16.9221 28.104 17.2286 28.0876 17.5438C28.0906 17.8427 28.1478 18.1386 28.2562 18.4171C28.3635 18.6905 28.4234 18.9801 28.4333 19.2736C28.4219 19.5519 28.3506 19.8245 28.2242 20.0728C27.9882 20.555 27.6526 20.9158 27.3896 21.2816C27.1358 21.5916 26.9507 21.9519 26.8467 22.3388C26.7796 22.6331 26.8073 22.9412 26.926 23.2189C26.9989 23.3958 27.1205 23.5483 27.2767 23.6589C27.3896 23.7162 27.4588 23.7331 27.4571 23.7398Z" fill="#455A64"/>
<path d="M36.1214 10.7388C36.1623 10.7418 36.2021 10.7539 36.2377 10.7742C36.3389 10.8171 36.4337 10.8738 36.5193 10.9428C36.813 11.1707 37.0076 11.5031 37.0626 11.8708C37.1175 12.2385 37.0286 12.6132 36.8143 12.9171C36.7521 13.0076 36.6784 13.0898 36.5952 13.1616C36.5345 13.2121 36.4974 13.2341 36.494 13.229C36.5891 13.1213 36.6786 13.0087 36.7621 12.8918C36.9521 12.5955 37.0283 12.2404 36.9765 11.8923C36.9247 11.5441 36.7485 11.2266 36.4805 10.9984C36.3659 10.905 36.246 10.8183 36.1214 10.7388Z" fill="#455A64"/>
<path d="M42.7272 31.2022C42.7628 31.0986 42.7915 30.9927 42.8132 30.8853C42.8527 30.5909 42.8015 30.2916 42.6665 30.0271C42.4585 29.6388 42.1276 29.3305 41.7257 29.1504C41.4905 29.0391 41.2448 28.9516 40.9923 28.889C40.7293 28.8216 40.4511 28.7659 40.1729 28.6749C39.893 28.5986 39.6348 28.4577 39.4193 28.2635C39.2262 28.0702 39.1013 27.8193 39.0635 27.5487C39.018 27.2974 39.0028 27.0597 38.9472 26.8473C38.8973 26.6507 38.8046 26.4677 38.6757 26.3111C38.4872 26.0818 38.2367 25.9115 37.9541 25.8205C37.7535 25.7598 37.6338 25.7598 37.6338 25.7497C37.6624 25.7468 37.6912 25.7468 37.7198 25.7497C37.8023 25.7554 37.8841 25.7684 37.9642 25.7885C38.26 25.87 38.5243 26.0386 38.7229 26.2724C38.8618 26.434 38.9626 26.6247 39.018 26.8304C39.0787 27.0513 39.0972 27.2924 39.1444 27.5352C39.1791 27.7911 39.2977 28.0283 39.4816 28.2096C39.6884 28.3931 39.9348 28.5264 40.2016 28.599C40.473 28.6867 40.7512 28.744 41.0159 28.8132C41.2718 28.8758 41.5205 28.965 41.7578 29.0795C42.173 29.2697 42.5117 29.5947 42.7188 30.0018C42.8537 30.2784 42.8974 30.5907 42.8435 30.8937C42.8275 30.9745 42.802 31.0531 42.7677 31.128C42.7568 31.1541 42.7432 31.179 42.7272 31.2022Z" fill="#455A64"/>
<path d="M29.7585 25.9212C28.2411 25.5166 26.9428 24.038 26.4134 22.5661C25.884 21.0942 25.884 19.4874 26.0206 17.9296C26.1184 16.8016 26.3173 15.6079 27.0659 14.7582C28.1955 13.4768 29.4263 12.8227 31.1258 12.8766" fill="#263238"/>
<path d="M38.5762 29.2094L37.1684 28.8553C37.3219 28.7498 37.4338 28.5941 37.4848 28.415C37.5359 28.2359 37.523 28.0447 37.4483 27.8741C37.3592 27.6554 37.2117 27.4654 37.022 27.3248C36.8324 27.1842 36.6077 27.0983 36.3726 27.0766L29.9557 26.3516C29.8435 26.3366 29.7295 26.3597 29.632 26.4172C29.5345 26.4747 29.4591 26.5632 29.4178 26.6686C29.1335 27.3924 29.1239 27.9882 29.3892 28.4557H29.3588L28.1213 28.7019L26.0239 47.2041L39.7615 46.5617L38.5762 29.2094Z" fill="#F5F5F5"/>
<path d="M36.5564 28.9259C36.4722 28.9506 36.3858 28.9675 36.2985 28.9765C36.1299 29.0035 35.8888 29.0322 35.5887 29.0625C34.0181 29.2084 32.4347 29.1295 30.8864 28.8281C30.5897 28.7691 30.352 28.7152 30.1884 28.6714C30.1025 28.6547 30.0184 28.6299 29.9372 28.5972C30.0243 28.6036 30.1106 28.6177 30.1952 28.6393C30.3638 28.6714 30.6015 28.7169 30.8982 28.7675C32.4449 29.0336 34.0181 29.1117 35.5836 29.0001C35.8837 28.9799 36.1265 28.958 36.2951 28.9411C36.3817 28.9292 36.4691 28.9241 36.5564 28.9259Z" fill="#263238"/>
<path d="M30.3469 31.8663C30.482 31.5857 30.6429 31.3181 30.8274 31.0672C30.9884 30.8003 31.1741 30.5491 31.3821 30.3169C31.2467 30.5978 31.0852 30.8653 30.8999 31.1161C30.7397 31.3831 30.5545 31.6343 30.3469 31.8663Z" fill="#E0E0E0"/>
<path d="M34.7743 32.1797C34.3457 31.7397 33.9602 31.2598 33.6227 30.7466C33.8474 30.9568 34.0517 31.1877 34.2331 31.4362C34.4371 31.6659 34.6183 31.9149 34.7743 32.1797Z" fill="#E0E0E0"/>
<path d="M32.7174 34.5321C32.6205 34.2321 32.5511 33.924 32.51 33.6115C32.4399 33.3042 32.3998 32.9908 32.3903 32.6758C32.4875 32.9756 32.5569 33.2838 32.5977 33.5963C32.666 33.904 32.706 34.2172 32.7174 34.5321Z" fill="#E0E0E0"/>
<path d="M36.0978 34.6768C35.8598 34.9728 35.5994 35.2501 35.3189 35.5063C35.0584 35.7836 34.7765 36.0401 34.4759 36.2734C34.7139 35.9773 34.9743 35.7 35.2548 35.4439C35.5164 35.1676 35.7982 34.9112 36.0978 34.6768Z" fill="#E0E0E0"/>
<path d="M31.5642 37.8296C30.9429 37.4584 30.4369 36.922 30.1024 36.2802C30.126 36.265 30.384 36.6697 30.7903 37.0962C31.1966 37.5228 31.581 37.8077 31.5642 37.8296Z" fill="#E0E0E0"/>
<path d="M33.0209 40.2642C33.0209 40.2895 32.6365 40.4125 32.1914 40.6503C31.7462 40.888 31.4209 41.1375 31.404 41.1156C31.6162 40.8884 31.8697 40.7036 32.1509 40.571C32.4183 40.4135 32.7138 40.3092 33.0209 40.2642Z" fill="#E0E0E0"/>
<path d="M35.3897 40.4212C35.2892 40.3361 35.1992 40.2393 35.1216 40.1329C34.9665 39.9474 34.7591 39.6827 34.5433 39.381C34.3275 39.0792 34.1454 38.7976 34.019 38.5885C33.9437 38.4804 33.8815 38.3639 33.8335 38.2412C33.9232 38.3374 34.0028 38.4425 34.0712 38.5548L34.6158 39.3304L35.1705 40.0958C35.2549 40.1962 35.3283 40.3053 35.3897 40.4212Z" fill="#E0E0E0"/>
<path d="M35.6274 42.498C35.2997 42.6129 34.9605 42.6921 34.6158 42.7341C34.2748 42.8052 33.9272 42.8397 33.5789 42.8369C33.9157 42.7523 34.2575 42.6892 34.6023 42.6481C34.9407 42.5778 35.283 42.5277 35.6274 42.498Z" fill="#E0E0E0"/>
<path d="M31.7918 28.6645C31.78 28.6645 31.8609 28.5633 31.93 28.3846C32.0156 28.1508 32.0411 27.8992 32.0042 27.6529C31.9624 27.4047 31.8893 27.1628 31.7867 26.933C31.737 26.8389 31.6985 26.7393 31.6721 26.6362C31.7425 26.7171 31.7994 26.8087 31.8407 26.9077C31.9633 27.1361 32.0471 27.3834 32.0885 27.6394C32.1293 27.9008 32.0936 28.1684 31.9857 28.4099C31.948 28.5123 31.8804 28.601 31.7918 28.6645Z" fill="#E0E0E0"/>
<path d="M34.3579 27.2788C34.4781 27.4443 34.564 27.6322 34.6106 27.8314C34.6572 28.0306 34.6636 28.2371 34.6293 28.4388C34.604 28.4388 34.6006 28.1707 34.5248 27.852C34.4489 27.5334 34.3393 27.2923 34.3579 27.2788Z" fill="#E0E0E0"/>
<path d="M45.9323 40.4616L52.3222 29.2379L53.0927 27.2905C53.0927 27.2905 55.0856 23.0081 55.2238 22.5697C55.384 22.0639 55.6656 22.0235 55.8477 22.0943C56.1309 22.2072 56.222 22.6287 56.0972 23.0654C56.0534 23.2155 55.2795 25.5691 55.2795 25.5691C55.4876 25.3897 55.7085 25.2258 55.9404 25.0785C56.431 24.7413 57.3297 24.7582 58.1625 25.0549C58.9954 25.3516 59.2011 25.5084 59.1017 25.8355C59.0797 25.8969 59.0442 25.9526 58.9978 25.9984C58.9514 26.0442 58.8952 26.079 58.8336 26.1002C58.6375 26.1821 58.4177 26.1869 58.2182 26.1137C56.8795 25.6585 56.286 26.2621 56.286 26.2621L56.1866 26.5167C56.1866 26.5167 57.1982 26.1946 57.7647 26.6499C57.8492 26.7167 57.9202 26.7991 57.9737 26.8926C58.157 26.9525 58.3216 27.0592 58.451 27.2022C58.5804 27.3452 58.6703 27.5195 58.7116 27.7079C58.753 27.8962 58.7445 28.0922 58.6869 28.2762C58.6294 28.4603 58.5247 28.6261 58.3834 28.7574C58.322 28.8274 58.2407 28.8771 58.1504 28.9C58.0601 28.9229 57.965 28.9178 57.8776 28.8855C57.7959 28.8298 57.7302 28.7537 57.6871 28.6646C57.6596 28.6201 57.6286 28.5778 57.5944 28.5382L57.2133 29.2126C57.2133 29.2126 56.2742 30.6794 55.937 31.3656L51.5366 43.0884C51.3919 43.4743 51.1718 43.8275 50.8891 44.1274C50.6064 44.4273 50.2667 44.6678 49.89 44.835C49.5133 45.0022 49.1071 45.0926 48.695 45.101C48.283 45.1094 47.8734 45.0356 47.4902 44.884C47.0766 44.7207 46.703 44.4705 46.3946 44.1504C46.0861 43.8302 45.85 43.4475 45.7023 43.0282C45.5546 42.6089 45.4987 42.1627 45.5384 41.7199C45.5781 41.2771 45.7124 40.848 45.9323 40.4616Z" fill="#FFBE9D"/>
<path d="M52.7623 29.1989C52.9882 29.3473 53.3001 29.2461 53.5024 29.0708C53.7047 28.8954 53.8396 28.6543 54.0352 28.4638C54.6034 27.8956 55.5526 27.8417 56.0972 27.2465C56.173 27.1639 56.2405 27.0374 56.1747 26.9464C56.109 26.8554 55.9876 26.8722 55.8864 26.8924L53.2714 27.41" fill="#FFBE9D"/>
<path d="M53.2714 27.41C53.3596 27.3701 53.4525 27.3418 53.5479 27.3257C53.7283 27.2802 53.9913 27.2212 54.3151 27.1571L55.4548 26.916L55.792 26.8469C55.9219 26.7994 56.0652 26.8042 56.1916 26.8604C56.2277 26.8872 56.255 26.9241 56.27 26.9664C56.285 27.0088 56.2871 27.0546 56.2759 27.0981C56.2585 27.1695 56.2237 27.2356 56.1747 27.2903C56.0866 27.3879 55.9876 27.475 55.8797 27.55C55.4447 27.8518 54.9675 27.9749 54.5865 28.1755C54.4047 28.2614 54.2375 28.3752 54.0908 28.5127C53.9559 28.6425 53.8497 28.7909 53.7384 28.9173C53.6584 29.0289 53.5548 29.1216 53.4351 29.1888C53.3154 29.2561 53.1824 29.2964 53.0455 29.3068C52.8449 29.3068 52.7623 29.2073 52.769 29.2056C52.8568 29.2357 52.9493 29.25 53.0421 29.2478C53.1665 29.2272 53.2852 29.1811 53.3908 29.1123C53.4965 29.0435 53.5867 28.9536 53.6558 28.8482C53.7638 28.7009 53.8792 28.559 54.0015 28.4233C54.1543 28.2718 54.3301 28.1455 54.5224 28.049C54.9153 27.8366 55.3907 27.7118 55.792 27.4252C55.8887 27.3565 55.978 27.278 56.0584 27.1909C56.1326 27.1082 56.1579 27.0088 56.1056 26.9801C56.0533 26.9514 55.937 26.9649 55.8207 26.9885L55.4835 27.0509L54.337 27.2617C54.0099 27.319 53.7452 27.3628 53.5614 27.3898C53.4664 27.4117 53.3686 27.4185 53.2714 27.41Z" fill="#EB996E"/>
<path d="M56.1512 26.52C56.2181 26.3635 56.3209 26.2249 56.4513 26.1153C56.5972 26.0059 56.7747 25.9467 56.9571 25.9467C57.1863 25.9481 57.4139 25.9857 57.6315 26.058C57.8537 26.133 58.0831 26.185 58.316 26.2131C58.5115 26.2356 58.7094 26.2053 58.8892 26.1255C58.9511 26.0969 59.0054 26.0543 59.0479 26.001C59.0903 25.9477 59.1197 25.8853 59.1337 25.8186C59.1464 25.7717 59.1464 25.7222 59.1337 25.6753C59.1236 25.6753 59.1236 25.7259 59.0983 25.8102C59.0798 25.867 59.049 25.9191 59.0083 25.9628C58.9675 26.0064 58.9177 26.0407 58.8622 26.0631C58.6906 26.1269 58.506 26.1477 58.3244 26.1238C58.0983 26.0882 57.8759 26.0318 57.6601 25.9552C57.435 25.8811 57.1991 25.8446 56.9621 25.8473C56.7631 25.8519 56.5713 25.9231 56.4175 26.0496C56.3156 26.1345 56.2372 26.2442 56.1899 26.3682C56.1478 26.4677 56.1444 26.5183 56.1512 26.52Z" fill="#EB996E"/>
<path d="M56.1427 22.897C56.0765 23.0478 56.0235 23.2041 55.9842 23.364C55.8847 23.6877 55.7667 24.0721 55.6352 24.497C55.5037 24.9219 55.3739 25.3029 55.2693 25.6249C55.2083 25.7777 55.1615 25.9357 55.1294 26.097C55.2132 25.955 55.2821 25.8047 55.3351 25.6485C55.4464 25.3653 55.588 24.9741 55.7296 24.5273C55.8712 24.0805 55.9808 23.6843 56.0516 23.3825C56.099 23.2243 56.1295 23.0616 56.1427 22.897Z" fill="#EB996E"/>
<path d="M56.5119 27.2247C56.5633 27.2321 56.6156 27.2321 56.667 27.2247C56.7317 27.2137 56.798 27.2167 56.8614 27.2335C56.9249 27.2504 56.9839 27.2808 57.0346 27.3225C57.0639 27.3534 57.0847 27.3914 57.095 27.4328C57.1054 27.4741 57.1049 27.5174 57.0936 27.5585C57.0663 27.6621 57.0261 27.7618 56.9739 27.8553C56.9063 27.9725 56.8841 28.1105 56.9115 28.2431C56.9345 28.3133 56.9736 28.3771 57.0257 28.4295C57.0778 28.4819 57.1415 28.5214 57.2116 28.5448C57.2808 28.5668 57.3537 28.5743 57.4259 28.5671C57.498 28.5599 57.568 28.5379 57.6314 28.5027C57.7494 28.4424 57.8464 28.3478 57.9096 28.2313C58.0008 28.0391 58.0633 27.8346 58.0951 27.6243C58.1196 27.4832 58.1196 27.3389 58.0951 27.1977C58.0898 27.1447 58.0693 27.0944 58.036 27.0527C58.0276 27.0527 58.0495 27.1067 58.058 27.2028C58.0652 27.3403 58.0533 27.4782 58.0226 27.6125C57.9826 27.8118 57.9168 28.0051 57.827 28.1874C57.7721 28.2901 57.6848 28.3717 57.5786 28.4196C57.4725 28.4675 57.3536 28.4789 57.2403 28.4521C57.1847 28.4342 57.1341 28.4035 57.0926 28.3625C57.051 28.3215 57.0196 28.2714 57.0008 28.2161C56.9788 28.1059 56.9974 27.9916 57.0531 27.8941C57.1055 27.792 57.1452 27.6838 57.1711 27.572C57.1824 27.5185 57.1798 27.463 57.1636 27.4107C57.1474 27.3585 57.118 27.3113 57.0784 27.2736C57.0198 27.2272 56.9512 27.1951 56.878 27.1799C56.8048 27.1647 56.7291 27.1668 56.6569 27.1859C56.6068 27.1909 56.5578 27.204 56.5119 27.2247Z" fill="#EB996E"/>
<path d="M57.6146 28.405C57.6146 28.405 57.5826 28.4488 57.5859 28.5433C57.5907 28.6095 57.6109 28.6737 57.6448 28.7308C57.6788 28.7879 57.7256 28.8362 57.7815 28.872C57.8679 28.9217 57.9659 28.9479 58.0656 28.9479C58.1653 28.9479 58.2633 28.9217 58.3497 28.872C58.5577 28.7521 58.7111 28.5563 58.7779 28.3258C58.8514 28.1 58.8514 27.8569 58.7779 27.6311C58.7181 27.4487 58.6104 27.2856 58.466 27.159C58.3709 27.0739 58.2605 27.0075 58.1406 26.9635C58.098 26.943 58.0513 26.9326 58.0041 26.9331C58.1543 27.0059 58.2939 27.0989 58.4188 27.2096C58.5603 27.3476 58.6602 27.5225 58.7073 27.7144C58.7544 27.9063 58.7467 28.1076 58.6852 28.2954C58.6249 28.5026 58.4897 28.6799 58.3059 28.7928C58.2324 28.8359 58.1492 28.8597 58.064 28.8621C57.9788 28.8645 57.8944 28.8452 57.8186 28.8063C57.7684 28.777 57.725 28.7373 57.6912 28.6899C57.6575 28.6425 57.6343 28.5885 57.623 28.5315C57.6062 28.4573 57.623 28.405 57.6146 28.405Z" fill="#EB996E"/>
<path d="M55.4868 29.4639C55.4201 29.4188 55.3414 29.3948 55.2609 29.3948C55.0552 29.3748 54.8487 29.424 54.6742 29.5348L54.7467 29.5837C54.7695 29.4723 54.7852 29.3597 54.7939 29.2464C54.8529 28.5957 54.6455 28.0932 54.6253 28.1067C54.6902 28.4801 54.7145 28.8594 54.6978 29.238C54.6896 29.346 54.6755 29.4535 54.6557 29.56L54.6354 29.6696L54.7281 29.6073C54.8861 29.5041 55.0706 29.4491 55.2592 29.4488C55.3992 29.4521 55.4835 29.4757 55.4868 29.4639Z" fill="#EB996E"/>
<path d="M56.8171 25.4643C56.7901 25.4643 56.8272 25.6667 57.0059 25.8218C57.1847 25.9769 57.3853 25.9904 57.3853 25.9617C57.3853 25.933 57.2251 25.8841 57.0717 25.7476C56.9183 25.611 56.8441 25.4542 56.8171 25.4643Z" fill="#EB996E"/>
<path d="M36.8683 49.7749L43.5533 49.8407L42.4322 44.99L42.8081 45.9055C43.1547 46.7508 43.7448 47.4739 44.5035 47.9827C45.2622 48.4916 46.1551 48.7633 47.0687 48.7633C49.1829 48.7633 50.6447 47.1903 51.5383 45.275C53.6289 40.7969 55.6437 33.5859 55.6437 33.5859L51.5686 30.0048C48.6181 35.5855 45.8463 40.4311 45.8463 40.4311C45.8463 40.4311 45.0455 37.9982 44.4267 35.8266C43.8079 33.655 43.813 32.5153 42.8638 31.4329C41.402 29.7671 39.3232 29.354 37.3876 28.855L37.3151 37.865L36.8683 49.7749Z" fill="#4ECDC4"/>
<path d="M29.2189 43.0733L41.3919 45.4337L41.9837 50.1107H23.3196C22.8087 50.117 22.3021 50.0166 21.8322 49.8162C21.3622 49.6157 20.9392 49.3194 20.5902 48.9462C20.2411 48.5731 19.9737 48.1313 19.8051 47.649C19.6364 47.1667 19.5701 46.6545 19.6104 46.1452C19.8785 42.7361 20.1702 38.538 20.3927 36.7626C20.5613 35.3784 21.1177 33.947 21.7702 32.7162C22.7127 30.9425 25.8537 28.6698 28.6069 28.5518L29.1279 40.1464" fill="#4ECDC4"/>
<g opacity="0.4">
<path d="M36.8683 49.7749L43.5533 49.8407L42.4321 44.99L42.808 45.9055C43.1546 46.7508 43.7448 47.4739 44.5034 47.9827C45.2621 48.4916 46.155 48.7633 47.0686 48.7633C49.1828 48.7633 50.6446 47.1903 51.5382 45.275C53.6288 40.7969 55.6436 33.5859 55.6436 33.5859L51.5685 30.0048C48.618 35.5855 45.8462 40.4311 45.8462 40.4311C45.8462 40.4311 45.0454 37.9982 44.4266 35.8266C43.8078 33.655 43.8129 32.5153 42.8637 31.4329C41.4019 29.7671 39.3231 29.354 37.3875 28.855L37.315 37.865L36.8683 49.7749Z" fill="black"/>
<path d="M29.2189 43.0729L40.1982 45.086C40.4219 45.1274 40.6283 45.2343 40.7913 45.3931C40.9542 45.5518 41.0664 45.7554 41.1137 45.9779L41.9837 50.1204H23.3196C22.8087 50.1267 22.3021 50.0264 21.8322 49.8259C21.3622 49.6254 20.9392 49.3292 20.5902 48.956C20.2411 48.5829 19.9737 48.141 19.8051 47.6588C19.6364 47.1765 19.5701 46.6643 19.6104 46.155C19.8785 42.7459 20.1702 38.5477 20.3927 36.7724C20.5613 35.3881 21.1177 33.9567 21.7702 32.726C22.7127 30.9523 25.8537 28.6795 28.6069 28.5615L29.1279 40.1562" fill="black"/>
</g>
<path d="M26.9007 42.726C26.8963 42.689 26.8963 42.6516 26.9007 42.6147C26.9007 42.5321 26.9007 42.4258 26.9007 42.296C26.9007 42.0077 26.9007 41.6098 26.9007 41.1158C26.9007 40.1261 26.8821 38.7554 26.8062 37.2498C26.7675 36.4945 26.7186 35.7763 26.6663 35.1255C26.6418 34.5478 26.5599 33.9739 26.4218 33.4125C26.3254 33.0377 26.1417 32.6911 25.8857 32.4009C25.7865 32.2996 25.6818 32.2039 25.5721 32.1143C25.7008 32.1805 25.8176 32.2677 25.9177 32.3722C26.1907 32.6603 26.3872 33.0121 26.4893 33.3956C26.6365 33.9616 26.7247 34.5413 26.7523 35.1255C26.8096 35.7779 26.8602 36.4962 26.899 37.2515C26.9765 38.7689 26.985 40.1329 26.9681 41.1293C26.958 41.625 26.9445 42.0263 26.9327 42.3095L26.9141 42.6282C26.9135 42.6612 26.909 42.694 26.9007 42.726Z" fill="#263238"/>
<path d="M41.1558 45.771C41.0274 45.6291 40.8779 45.508 40.7124 45.4119C40.5157 45.3047 40.3068 45.2215 40.0903 45.164C39.8391 45.0915 39.544 45.0359 39.2186 44.9701C37.917 44.7038 36.1214 44.3345 34.132 43.9585C32.1425 43.5826 30.3317 43.2841 29.0217 43.0751L27.4689 42.8272L27.0474 42.7564C26.9977 42.7503 26.9487 42.7402 26.9007 42.7261C26.9504 42.7263 27.0001 42.7308 27.0491 42.7396L27.4739 42.7935C27.8415 42.8424 28.3743 42.9166 29.0301 43.0144C30.3435 43.21 32.156 43.4999 34.1471 43.8726C36.1383 44.2452 37.9339 44.6228 39.2304 44.9027C39.5558 44.9735 39.8509 45.0342 40.1038 45.1118C40.3227 45.1737 40.5329 45.2632 40.7293 45.3782C40.8554 45.4494 40.9693 45.5405 41.0665 45.6479C41.0924 45.6746 41.1161 45.7033 41.1373 45.7339C41.1491 45.7541 41.1575 45.771 41.1558 45.771Z" fill="#263238"/>
<path d="M26.9378 42.7261C26.9378 42.7412 26.7135 42.7935 26.3662 42.9351C26.1634 43.0189 25.9663 43.1158 25.7761 43.2251C25.5461 43.3623 25.3268 43.5167 25.1203 43.6871C24.9194 43.8612 24.7322 44.0506 24.5605 44.2536C24.4192 44.4209 24.2897 44.5978 24.1727 44.783C23.9738 45.1017 23.8827 45.3175 23.8676 45.3107C23.878 45.2564 23.8956 45.2037 23.9198 45.1539C23.9773 45.0154 24.0437 44.8808 24.1188 44.751C24.2313 44.5585 24.3581 44.3748 24.4981 44.2013C24.8442 43.7767 25.2676 43.4215 25.7458 43.1543C25.9395 43.045 26.1419 42.9519 26.351 42.8761C26.4917 42.8236 26.6359 42.7814 26.7826 42.7497C26.833 42.7346 26.8852 42.7266 26.9378 42.7261Z" fill="#263238"/>
<path d="M42.6564 45.6393C42.6448 45.6013 42.6363 45.5624 42.6311 45.523C42.6176 45.4387 42.599 45.3274 42.5771 45.1858C42.5299 44.8941 42.4675 44.4726 42.3967 43.95C42.2551 42.9063 42.0831 41.4597 41.9381 39.858C41.7931 38.2563 41.7071 36.803 41.6599 35.7492C41.6363 35.2232 41.6228 34.7967 41.6161 34.5016C41.6161 34.3611 41.6161 34.2487 41.6161 34.1644C41.6124 34.1252 41.6124 34.0856 41.6161 34.0464C41.6252 34.0851 41.6297 34.1247 41.6296 34.1644L41.6515 34.5016C41.6701 34.8051 41.6937 35.2283 41.724 35.7459C41.7864 36.7979 41.8842 38.2496 42.0275 39.8496C42.1708 41.4496 42.3343 42.8962 42.4608 43.9415C42.5232 44.4574 42.5754 44.8773 42.6125 45.1807C42.6277 45.3207 42.6412 45.432 42.6513 45.5179C42.6581 45.558 42.6598 45.5988 42.6564 45.6393Z" fill="#263238"/>
<path d="M46.6926 43.8266C46.6926 43.8266 46.6539 43.7896 46.5949 43.7154C46.5131 43.6078 46.4382 43.4951 46.3706 43.3782C45.9182 42.6059 45.7096 41.715 45.7721 40.8222C45.7806 40.6879 45.7986 40.5544 45.826 40.4226C45.832 40.3734 45.8445 40.3252 45.8631 40.2793C45.8783 40.2793 45.8463 40.4884 45.8345 40.8256C45.8063 41.7057 46.0098 42.5778 46.4246 43.3546C46.583 43.6462 46.7061 43.8165 46.6926 43.8266Z" fill="#263238"/>
<path d="M26.8518 36.4607C26.8518 36.4607 26.8298 36.4691 26.7894 36.4741C26.7285 36.4839 26.6672 36.4901 26.6056 36.4927C26.3794 36.5022 26.153 36.4841 25.9312 36.4387C25.6018 36.3725 25.2803 36.2719 24.9719 36.1386C24.6229 35.9936 24.2519 35.8014 23.8642 35.6143C23.5012 35.432 23.1253 35.2764 22.7396 35.1489C22.4266 35.0438 22.1013 34.9798 21.7718 34.9584C21.4666 34.9485 21.1616 34.9831 20.8665 35.0613C20.8846 35.0492 20.9045 35.0401 20.9255 35.0343C20.9801 35.0104 21.0365 34.9907 21.0941 34.9753C21.3138 34.9164 21.5411 34.8903 21.7685 34.8977C22.1051 34.9083 22.4387 34.965 22.7598 35.0663C23.1505 35.192 23.5305 35.3488 23.8962 35.535C24.2857 35.7272 24.6532 35.9161 24.9972 36.0628C25.2999 36.1973 25.615 36.3023 25.9379 36.3764C26.2386 36.4378 26.545 36.4661 26.8518 36.4607Z" fill="#FAFAFA"/>
<path d="M28.9441 36.0508C28.6202 36.1494 28.2886 36.2204 27.9528 36.2632C27.62 36.3357 27.2815 36.378 26.9412 36.3897C27.265 36.2911 27.5967 36.22 27.9325 36.1772C28.2652 36.1047 28.6038 36.0624 28.9441 36.0508Z" fill="#FAFAFA"/>
<path d="M26.7759 39.6689C26.6983 39.7127 26.6164 39.7483 26.5314 39.7752C26.3713 39.8375 26.1369 39.9218 25.8452 40.0163C25.0825 40.261 24.304 40.4536 23.5152 40.5929C23.0532 40.6738 22.6098 40.7328 22.2052 40.7733C21.8463 40.8196 21.4836 40.8293 21.1227 40.8019C20.878 40.7822 20.6396 40.714 20.4214 40.6013C20.362 40.5705 20.3056 40.5344 20.2528 40.4934C20.2333 40.4801 20.2157 40.4642 20.2005 40.4462C20.2005 40.4462 20.2814 40.4985 20.4349 40.571C20.6534 40.6696 20.8884 40.7268 21.1278 40.7396C21.4842 40.758 21.8416 40.7422 22.195 40.6923C22.598 40.6468 23.038 40.5861 23.4983 40.5052C24.2835 40.366 25.0602 40.183 25.825 39.9573C26.1184 39.8696 26.3544 39.7887 26.5179 39.7431C26.602 39.7121 26.6882 39.6873 26.7759 39.6689Z" fill="#FAFAFA"/>
<path d="M28.8885 40.5579C28.5847 40.6061 28.2771 40.6259 27.9696 40.6169C27.6631 40.6362 27.3554 40.6266 27.0507 40.5882C27.3545 40.54 27.6621 40.5202 27.9696 40.5292C28.2761 40.5099 28.5838 40.5195 28.8885 40.5579Z" fill="#FAFAFA"/>
<path d="M20.2123 48.2391C20.2142 48.208 20.2205 48.1774 20.2308 48.148C20.2477 48.0806 20.2713 47.998 20.2983 47.8951L20.3488 47.713C20.3708 47.6473 20.3994 47.5781 20.4264 47.5023C20.487 47.3301 20.5568 47.1612 20.6355 46.9965L20.772 46.7082C20.8209 46.607 20.8833 46.5092 20.9406 46.4047C21.0678 46.1836 21.2062 45.9692 21.3554 45.7623C22.0442 44.81 22.9422 44.0285 23.9805 43.4778C24.2063 43.3585 24.4381 43.251 24.6751 43.1558C24.7881 43.1136 24.8926 43.0647 24.9988 43.031L25.304 42.9349C25.4788 42.8792 25.6567 42.8336 25.8368 42.7983C25.916 42.7815 25.9885 42.7629 26.056 42.7511L26.2448 42.7258L26.5044 42.6938C26.5346 42.6893 26.5653 42.6893 26.5955 42.6938C26.5667 42.7048 26.5367 42.7122 26.5061 42.7157L26.2499 42.7646L26.0644 42.7966L25.8469 42.8506C25.6918 42.8927 25.5097 42.9281 25.3226 42.999L25.0224 43.1001C24.9179 43.1355 24.8134 43.1844 24.7038 43.2283C24.4703 43.3251 24.2418 43.4337 24.0193 43.5536C23.5123 43.8341 23.0349 44.1651 22.5946 44.5416C22.1597 44.9255 21.7643 45.3519 21.4144 45.8146C21.2627 46.0338 21.1126 46.2395 20.998 46.4468C20.9389 46.5497 20.8766 46.6458 20.8294 46.7453L20.6877 47.0285C20.5916 47.2072 20.5326 47.3792 20.4686 47.5343C20.4399 47.6085 20.4095 47.6776 20.3859 47.7417L20.3269 47.9204L20.2443 48.1682C20.2362 48.1929 20.2255 48.2167 20.2123 48.2391Z" fill="#FAFAFA"/>
<path d="M28.6676 43.0596C28.3856 43.3045 28.1512 43.5995 27.9763 43.9295C27.7924 44.2904 27.6618 44.676 27.5885 45.0743C27.5013 45.5643 27.445 46.0593 27.4199 46.5563C27.3989 47.0571 27.3426 47.5557 27.2513 48.0484C27.1688 48.4524 27.0261 48.8417 26.8282 49.2034C26.6959 49.4458 26.5251 49.665 26.3224 49.8525C26.2671 49.9037 26.2079 49.9505 26.1453 49.9924C26.1032 50.0211 26.0796 50.0362 26.0779 50.0329C26.365 49.7933 26.6041 49.5016 26.7826 49.173C26.9694 48.8142 27.1034 48.4304 27.1805 48.0333C27.2703 47.5437 27.3266 47.0485 27.3491 46.5513C27.371 46.0501 27.4274 45.551 27.5177 45.0575C27.5962 44.6535 27.7349 44.2637 27.9291 43.9009C28.0616 43.6562 28.2324 43.4342 28.4349 43.2433C28.488 43.1925 28.5443 43.1452 28.6035 43.1017C28.623 43.085 28.6445 43.0708 28.6676 43.0596Z" fill="#FAFAFA"/>
<path d="M31.5456 50.1394C31.522 50.1394 31.5456 48.686 31.608 46.8955C31.6704 45.105 31.7344 43.6533 31.758 43.6533C31.7817 43.6533 31.758 45.1067 31.6957 46.8989C31.6333 48.6911 31.5692 50.1411 31.5456 50.1394Z" fill="#FAFAFA"/>
<path d="M36.1214 49.8895C36.0897 49.8219 36.0648 49.7513 36.0472 49.6788C36.0199 49.5957 35.9968 49.5113 35.9781 49.4259C35.9562 49.3264 35.9258 49.2134 35.9073 49.0887C35.8548 48.7912 35.825 48.4903 35.8179 48.1883C35.8013 47.4464 35.9155 46.7073 36.1551 46.005C36.2528 45.7189 36.3717 45.4405 36.5109 45.1721C36.5665 45.0557 36.6289 44.958 36.6795 44.8703C36.7223 44.794 36.7696 44.7202 36.8211 44.6494C36.8587 44.5851 36.9034 44.5251 36.9543 44.4707C36.9695 44.4791 36.7857 44.7405 36.5648 45.2007C36.4338 45.4693 36.3211 45.7464 36.2276 46.0303C35.9967 46.7254 35.8827 47.4541 35.8904 48.1866C35.8942 48.4851 35.9173 48.783 35.9595 49.0785C36.0438 49.581 36.1383 49.8845 36.1214 49.8895Z" fill="#FAFAFA"/>
<path d="M28.3507 31.2558C28.3507 31.2692 28.0843 31.1529 27.6459 31.0113C26.5041 30.6427 25.2941 30.5355 24.1053 30.6977C23.6501 30.7601 23.3719 30.8309 23.3685 30.8157C23.429 30.7865 23.4931 30.7656 23.559 30.7533C23.7354 30.7045 23.9144 30.6657 24.0952 30.637C25.293 30.438 26.5217 30.5465 27.6662 30.9523C27.8381 31.0129 28.0069 31.0821 28.172 31.1596C28.2353 31.1842 28.2953 31.2165 28.3507 31.2558Z" fill="#FAFAFA"/>
<path d="M41.6701 38.3521C41.4616 38.363 41.2526 38.3596 41.0446 38.342C40.6585 38.3269 40.1257 38.3066 39.5373 38.2931C38.9489 38.2796 38.4161 38.2712 38.03 38.2678C37.8212 38.2745 37.6123 38.2672 37.4045 38.2459C37.4597 38.2329 37.5163 38.2261 37.5731 38.2257C37.681 38.2257 37.8378 38.2105 38.0317 38.2055C38.4178 38.1937 38.9505 38.1903 39.5406 38.2055C40.1307 38.2206 40.6635 38.251 41.058 38.283C41.2503 38.2982 41.4054 38.3117 41.5133 38.3252C41.5663 38.3285 41.6189 38.3376 41.6701 38.3521Z" fill="#FAFAFA"/>
<path d="M44.9982 37.7134C44.9982 37.7286 44.7875 37.8011 44.4587 37.9629C43.5987 38.386 42.8701 39.0353 42.3512 39.8411C42.1523 40.1497 42.0562 40.3553 42.0427 40.3469C42.052 40.2937 42.0703 40.2424 42.0966 40.1952C42.1557 40.0612 42.2233 39.9311 42.2989 39.8057C42.5462 39.3888 42.8568 39.0129 43.2195 38.6913C43.5812 38.3687 43.99 38.1032 44.4317 37.9039C44.565 37.8439 44.7018 37.7921 44.8414 37.7488C44.8919 37.7302 44.9446 37.7183 44.9982 37.7134Z" fill="#FAFAFA"/>
<path d="M43.3561 32.3098C43.0658 32.2998 42.776 32.3403 42.4996 32.4295C42.2012 32.5337 41.9119 32.6622 41.6346 32.8139C41.2924 33.0036 40.9348 33.1643 40.5657 33.2944C39.8835 33.513 39.1579 33.5599 38.4532 33.431C38.2414 33.3925 38.0332 33.3361 37.831 33.2624C37.7554 33.2387 37.6825 33.207 37.6135 33.1679C37.6135 33.1511 37.9305 33.2843 38.4565 33.3703C39.1514 33.4788 39.862 33.4239 40.532 33.2101C40.8969 33.081 41.2514 32.9243 41.5925 32.7414C41.8747 32.5916 42.1698 32.4675 42.4743 32.3705C42.6813 32.3047 42.8978 32.2734 43.1149 32.2777C43.1715 32.2794 43.2278 32.285 43.2835 32.2946C43.3358 32.3013 43.3577 32.3064 43.3561 32.3098Z" fill="#FAFAFA"/>
<path d="M42.5148 43.6091C42.4536 43.6479 42.388 43.6791 42.3192 43.7018C42.2551 43.7288 42.1759 43.7608 42.0815 43.7912C41.9871 43.8215 41.8808 43.862 41.7611 43.8923C41.4788 43.971 41.1916 44.0307 40.9013 44.0711C40.5458 44.1171 40.1873 44.1357 39.829 44.1267C39.4707 44.1134 39.114 44.0734 38.7617 44.007C38.4758 43.9492 38.1942 43.8721 37.9187 43.776C37.799 43.7389 37.6962 43.6934 37.6051 43.6563C37.5141 43.6192 37.4365 43.5838 37.3725 43.5535C37.3054 43.5256 37.2415 43.4905 37.1819 43.4489C37.1819 43.4337 37.4669 43.5686 37.939 43.717C38.2154 43.804 38.4969 43.8738 38.782 43.9261C39.4793 44.0552 40.1923 44.0768 40.8962 43.9901C41.1836 43.9548 41.4685 43.9019 41.7493 43.8316C42.2248 43.7103 42.5097 43.5939 42.5148 43.6091Z" fill="#FAFAFA"/>
<path d="M46.3891 48.6C46.3651 48.5848 46.343 48.5667 46.3234 48.546C46.2846 48.5073 46.2205 48.455 46.1548 48.3774C45.9512 48.1597 45.7725 47.9199 45.622 47.6626C45.1355 46.8004 44.8767 45.8285 44.8701 44.8385C44.8712 43.8555 44.9998 42.8767 45.2528 41.9268C45.3438 41.5626 45.4214 41.2693 45.4838 41.0686C45.5124 40.9759 45.536 40.9 45.5546 40.8376C45.5731 40.7753 45.5816 40.7567 45.5849 40.7584C45.5846 40.7865 45.58 40.8143 45.5714 40.841C45.5579 40.9051 45.5394 40.9826 45.5175 41.0771C45.4669 41.2946 45.3978 41.5829 45.3135 41.942C45.0807 42.8888 44.9624 43.8601 44.9611 44.8352C44.9665 45.8093 45.2102 46.7672 45.6709 47.6255C45.8154 47.8826 45.9848 48.1249 46.1767 48.3488C46.3099 48.5106 46.3942 48.5933 46.3891 48.6Z" fill="#FAFAFA"/>
<path d="M52.5245 42.8741C52.2552 42.6605 51.9543 42.4898 51.6327 42.3683C51.2808 42.2466 50.92 42.1525 50.5536 42.0868C50.0984 42.01 49.6481 41.907 49.2048 41.7782C48.4044 41.5179 47.6738 41.0786 47.0686 40.4935C46.8861 40.317 46.717 40.1271 46.5628 39.9253C46.5072 39.8545 46.4701 39.7955 46.4431 39.7567C46.4162 39.7179 46.4044 39.696 46.4077 39.6943C46.4729 39.76 46.5337 39.8298 46.5898 39.9034C46.7516 40.0959 46.9256 40.2778 47.1108 40.448C47.7186 41.012 48.4417 41.4371 49.2301 41.6939C49.6688 41.8219 50.114 41.9266 50.5637 42.0075C50.9333 42.0784 51.2964 42.1793 51.6495 42.3093C51.888 42.3995 52.1119 42.5245 52.3138 42.6802C52.369 42.7217 52.4208 42.7673 52.4689 42.8168C52.5111 42.8539 52.5279 42.8725 52.5245 42.8741Z" fill="#FAFAFA"/>
<path d="M54.4533 37.2478C54.3884 37.2014 54.328 37.1489 54.2729 37.091C54.2173 37.0388 54.1499 36.9747 54.0656 36.9039C53.9813 36.8331 53.897 36.7488 53.7823 36.6678C53.5333 36.4669 53.272 36.2817 53 36.1131C52.3329 35.7006 51.6077 35.3903 50.8487 35.1926C50.5384 35.1127 50.2237 35.0514 49.9062 35.0088C49.7713 34.9869 49.6482 34.9785 49.5403 34.9683C49.4324 34.9582 49.338 34.9498 49.2621 34.9464C49.1824 34.9461 49.1029 34.9387 49.0244 34.9245C49.103 34.9123 49.1827 34.9084 49.2621 34.9127C49.3559 34.908 49.4499 34.908 49.5437 34.9127C49.6516 34.9127 49.7781 34.9211 49.9146 34.9397C50.2355 34.9748 50.5538 35.0311 50.8672 35.1083C51.2513 35.2067 51.6277 35.3329 51.9935 35.4859C52.3562 35.6441 52.7067 35.8289 53.0422 36.039C53.3149 36.213 53.5757 36.405 53.8228 36.6139C53.9307 36.6999 54.0184 36.7825 54.0993 36.8634C54.1684 36.9263 54.2343 36.9927 54.2965 37.0624C54.3553 37.1184 54.4079 37.1806 54.4533 37.2478Z" fill="#FAFAFA"/>
<path d="M39.7008 29.5091C39.6018 29.5752 39.494 29.6268 39.3805 29.6626C39.1145 29.7669 38.8412 29.8514 38.5628 29.9155C38.2854 29.9808 38.0037 30.0259 37.7198 30.0503C37.6024 30.0681 37.4831 30.0681 37.3657 30.0503C37.3657 30.0234 37.9002 29.9795 38.5459 29.8261C39.1917 29.6727 39.6907 29.4838 39.7008 29.5091Z" fill="#FAFAFA"/>
<path d="M45.6811 53.255C45.703 53.3302 45.7057 53.4097 45.689 53.4863C45.6722 53.5628 45.6366 53.6339 45.5852 53.6931C45.5339 53.7523 45.4686 53.7977 45.3952 53.8251C45.3218 53.8526 45.2427 53.8612 45.1651 53.8502C45.0752 53.8374 44.991 53.7987 44.9227 53.7388C44.8544 53.679 44.8051 53.6005 44.7807 53.513L44.6374 52.9836H44.6593C44.674 53.06 44.6702 53.1388 44.6483 53.2135C44.6265 53.2882 44.5871 53.3567 44.5336 53.4131C44.4801 53.4696 44.4139 53.5126 44.3404 53.5385C44.267 53.5643 44.1885 53.5723 44.1114 53.5619C43.8905 53.5619 43.7 53.2398 43.6359 53.0695C43.4692 53.0857 43.3013 53.0559 43.1503 52.9834C42.9993 52.9109 42.871 52.7984 42.7795 52.6582L41.7898 51.1138L39.9571 49.7734L41.0665 45.813L45.01 48.3656C45.1652 48.487 45.1888 48.5342 45.4349 48.7652L47.9808 51.107C47.6925 51.2756 47.448 51.2672 47.0467 51.107C46.6455 50.9469 44.8886 49.7582 44.8886 49.7582L45.6811 53.2398" fill="#FFBE9D"/>
<path d="M42.3074 49.9976C42.3074 49.9976 42.3529 50.0178 42.4237 50.0667L42.5552 50.1577C42.6177 50.1969 42.6744 50.2446 42.7238 50.2993C42.7822 50.3664 42.8279 50.4435 42.8587 50.527C42.889 50.6163 42.9211 50.7074 42.9548 50.8035L43.1706 51.4374C43.3206 51.8892 43.4522 52.2973 43.5432 52.5957C43.6008 52.754 43.6442 52.917 43.673 53.0829C43.5965 52.9325 43.5333 52.7757 43.4842 52.6142C43.378 52.3209 43.2363 51.9162 43.0863 51.4661C43.0138 51.2418 42.943 51.0277 42.8772 50.8304C42.8469 50.7327 42.8182 50.6399 42.7896 50.5522C42.7643 50.475 42.7261 50.4026 42.6766 50.3381C42.6339 50.2855 42.5852 50.2379 42.5316 50.1965L42.4102 50.0937C42.3377 50.0363 42.304 50.0026 42.3074 49.9976Z" fill="#EB996E"/>
<path d="M44.6796 53.0746C44.6544 53.0208 44.6358 52.9642 44.6239 52.906L44.4975 52.4541C44.3896 52.0731 44.2463 51.5454 44.0625 50.9705C43.8787 50.3955 43.6865 49.883 43.4555 49.566C43.3694 49.4394 43.2601 49.3302 43.1335 49.244C43.0408 49.1867 42.9817 49.1698 42.9834 49.1597C42.999 49.1593 43.0145 49.1622 43.029 49.1681C43.0709 49.1789 43.1116 49.1942 43.1504 49.2137C43.2904 49.2918 43.4117 49.3993 43.5061 49.5289C43.7573 49.8493 43.9596 50.3719 44.1451 50.9435C44.3306 51.515 44.4654 52.0529 44.5565 52.439C44.602 52.6312 44.6357 52.788 44.6576 52.8976C44.6738 52.9551 44.6812 53.0148 44.6796 53.0746Z" fill="#EB996E"/>
<path d="M45.6979 53.3141C45.6675 53.2583 45.6442 53.1988 45.6288 53.1371C45.5866 53.0022 45.5344 52.8387 45.472 52.6448C45.3438 52.2284 45.1736 51.6517 44.9898 51.0144C44.806 50.3771 44.6526 49.8174 44.5261 49.379C44.4826 49.2165 44.388 49.0723 44.2564 48.9676C44.203 48.9332 44.1466 48.9039 44.0878 48.88C44.1044 48.876 44.1217 48.876 44.1383 48.88C44.1857 48.8906 44.2307 48.9094 44.2715 48.9356C44.4188 49.0368 44.5275 49.1847 44.5801 49.3554C44.7183 49.7719 44.8819 50.3485 45.069 50.9858C45.2562 51.6231 45.4146 52.2048 45.5276 52.6246C45.5782 52.8201 45.622 52.9871 45.6557 53.1304C45.6762 53.19 45.6903 53.2516 45.6979 53.3141Z" fill="#EB996E"/>
<path d="M69.6559 16.7522C69.6559 16.8689 69.6905 16.983 69.7553 17.0801C69.8202 17.1771 69.9123 17.2527 70.0202 17.2974C70.128 17.3421 70.2466 17.3537 70.3611 17.331C70.4756 17.3082 70.5807 17.252 70.6633 17.1695C70.7458 17.0869 70.802 16.9818 70.8247 16.8673C70.8475 16.7529 70.8358 16.6342 70.7912 16.5264C70.7465 16.4186 70.6709 16.3264 70.5738 16.2616C70.4768 16.1967 70.3627 16.1621 70.246 16.1621C70.0895 16.1621 69.9394 16.2243 69.8287 16.3349C69.7181 16.4456 69.6559 16.5957 69.6559 16.7522Z" fill="#455A64"/>
<path d="M67.8839 17.3423C68.2098 17.3423 68.474 17.0781 68.474 16.7522C68.474 16.4263 68.2098 16.1621 67.8839 16.1621C67.558 16.1621 67.2938 16.4263 67.2938 16.7522C67.2938 17.0781 67.558 17.3423 67.8839 17.3423Z" fill="#455A64"/>
<path d="M64.9384 16.4576C64.88 16.5586 64.8529 16.6747 64.8605 16.7912C64.8681 16.9077 64.9101 17.0193 64.9811 17.1119C65.0521 17.2045 65.149 17.274 65.2595 17.3116C65.3701 17.3491 65.4892 17.353 65.602 17.3228C65.7147 17.2927 65.816 17.2297 65.893 17.1419C65.9699 17.0542 66.0192 16.9456 66.0344 16.8299C66.0496 16.7141 66.0302 16.5965 65.9786 16.4918C65.927 16.3871 65.8454 16.3001 65.7443 16.2418C65.6773 16.2028 65.6032 16.1775 65.5264 16.1673C65.4495 16.157 65.3714 16.1621 65.2965 16.1821C65.2216 16.2022 65.1515 16.2368 65.09 16.2841C65.0285 16.3314 64.977 16.3903 64.9384 16.4576Z" fill="#455A64"/>
<path d="M67.8468 9.85825C67.8075 9.8553 67.7681 9.8553 67.7288 9.85825L67.3781 9.86836C67.3005 9.86836 67.2095 9.86836 67.1184 9.88017L66.8099 9.924L66.4491 9.97627L66.0445 10.0757C65.3513 10.2478 64.6912 10.5326 64.0904 10.9187C63.2018 11.4845 62.4543 12.2459 61.905 13.1448C61.3556 14.0436 61.019 15.0561 60.9207 16.1049C60.8942 16.4194 60.888 16.7354 60.9022 17.0507C60.914 17.2092 60.9106 17.3728 60.9342 17.5329C60.9578 17.6931 60.9831 17.8566 61.0067 18.0202C61.1302 18.6902 61.3518 19.3384 61.6642 19.9439C61.997 20.5783 62.4201 21.161 62.9203 21.6738C63.4533 22.1978 64.0641 22.6363 64.7311 22.9737C65.4212 23.3268 66.1684 23.5551 66.938 23.6481C67.1329 23.6771 67.3295 23.6934 67.5265 23.697C67.7245 23.7119 67.9232 23.7158 68.1216 23.7088C68.5219 23.6922 68.9201 23.642 69.3119 23.5587C70.1578 23.3754 70.9622 23.0364 71.6841 22.5589L71.6133 22.5673L74.0294 23.5368L74.1727 23.5941L74.1322 23.4457L73.4207 20.8628L73.4089 20.9252C74.0647 20.0567 74.5066 19.0459 74.6987 17.9747C74.7912 17.4745 74.8229 16.965 74.7931 16.4573C74.7874 16.2137 74.7643 15.9709 74.724 15.7306C74.706 15.6115 74.6875 15.4934 74.6684 15.3765C74.6481 15.2602 74.6127 15.1472 74.5841 15.0393C74.1793 13.4509 73.2232 12.058 71.8865 11.1093C71.3931 10.7561 70.8536 10.4725 70.2831 10.2663L69.9206 10.1364L69.5834 10.0488L69.2698 9.97121C69.1686 9.95266 69.0708 9.94255 68.9798 9.92738C68.7977 9.90546 68.6426 9.87342 68.4959 9.86668L68.1418 9.85488H67.9244C67.8997 9.85306 67.8749 9.85306 67.8502 9.85488C67.8741 9.86251 67.8992 9.86593 67.9244 9.86499L68.1402 9.88354L68.4925 9.90714C68.6325 9.91726 68.791 9.95267 68.9731 9.97964C70.2846 10.2075 71.5018 10.8112 72.4768 11.7174C73.4519 12.6237 74.1429 13.7935 74.466 15.0849C74.4913 15.1961 74.5267 15.3074 74.547 15.4221C74.5672 15.5367 74.5807 15.6514 74.5992 15.7694C74.6378 16.0052 74.6592 16.2436 74.6633 16.4826C74.6898 16.9787 74.657 17.4762 74.5655 17.9645C74.3698 19.0123 73.9315 19.9996 73.2858 20.8476L73.2639 20.8763L73.274 20.9117C73.4988 21.7457 73.7338 22.6072 73.9788 23.4963L74.0816 23.4053L71.6656 22.4325L71.6285 22.4173L71.5931 22.4392C70.5569 23.1257 69.3519 23.5142 68.1098 23.5621C67.9159 23.5688 67.7217 23.5655 67.5281 23.552C67.3356 23.5484 67.1436 23.5321 66.9532 23.5031C66.2007 23.412 65.4701 23.1888 64.7951 22.8438C64.1426 22.5137 63.5444 22.0855 63.0215 21.5743C62.531 21.0746 62.1154 20.5068 61.7873 19.8883C61.4829 19.294 61.267 18.6584 61.1466 18.0016C61.1213 17.833 61.096 17.683 61.0724 17.5245C61.0488 17.366 61.0522 17.2075 61.0404 17.0507C61.0246 16.7417 61.0291 16.4319 61.0539 16.1234C61.1458 15.0911 61.4715 14.0932 62.0063 13.2054C62.5412 12.3177 63.2712 11.5633 64.141 10.9997C64.7314 10.6091 65.381 10.3165 66.0647 10.1331L66.4626 10.0268L66.82 9.96784L67.1269 9.91726C67.2213 9.90714 67.3073 9.90377 67.3831 9.89871L67.7322 9.87342C67.7708 9.8724 67.8092 9.86731 67.8468 9.85825Z" fill="#455A64"/>
</svg>
