<svg width="30" height="30" viewBox="0 0 30 30" fill="none" xmlns="http://www.w3.org/2000/svg">
<path d="M16.1828 12.9244C16.1828 12.9244 22.2179 3.25614 22.3553 3.01448C22.4928 2.77283 22.522 2.3291 22.1429 2.3291C21.7637 2.3291 12.3621 11.9265 12.3621 11.9265L5.68539 15.8846C5.68539 15.8846 5.2375 16.1596 5.30625 16.5034C5.37499 16.8471 5.67498 16.8617 5.81247 16.8617C5.94996 16.8617 13.0725 16.8242 13.4871 16.8117C14.0016 16.7971 13.8745 17.5283 13.8745 17.5283L9.36645 24.6154C9.36645 24.6154 7.3978 27.3403 7.3978 27.5257C7.3978 27.7986 7.72695 27.934 8.03319 27.7507C8.27067 27.609 23.624 14.5993 24.3011 13.7056C24.4844 13.4618 24.5781 12.8202 23.8219 12.8202C23.0657 12.8202 17.0431 14.5743 17.0431 14.5743L16.1828 12.9244Z" fill="#FEB804"/>
<path d="M15.1272 12.1557C14.9418 12.4098 14.8918 12.8348 15.2918 12.8598C15.6897 12.8827 23.8226 12.8223 23.8226 12.8223C23.8226 12.8223 18.0125 18.1616 16.2542 19.7553C14.496 21.3489 8.67338 26.5112 8.28173 26.8757C7.89842 27.234 7.55052 27.5632 7.40886 27.5174C7.38595 27.5111 7.35678 27.3882 7.90467 26.4862C8.40464 25.6633 13.2044 17.62 13.3919 17.3158C13.5794 17.0117 13.7439 16.7533 13.8377 16.6117C13.9314 16.47 14.2356 15.6971 13.6023 15.6971C12.969 15.6971 5.68604 15.8846 5.68604 15.8846C5.68604 15.8846 10.717 11.6161 12.1711 10.4683C13.6252 9.3204 21.8664 2.3291 22.1435 2.3291C22.4206 2.3291 15.3147 11.8994 15.1272 12.1557Z" fill="#FFC927"/>
<path d="M14.8845 16.4068C15.2595 15.8672 15.6283 15.8276 15.8512 15.961C16.1386 16.1339 16.1678 16.5318 15.8053 17.013C15.2345 17.7755 11.0389 23.3897 10.8785 23.5876C10.5744 23.9626 10.1265 23.798 10.4181 23.2543C10.6618 22.8044 14.4971 16.9651 14.8845 16.4068Z" fill="#FFE567"/>
<path d="M8.92323 15.31C8.20452 15.7912 7.5358 15.0725 8.01703 14.5455C8.49825 14.0184 11.6564 11.3894 12.296 10.8457C12.9355 10.3019 16.6687 7.0542 16.9582 6.82088C17.3415 6.51256 17.579 6.82505 17.3374 7.14586C17.0978 7.46668 14.4584 10.104 13.2938 11.1748C12.3939 12.0039 9.60653 14.8517 8.92323 15.31Z" fill="#FFE567"/>
</svg>
