<svg width="18" height="18" viewBox="0 0 18 18" fill="none" xmlns="http://www.w3.org/2000/svg">
<path d="M2.76323 11.8309C2.76323 11.8309 2.50588 12.3062 2.4862 12.6029C2.46651 12.8996 2.66479 15.3156 3.09932 15.8499C3.53385 16.3843 4.86135 17.7906 8.78057 17.8299C12.6998 17.8693 14.6995 16.0876 14.9174 15.7318C15.1354 15.376 15.4124 13.7124 15.4321 12.406C15.4518 11.0996 8.48385 12.0095 8.48385 12.0095L2.76323 11.8309Z" fill="#FBB75A"/>
<path d="M8.70192 14.9976C12.1866 15.096 15.4125 12.9585 15.4125 12.9585L15.3141 14.0272C15.3141 14.0272 12.6619 16.0663 8.76098 15.9679C4.86004 15.8694 2.60442 14.0272 2.60442 14.0272L2.50598 13.0963C2.50598 13.0963 5.65458 14.9104 8.70192 14.9976Z" fill="#F2A05B"/>
<path d="M9.13783 6.68229C7.65283 6.68932 3.17955 7.03807 2.72392 8.93932C2.2683 10.8406 2.32736 12.6223 2.40752 12.7798C2.48627 12.9387 2.66345 12.6645 3.08111 12.8192C3.61548 13.0174 3.57611 14.4617 4.54642 14.719C5.51673 14.9764 5.53642 13.6503 6.64455 13.729C7.75267 13.8078 7.23798 15.2942 8.7033 15.3124C10.208 15.3321 9.6497 13.8415 10.703 13.7093C11.745 13.5771 11.198 15.1943 12.6436 14.9764C14.0892 14.7584 13.9219 12.701 14.6616 12.4831C15.2227 12.3185 15.1749 12.8698 15.4406 12.8459C15.6586 12.8262 15.5728 9.80979 15.3745 9.1376C15.1763 8.46541 13.3144 6.6626 9.13783 6.68229Z" fill="url(#paint0_radial_97_1120)"/>
<path d="M4.63355 10.9292C3.58027 10.4849 3.23996 10.0644 3.0698 9.85066C2.95168 9.70159 2.77308 9.64253 2.67324 9.76206C2.5748 9.88019 2.62402 10.0096 2.7323 10.1375C2.84058 10.2669 3.32574 11.008 4.57308 11.4144C5.66996 11.7716 6.39418 11.8208 6.67121 11.8307C6.97918 11.8419 7.10715 11.4552 6.70074 11.4046C6.23527 11.3469 5.78246 11.4144 4.63355 10.9292ZM7.79761 11.5466C7.52761 11.5396 7.42777 11.6914 7.42777 11.811C7.42777 11.9558 7.55293 12.036 7.7709 12.0486C7.98886 12.0613 8.11402 11.9164 8.11402 11.818C8.11543 11.7182 8.05496 11.5522 7.79761 11.5466Z" fill="#FDFFFF"/>
<path d="M3.53537 12.4847C3.41162 12.6057 3.46365 12.7463 3.52271 12.8194C3.61975 12.939 3.79412 12.9586 3.88412 12.8883C3.98678 12.8096 3.97412 12.6633 3.90943 12.5663C3.82646 12.4397 3.65771 12.3638 3.53537 12.4847ZM3.88131 13.0051C3.71115 13.1007 3.78709 13.313 3.8785 13.4874C4.07396 13.8586 4.13584 14.161 4.36084 14.31C4.58865 14.4605 4.8699 14.3565 4.84318 14.2004C4.80099 13.9515 4.64771 14.1399 4.51553 13.8249C4.46068 13.6941 4.34818 13.4846 4.2174 13.2019C4.14146 13.036 4.05287 12.908 3.88131 13.0051ZM7.84412 14.0077C7.67678 14.1272 7.77803 14.4296 7.98896 14.6672C8.1999 14.9049 8.49662 15.0961 8.82006 15.0104C9.07037 14.9443 9.05068 14.6672 8.87912 14.5885C8.70756 14.5097 8.50365 14.5561 8.31803 14.3115C8.22803 14.1919 8.10146 13.8235 7.84412 14.0077ZM11.8182 13.7475C11.6522 13.8699 11.8083 14.1244 11.911 14.3002C12.0137 14.476 12.3526 14.8135 12.5508 14.6138C12.6957 14.4675 12.4229 14.2904 12.2949 14.0991C12.1993 13.9543 12.039 13.583 11.8182 13.7475ZM11.5327 13.2891C11.423 13.3693 11.4399 13.4958 11.4793 13.5661C11.5327 13.659 11.7043 13.6983 11.8027 13.6126C11.8983 13.5296 11.8421 13.3946 11.7901 13.3285C11.738 13.2624 11.6058 13.2357 11.5327 13.2891Z" fill="#FCE9CA"/>
<path d="M12.15 5.56471C12.15 5.56471 11.0629 7.06377 11.1319 7.36189C11.1853 7.59674 11.4384 7.84846 11.9798 7.88502C12.5212 7.92158 12.8601 7.66986 12.9375 7.4308C13.0415 7.11299 12.7026 6.10049 12.5803 5.89939C12.4073 5.61393 12.2512 5.57314 12.15 5.56471ZM14.3972 6.91752L13.2286 8.55439C13.2286 8.55439 13.2637 8.91299 13.6153 9.06768C13.9823 9.22799 14.7319 9.23783 14.947 8.92424C15.1917 8.56846 15.0862 7.95674 14.9625 7.58689C14.8669 7.29721 14.6644 6.88658 14.3972 6.91752ZM12.4186 8.76674L11.2879 10.5035C11.2879 10.5035 11.2753 10.9338 11.7858 11.0533C12.1908 11.1475 12.9347 11.1517 13.2117 10.9141C13.4887 10.6764 13.4662 10.1983 13.2272 9.69627C12.9656 9.15064 12.5775 8.63736 12.4186 8.76674ZM9.60326 9.19283L8.12248 10.9844C8.12248 10.9844 8.09295 11.3303 8.45857 11.4991C8.92826 11.7171 9.65107 11.7058 10.0181 11.5089C10.3401 11.336 10.3894 10.7875 10.2726 10.4444C10.177 10.1646 10.0448 9.92689 9.9956 9.79752C9.94638 9.66955 9.78045 9.27158 9.60326 9.19283ZM6.41529 8.58814L5.15388 10.5583C5.15388 10.5583 5.19326 11.0181 5.6742 11.1124C6.08904 11.1939 6.77248 11.2417 7.01013 10.9436C7.24779 10.6455 7.25763 9.88893 7.02982 9.35455C6.80201 8.82158 6.60373 8.65846 6.41529 8.58814ZM4.49998 6.73049L4.33123 6.67002L3.20623 8.44752C3.20623 8.44752 3.17388 8.76111 3.43545 8.92846C3.68295 9.08736 4.47045 9.16611 4.89513 8.95799C5.32123 8.74986 5.29029 8.05236 4.99357 7.4533C4.71935 6.89783 4.49998 6.73049 4.49998 6.73049ZM6.56435 5.41846L5.4717 7.30424C5.4717 7.30424 5.51951 7.54893 5.89638 7.6558C6.26623 7.76127 6.74998 7.74158 6.99748 7.55033C7.24638 7.35908 7.31248 6.93861 7.19857 6.45064C7.12123 6.11736 6.8217 5.51408 6.56435 5.41846Z" fill="#EE5B4A"/>
<path d="M5.48575 9.27578C5.25091 9.78203 4.92185 10.533 5.29731 10.7805C5.67278 11.028 6.22825 10.6314 6.42513 9.88891C6.622 9.14641 6.65294 8.77516 6.4645 8.61625C6.27747 8.46016 5.79231 8.61344 5.48575 9.27578ZM4.21169 6.61235C3.9445 6.62922 3.63794 7.04266 3.48466 7.44907C3.33138 7.85547 3.15278 8.36032 3.21747 8.52344C3.28216 8.68657 3.72231 8.88485 3.91075 8.53891C4.09919 8.19297 4.06122 7.73032 4.10341 7.49407C4.17794 7.07782 4.49997 6.73188 4.49997 6.73188C4.49997 6.73188 4.39028 6.6011 4.21169 6.61235ZM6.3295 5.33688C6.13825 5.34813 5.95685 5.42828 5.79372 5.96266C5.70513 6.25516 5.45481 6.59407 5.43091 6.91328C5.407 7.23391 5.47872 7.31688 5.47872 7.31688C5.47872 7.31688 5.93716 7.40547 6.11575 7.04828C6.28731 6.70657 6.23388 6.35782 6.29153 6.1961C6.34919 6.03297 6.61216 5.44094 6.61216 5.44094C6.61216 5.44094 6.49685 5.32844 6.3295 5.33688Z" fill="#FD6F42"/>
<path d="M12.1037 5.55448C11.9026 5.54464 11.6087 5.79354 11.4216 6.23792C11.2332 6.68229 11.1193 7.16464 11.1277 7.30667C11.1362 7.4487 11.8787 7.46557 12.1402 7.03667C12.3047 6.76667 12.2963 6.04245 12.278 5.86807C12.2612 5.69229 12.3132 5.56432 12.1037 5.55448ZM14.3354 6.91151C14.1624 6.93964 13.7546 7.03948 13.4255 7.74964C13.2202 8.19261 13.1583 8.6187 13.3074 8.68057C13.4565 8.74245 13.8629 8.80432 14.0485 8.57229C14.2341 8.34026 14.4394 7.70886 14.4858 7.39386C14.5308 7.08167 14.5618 6.87495 14.3354 6.91151ZM11.3302 10.6226C11.5524 10.8251 11.9757 10.6339 12.1276 10.4539C12.3596 10.1768 12.5537 9.59745 12.5635 9.19245C12.5705 8.89854 12.638 8.73261 12.3807 8.74667C12.2921 8.75229 12.0488 8.79589 11.7676 9.21214C11.544 9.5412 11.416 9.80135 11.3415 10.1234C11.2782 10.3906 11.2655 10.5635 11.3302 10.6226ZM9.31084 9.09261C9.1674 9.08698 8.89459 9.17136 8.61334 9.63682C8.33069 10.1023 8.01006 10.8546 8.14787 11.0867C8.28709 11.3187 8.6274 11.344 8.97475 11.2006C9.32069 11.0571 9.55834 10.5565 9.57803 10.354C9.59772 10.1515 9.73131 9.28526 9.6174 9.20089C9.5035 9.11792 9.43459 9.09823 9.31084 9.09261Z" fill="#FF6E45"/>
<path d="M14.6672 3.66053C14.6672 5.61943 11.5369 7.35615 9.09703 7.35615C6.65718 7.35615 3.55359 5.51397 3.55359 3.55506C3.55359 1.59615 6.61359 0.0366211 9.05203 0.0366211C11.4905 0.0366211 14.6672 1.70162 14.6672 3.66053Z" fill="url(#paint1_radial_97_1120)"/>
<path d="M10.236 4.37614C10.2853 4.30724 11.212 4.38458 11.295 4.40567C11.3343 4.41552 11.3245 7.94942 11.2753 7.97896C11.2331 8.00427 11.0671 8.15755 10.7507 8.15755C10.4343 8.15755 10.2557 8.04927 10.1967 8.00849C10.1376 7.96911 10.1868 4.44505 10.236 4.37614Z" fill="#FEA8A8"/>
<path d="M8.53451 5.24829C8.49654 5.28064 8.48529 8.69361 8.51482 8.72314C8.54436 8.75267 8.74264 8.93126 9.12795 8.92142C9.51467 8.91157 9.69186 8.77236 9.72139 8.74282C9.75092 8.71329 9.74107 5.24829 9.71154 5.22861C9.68201 5.20751 8.59357 5.19767 8.53451 5.24829Z" fill="#EC7FAE"/>
<path d="M6.87092 4.51544C6.8231 4.54356 6.8217 8.00997 6.84138 8.0395C6.86107 8.06903 7.14795 8.16888 7.41513 8.16888C7.68232 8.16888 7.93967 8.10981 7.9692 8.08028C7.99873 8.05075 7.97904 4.55622 7.94951 4.51684C7.91998 4.47747 6.92013 4.48591 6.87092 4.51544Z" fill="#93C7EE"/>
<path d="M9.13784 2.10938C9.1969 2.10938 9.27706 2.57484 9.38534 2.84203C9.49362 3.10922 9.90002 3.77297 9.74112 4.34672C9.56815 4.97531 8.58799 5.09766 8.37565 4.27781C8.22659 3.70406 8.73143 3.10922 8.86081 2.84203C8.9494 2.65781 9.09706 2.10938 9.13784 2.10938Z" fill="url(#paint2_radial_97_1120)"/>
<path d="M10.7311 1.38672C10.7311 1.38672 10.5848 2.05328 10.4048 2.33734C10.1475 2.74375 9.98434 3.29922 10.1868 3.75344C10.4442 4.32719 11.475 4.29766 11.4932 3.3175C11.5031 2.80281 11.2781 2.53 11.1178 2.23891C11.0081 2.04063 10.8 1.40641 10.7311 1.38672Z" fill="url(#paint3_radial_97_1120)"/>
<path d="M7.45452 1.49609C7.45452 1.49609 7.18733 2.15984 7.01858 2.40734C6.84983 2.65484 6.5503 3.23844 6.72186 3.70391C6.92999 4.26781 7.85108 4.33531 8.02827 3.59562C8.1464 3.10062 7.88905 2.72516 7.71187 2.31875C7.60077 2.06281 7.45452 1.49609 7.45452 1.49609Z" fill="url(#paint4_radial_97_1120)"/>
<defs>
<radialGradient id="paint0_radial_97_1120" cx="0" cy="0" r="1" gradientUnits="userSpaceOnUse" gradientTransform="translate(9.18509 8.8205) rotate(91.1173) scale(6.43845 14.0161)">
<stop offset="0.445" stop-color="#FEEAC9"/>
<stop offset="0.565" stop-color="#FEE7C2"/>
<stop offset="0.741" stop-color="#FEDEAE"/>
<stop offset="0.952" stop-color="#FFCF8D"/>
<stop offset="1" stop-color="#FFCB85"/>
</radialGradient>
<radialGradient id="paint1_radial_97_1120" cx="0" cy="0" r="1" gradientUnits="userSpaceOnUse" gradientTransform="translate(9.11123 3.6962) scale(5.48775 3.37881)">
<stop offset="0.034" stop-color="#FFE265" stop-opacity="0.7"/>
<stop offset="0.112" stop-color="#FFE575" stop-opacity="0.643"/>
<stop offset="0.417" stop-color="#FFF0B0" stop-opacity="0.422"/>
<stop offset="0.677" stop-color="#FFF8DB" stop-opacity="0.234"/>
<stop offset="0.88" stop-color="#FFFDF5" stop-opacity="0.087"/>
<stop offset="1" stop-color="white" stop-opacity="0"/>
</radialGradient>
<radialGradient id="paint2_radial_97_1120" cx="0" cy="0" r="1" gradientUnits="userSpaceOnUse" gradientTransform="translate(9.12785 5.05941) scale(2.73206 2.73206)">
<stop offset="0.17" stop-color="#FF9616"/>
<stop offset="0.654" stop-color="#FFD429"/>
</radialGradient>
<radialGradient id="paint3_radial_97_1120" cx="0" cy="0" r="1" gradientUnits="userSpaceOnUse" gradientTransform="translate(10.8579 4.3352) scale(2.67806)">
<stop offset="0.17" stop-color="#FF9616"/>
<stop offset="0.654" stop-color="#FFD429"/>
</radialGradient>
<radialGradient id="paint4_radial_97_1120" cx="0" cy="0" r="1" gradientUnits="userSpaceOnUse" gradientTransform="translate(7.42808 4.33419) scale(2.6512)">
<stop offset="0.17" stop-color="#FF9616"/>
<stop offset="0.654" stop-color="#FFD429"/>
</radialGradient>
</defs>
</svg>
