<svg width="28" height="28" viewBox="0 0 28 28" fill="none" xmlns="http://www.w3.org/2000/svg">
<path d="M7.72118 25.7657L0.666517 27.3337L2.23452 20.279C1.2021 18.3474 0.663441 16.1905 0.666517 14.0003C0.666517 6.63633 6.63585 0.666992 13.9999 0.666992C21.3638 0.666992 27.3332 6.63633 27.3332 14.0003C27.3332 21.3643 21.3638 27.3337 13.9999 27.3337C11.8097 27.3367 9.65275 26.7981 7.72118 25.7657ZM8.10785 22.9483L8.97852 23.415C10.5234 24.2403 12.2484 24.6704 13.9999 24.667C16.1095 24.667 18.1718 24.0414 19.9259 22.8693C21.6801 21.6973 23.0472 20.0314 23.8546 18.0823C24.6619 16.1332 24.8731 13.9885 24.4616 11.9194C24.05 9.85023 23.0341 7.94961 21.5423 6.45785C20.0506 4.96609 18.1499 3.95019 16.0808 3.53862C14.0117 3.12704 11.867 3.33828 9.91789 4.14561C7.96882 4.95295 6.30291 6.32012 5.13084 8.07424C3.95877 9.82837 3.33318 11.8907 3.33318 14.0003C3.33318 15.7803 3.76652 17.4897 4.58652 19.0217L5.05185 19.8923L4.17852 23.8217L8.10785 22.9483Z" fill="#8B8D98"/>
</svg>
