<svg width="32" height="32" viewBox="0 0 32 32" fill="none" xmlns="http://www.w3.org/2000/svg">
<path d="M25.3333 25.3331V13.0651L16 5.70245L6.66667 13.0651V25.3331H25.3333ZM28 26.6665C28 27.0201 27.8595 27.3592 27.6095 27.6093C27.3594 27.8593 27.0203 27.9998 26.6667 27.9998H5.33333C4.97971 27.9998 4.64057 27.8593 4.39052 27.6093C4.14048 27.3592 4 27.0201 4 26.6665V12.4185C3.99992 12.2171 4.04547 12.0183 4.13322 11.837C4.22097 11.6557 4.34865 11.4967 4.50667 11.3718L15.1733 2.95712C15.4087 2.77111 15.7 2.66992 16 2.66992C16.3 2.66992 16.5913 2.77111 16.8267 2.95712L27.4933 11.3705C27.6515 11.4955 27.7793 11.6547 27.8671 11.8362C27.9548 12.0178 28.0003 12.2168 28 12.4185V26.6665ZM9.33333 15.9998H12C12 17.0607 12.4214 18.0781 13.1716 18.8282C13.9217 19.5784 14.9391 19.9998 16 19.9998C17.0609 19.9998 18.0783 19.5784 18.8284 18.8282C19.5786 18.0781 20 17.0607 20 15.9998H22.6667C22.6667 17.7679 21.9643 19.4636 20.714 20.7138C19.4638 21.9641 17.7681 22.6665 16 22.6665C14.2319 22.6665 12.5362 21.9641 11.286 20.7138C10.0357 19.4636 9.33333 17.7679 9.33333 15.9998Z" fill="#8B8D98"/>
</svg>
