<svg width="40" height="40" viewBox="0 0 40 40" fill="none" xmlns="http://www.w3.org/2000/svg">
<path d="M20.0002 5C28.9869 5 36.4636 11.4667 38.0319 20C36.4652 28.5333 28.9869 35 20.0002 35C11.0135 35 3.53688 28.5333 1.97021 20C3.53688 11.4667 11.0135 5 20.0002 5ZM20.0002 31.6667C23.3996 31.6663 26.6982 30.5119 29.356 28.3925C32.0138 26.273 33.8733 23.3141 34.6302 20C33.8713 16.688 32.011 13.7316 29.3535 11.6142C26.6961 9.49688 23.3989 8.34391 20.001 8.34391C16.6032 8.34391 13.306 9.49688 10.6485 11.6142C7.99112 13.7316 6.13081 16.688 5.37188 20C6.12871 23.3138 7.988 26.2725 10.6455 28.3919C13.3029 30.5114 16.6011 31.6659 20.0002 31.6667ZM20.0002 27.5C18.0111 27.5 16.1034 26.7098 14.6969 25.3033C13.2904 23.8968 12.5002 21.9891 12.5002 20C12.5002 18.0109 13.2904 16.1032 14.6969 14.6967C16.1034 13.2902 18.0111 12.5 20.0002 12.5C21.9893 12.5 23.897 13.2902 25.3035 14.6967C26.71 16.1032 27.5002 18.0109 27.5002 20C27.5002 21.9891 26.71 23.8968 25.3035 25.3033C23.897 26.7098 21.9893 27.5 20.0002 27.5ZM20.0002 24.1667C21.1053 24.1667 22.1651 23.7277 22.9465 22.9463C23.7279 22.1649 24.1669 21.1051 24.1669 20C24.1669 18.8949 23.7279 17.8351 22.9465 17.0537C22.1651 16.2723 21.1053 15.8333 20.0002 15.8333C18.8951 15.8333 17.8353 16.2723 17.0539 17.0537C16.2725 17.8351 15.8335 18.8949 15.8335 20C15.8335 21.1051 16.2725 22.1649 17.0539 22.9463C17.8353 23.7277 18.8951 24.1667 20.0002 24.1667Z" fill="#0FBDB0"/>
</svg>
