<svg width="18" height="18" viewBox="0 0 18 18" fill="none" xmlns="http://www.w3.org/2000/svg">
<path d="M5.44558 6.09206C5.37432 6.85215 5.32432 8.19732 5.77312 8.7699C5.77312 8.7699 5.56185 7.29221 7.45583 5.43823C8.21843 4.69188 8.3947 3.67676 8.12842 2.91541C7.97715 2.48411 7.70086 2.12781 7.46083 1.87903C7.32082 1.73276 7.42833 1.49148 7.6321 1.50023C8.86476 1.55524 10.8625 1.89778 11.7114 4.02805C12.0839 4.96317 12.1114 5.92954 11.9339 6.91216C11.8214 7.53974 11.4213 8.93492 12.3339 9.10619C12.9853 9.2287 13.3003 8.71114 13.4416 8.33859C13.5003 8.18357 13.7041 8.14482 13.8141 8.26858C14.9143 9.51999 15.008 10.9939 14.7805 12.2628C14.3404 14.7156 11.8564 16.5009 9.38857 16.5009C6.30569 16.5009 3.85163 14.7369 3.2153 11.544C2.95902 10.2551 3.08904 7.70476 5.07679 5.90453C5.2243 5.76952 5.46558 5.88953 5.44558 6.09206Z" fill="url(#paint0_radial_838_8591)"/>
<path d="M10.5149 10.6791C9.37849 9.21642 9.8873 7.54746 10.1661 6.88238C10.2036 6.79487 10.1036 6.71236 10.0248 6.76611C9.53601 7.09866 8.53463 7.88125 8.06832 8.98264C7.43699 10.4716 7.482 11.2004 7.8558 12.0905C8.08082 12.6269 7.81954 12.7406 7.68827 12.7606C7.56076 12.7806 7.44324 12.6956 7.34948 12.6068C7.0807 12.3506 6.88692 12.0168 6.79441 11.6567C6.77441 11.5792 6.67315 11.558 6.62689 11.6217C6.27685 12.1055 6.09557 12.8819 6.08682 13.4307C6.05932 15.1272 7.46075 16.5023 9.15596 16.5023C11.2925 16.5023 12.8489 14.1395 11.6213 12.1643C11.265 11.5892 10.9299 11.2129 10.5149 10.6791Z" fill="url(#paint1_radial_838_8591)"/>
<defs>
<radialGradient id="paint0_radial_838_8591" cx="0" cy="0" r="1" gradientUnits="userSpaceOnUse" gradientTransform="translate(8.77801 16.5397) rotate(-179.751) scale(8.82456 14.4793)">
<stop offset="0.3144" stop-color="#FF9800"/>
<stop offset="0.6616" stop-color="#FF6D00"/>
<stop offset="0.9715" stop-color="#F44336"/>
</radialGradient>
<radialGradient id="paint1_radial_838_8591" cx="0" cy="0" r="1" gradientUnits="userSpaceOnUse" gradientTransform="translate(9.27345 7.7586) rotate(90.5787) scale(9.2332 6.94867)">
<stop offset="0.2141" stop-color="#FFF176"/>
<stop offset="0.3275" stop-color="#FFF27D"/>
<stop offset="0.4868" stop-color="#FFF48F"/>
<stop offset="0.6722" stop-color="#FFF7AD"/>
<stop offset="0.7931" stop-color="#FFF9C4"/>
<stop offset="0.8221" stop-color="#FFF8BD" stop-opacity="0.804"/>
<stop offset="0.8627" stop-color="#FFF6AB" stop-opacity="0.529"/>
<stop offset="0.9101" stop-color="#FFF38D" stop-opacity="0.2088"/>
<stop offset="0.9409" stop-color="#FFF176" stop-opacity="0"/>
</radialGradient>
</defs>
</svg>
