<svg width="40" height="40" viewBox="0 0 40 40" fill="none" xmlns="http://www.w3.org/2000/svg">
<path d="M38.75 22.4531V17.5469C38.75 17.3625 38.6094 17.2063 38.4281 17.1875L32.8563 16.5969C32.7094 16.5813 32.5906 16.4781 32.55 16.3375C32.2813 15.4156 31.9156 14.5375 31.4625 13.7156C31.3906 13.5875 31.4031 13.4281 31.4969 13.3156L35.0219 8.95937C35.1375 8.81563 35.1281 8.60625 34.9969 8.47812L31.5281 5.00938C31.4653 4.94634 31.3812 4.90888 31.2923 4.90426C31.2034 4.89964 31.1159 4.92819 31.0469 4.98438L26.6844 8.50625C26.5688 8.6 26.4125 8.60938 26.2844 8.54063C25.4525 8.08396 24.5734 7.71931 23.6625 7.45312C23.5219 7.4125 23.4188 7.29375 23.4031 7.14688L22.8125 1.57188C22.7938 1.39063 22.6375 1.25 22.4531 1.25H17.5469C17.3625 1.25 17.2063 1.39063 17.1875 1.57188L16.5969 7.14375C16.5813 7.29063 16.4781 7.40938 16.3375 7.45C15.4156 7.71875 14.5375 8.08437 13.7156 8.5375C13.5875 8.60938 13.4281 8.59687 13.3156 8.50312L8.95937 4.98125C8.89031 4.92506 8.80285 4.89652 8.71394 4.90113C8.62503 4.90575 8.541 4.94321 8.47812 5.00625L5.00938 8.475C4.94634 8.53787 4.90888 8.6219 4.90426 8.71081C4.89964 8.79973 4.92819 8.88719 4.98438 8.95625L8.50937 13.3125C8.60313 13.4281 8.6125 13.5844 8.54375 13.7125C8.08709 14.5444 7.72244 15.4235 7.45625 16.3344C7.41563 16.475 7.29687 16.5781 7.15 16.5938L1.57188 17.1875C1.39063 17.2063 1.25 17.3625 1.25 17.5469V22.4531C1.25 22.6375 1.39063 22.7938 1.57188 22.8125L7.14375 23.4031C7.29063 23.4188 7.40938 23.5219 7.45 23.6625C7.71875 24.5844 8.08437 25.4625 8.5375 26.2844C8.60938 26.4125 8.59687 26.5719 8.50312 26.6844L4.98125 31.0406C4.86562 31.1844 4.875 31.3938 5.00625 31.5219L8.475 34.9906C8.60625 35.1219 8.8125 35.1313 8.95625 35.0156L13.3125 31.4906C13.4281 31.3969 13.5844 31.3875 13.7125 31.4563C14.5375 31.9094 15.4156 32.275 16.3344 32.5438C16.475 32.5844 16.5781 32.7031 16.5938 32.85L17.1875 38.4281C17.2063 38.6125 17.3625 38.75 17.5469 38.75H22.4531C22.6375 38.75 22.7938 38.6094 22.8125 38.4281L23.4031 32.8563C23.4188 32.7094 23.5219 32.5906 23.6625 32.55C24.5844 32.2813 25.4625 31.9156 26.2844 31.4625C26.4125 31.3906 26.5719 31.4031 26.6844 31.4969L31.0406 35.0219C31.1844 35.1375 31.3938 35.1281 31.5219 34.9969L34.9906 31.5281C35.1219 31.3969 35.1313 31.1906 35.0156 31.0469L31.4906 26.6906C31.3969 26.575 31.3875 26.4187 31.4563 26.2906C31.9094 25.4656 32.275 24.5875 32.5438 23.6687C32.5844 23.5281 32.7031 23.425 32.85 23.4094L38.4281 22.8125C38.6094 22.7938 38.75 22.6375 38.75 22.4531ZM20 23.525C18.0531 23.525 16.475 21.9469 16.475 20C16.475 18.0531 18.0531 16.475 20 16.475C21.9469 16.475 23.525 18.0531 23.525 20C23.525 21.9469 21.9469 23.525 20 23.525Z" fill="#82AEC0"/>
<path d="M25.1752 15.462C26.3221 16.7683 26.9815 18.5152 26.8721 20.4152C26.669 23.9027 23.8002 26.7245 20.3096 26.8777C18.8252 26.9433 17.4408 26.537 16.2908 25.7995C16.2033 25.7433 16.1096 25.862 16.1846 25.937C16.9041 26.673 17.7769 27.2414 18.7411 27.6017C19.7052 27.9619 20.7369 28.1052 21.7627 28.0214C25.1315 27.7558 27.8752 25.0527 28.1846 21.687C28.4252 19.0745 27.2283 16.7277 25.3002 15.3339C25.2096 15.2714 25.1065 15.3808 25.1752 15.462Z" fill="#2F7889"/>
<path d="M13.7093 20.4129C13.4999 16.3035 16.1562 13.291 19.9624 13.291C20.1656 13.291 20.4874 13.291 20.7374 13.5785C21.0531 13.9473 21.0812 14.391 20.7374 14.7566C20.4843 15.0254 20.1281 15.0441 19.9468 15.0691C16.1031 15.566 15.2031 17.991 14.9999 20.3098C14.9906 20.4129 15.0187 21.0441 14.4656 21.1098C13.7937 21.1879 13.7124 20.5129 13.7093 20.4129Z" fill="#B9E4EA"/>
<path d="M7.8877 20.5841C7.88457 13.6997 12.8564 8.02474 19.8033 7.75599C20.0158 7.74662 20.5689 7.75599 20.9127 8.06537C21.2283 8.34974 21.3439 8.84974 21.1596 9.25912C20.8627 9.91849 20.2689 9.90599 20.1096 9.91224C14.3252 10.1185 9.42832 14.8279 9.4252 20.5216C9.4252 20.6122 9.40957 20.7029 9.37832 20.7841L9.34707 20.8622C9.10957 21.481 8.24707 21.5154 7.9627 20.9185C7.91582 20.8122 7.8877 20.6997 7.8877 20.5841Z" fill="#94D1E0"/>
</svg>
