<svg width="14" height="13" viewBox="0 0 14 13" fill="none" xmlns="http://www.w3.org/2000/svg">
<path d="M7.00049 1.69043L6.6671 1.39183C6.00087 0.795138 5.13149 0.476131 4.23744 0.500304C3.34339 0.524476 2.49251 0.889994 1.8595 1.52182C1.22648 2.15364 0.859357 3.00382 0.833496 3.89782C0.807766 4.78731 1.1218 5.65302 1.71143 6.31903L6.99939 11.6157L12.2886 6.31907C12.8774 5.65341 13.1912 4.78848 13.1657 3.89975C13.1401 3.0065 12.7738 2.15687 12.1419 1.52502L7.00049 1.69043ZM7.00049 1.69043L7.33405 1.39202M7.00049 1.69043L7.33405 1.39202M7.33405 1.39202C8.00068 0.795652 8.87033 0.477134 9.76443 0.501868M7.33405 1.39202L9.76443 0.501868M9.76443 0.501868C10.6585 0.526601 11.5092 0.892685 12.1418 1.52495L9.76443 0.501868Z" fill="#DF0000" stroke="#FFF8F6"/>
</svg>
