<svg width="16" height="14" viewBox="0 0 16 14" fill="none" xmlns="http://www.w3.org/2000/svg">
<path d="M11.7476 0.121094C9.00895 0.121094 8.00276 2.9197 8.00276 2.9197C8.00276 2.9197 7.01031 0.121094 4.25295 0.121094C2.18056 0.121094 -0.181813 1.76351 0.690641 5.49706C1.56309 9.23061 8.01025 13.8816 8.01025 13.8816C8.01025 13.8816 14.4337 9.23061 15.3074 5.49706C16.1798 1.76351 13.9874 0.121094 11.7476 0.121094Z" fill="#F44336"/>
<path d="M3.8304 0.399829C5.98029 0.399829 7.04773 2.71096 7.39271 3.64716C7.44146 3.7809 7.6277 3.78465 7.68395 3.65466L7.99893 2.91845C7.5552 1.50102 6.33527 0.121094 4.25288 0.121094C3.39042 0.121094 2.47922 0.406079 1.77051 1.0073C2.39672 0.596069 3.13044 0.399829 3.8304 0.399829Z" fill="#CC3333"/>
<path d="M11.7476 0.121094C11.0863 0.121094 10.4839 0.264836 10.0139 0.554821C10.3439 0.427328 10.7526 0.399829 11.1576 0.399829C13.1837 0.399829 14.9974 1.936 14.1787 5.48706C13.4762 8.53565 9.37143 12.2342 8.11775 13.6454C8.03775 13.7354 8.01025 13.8804 8.01025 13.8804C8.01025 13.8804 14.4337 9.22936 15.3074 5.49581C16.1798 1.76351 13.9912 0.121094 11.7476 0.121094Z" fill="#CC3333"/>
<path d="M2.12932 2.10223C2.59804 1.51726 3.4355 1.03353 4.14546 1.591C4.52919 1.89224 4.3617 2.50971 4.01797 2.76969C3.51799 3.14967 3.08302 3.37841 2.77803 3.97338C2.59554 4.33086 2.48555 4.72209 2.4293 5.12082C2.4068 5.27831 2.20056 5.31706 2.12307 5.17832C1.5956 4.24337 1.4456 2.95593 2.12932 2.10223Z" fill="#FF8A80"/>
<path d="M9.64397 3.33185C9.42398 3.33185 9.26899 3.11936 9.34899 2.91437C9.49773 2.53689 9.69022 2.17191 9.92146 1.84693C10.2639 1.36695 10.9152 1.08697 11.3276 1.3782C11.7501 1.67569 11.6951 2.27065 11.3989 2.55814C10.7627 3.17436 9.96021 3.33185 9.64397 3.33185Z" fill="#FF8A80"/>
</svg>
