<svg width="33" height="32" viewBox="0 0 33 32" fill="none" xmlns="http://www.w3.org/2000/svg">
<path d="M16.8896 31.2159C9.13996 31.2159 0.779297 26.355 0.779297 15.689C0.779297 5.02294 9.13996 0.162109 16.8896 0.162109C21.1949 0.162109 25.1669 1.57869 28.1112 4.16188C31.3055 6.99505 32.9998 10.9948 32.9998 15.689C32.9998 20.3832 31.3055 24.3552 28.1112 27.1883C25.1669 29.7715 21.1671 31.2159 16.8896 31.2159Z" fill="url(#paint0_radial_1067_3867)"/>
<path d="M30.1919 6.45996C31.6724 8.84871 32.4445 11.693 32.4445 14.8567C32.4445 19.5509 30.7502 23.5229 27.5559 26.356C24.6116 28.9392 20.6118 30.3836 16.3343 30.3836C11.3179 30.3836 6.05705 28.342 2.95166 24.0117C5.94039 28.917 11.5623 31.2169 16.8898 31.2169C21.1674 31.2169 25.1671 29.7725 28.1114 27.1893C31.3057 24.3562 33.0001 20.3842 33.0001 15.69C33.0001 12.1513 32.0362 9.00704 30.1919 6.45996Z" fill="#EB8F00"/>
<path d="M17.1123 21.3584C16.1179 21.3584 15.1318 21.1918 14.1958 20.8585C13.0431 20.4613 11.7903 21.0751 11.3931 22.2251C11.1682 22.875 11.2598 23.5917 11.6404 24.1638C12.8347 25.9971 14.7235 26.997 17.1123 26.997C19.501 26.997 21.3898 25.9971 22.5842 24.1638C23.2592 23.15 22.9814 21.7806 21.9676 21.1057C21.3954 20.7251 20.6788 20.6335 20.0288 20.8585C19.0927 21.1918 18.1067 21.3584 17.1123 21.3584Z" fill="#422B0D"/>
<path opacity="0.8" d="M8.72267 22.9982C11.4072 22.9982 13.5835 20.9463 13.5835 18.4151C13.5835 15.8839 11.4072 13.832 8.72267 13.832C6.03809 13.832 3.86182 15.8839 3.86182 18.4151C3.86182 20.9463 6.03809 22.9982 8.72267 22.9982Z" fill="url(#paint1_radial_1067_3867)"/>
<path opacity="0.8" d="M25.5 22.9982C28.1846 22.9982 30.3609 20.9463 30.3609 18.4151C30.3609 15.8839 28.1846 13.832 25.5 13.832C22.8154 13.832 20.6392 15.8839 20.6392 18.4151C20.6392 20.9463 22.8154 22.9982 25.5 22.9982Z" fill="url(#paint2_radial_1067_3867)"/>
<path d="M29.1084 7.76465C26.8279 7.12302 25.153 8.9868 25.153 8.9868C25.153 8.9868 24.9586 6.87303 23.0087 6.20918C20.6699 5.40645 18.2006 6.68415 18.0534 9.99785C17.8867 13.7726 22.8809 18.7279 22.8809 18.7279C22.8809 18.7279 29.0806 17.0613 31.111 13.5282C32.7637 10.6534 30.8333 8.24795 29.1084 7.76465Z" fill="#F44336"/>
<path d="M29.1081 7.76352C28.8276 7.68853 28.5387 7.6552 28.2499 7.66075C29.0665 8.20794 29.7137 8.97179 30.1164 9.86618C30.5081 10.8078 30.6108 12.0244 29.8664 13.4771C28.2526 16.6352 23.2835 18.5907 22.9224 18.7268C23.3751 18.599 29.1693 16.9324 31.1219 13.5354C32.7635 10.6522 30.8331 8.24683 29.1081 7.76352Z" fill="#C62828"/>
<path d="M25.1497 9.3275C25.1331 9.03863 25.0886 8.74975 25.022 8.46644C24.8609 7.64982 24.3553 6.94152 23.6332 6.5221C23.1387 6.23323 22.5915 6.04991 22.0249 5.98047C22.0249 5.98047 22.8582 6.23323 23.4526 7.38594C23.7554 7.99146 23.9359 8.65254 23.9804 9.3275C23.9776 9.57471 24.022 9.81636 24.1109 10.0469C24.2109 10.2774 24.4553 10.4135 24.7053 10.3747C25.0859 10.2774 25.1692 9.80247 25.1497 9.3275Z" fill="#C62828"/>
<path d="M19.7501 8.00212C20.2695 7.35771 21.1223 6.74386 21.9389 7.3105C22.3722 7.61326 22.3778 8.47154 21.8472 8.85763C20.9528 9.51315 20.9112 9.94368 20.8112 10.3048C20.689 10.7353 20.6112 11.2492 20.2195 11.4658C19.8279 11.6825 19.4835 11.4658 19.2779 10.8464C18.9279 9.87979 19.1057 8.80208 19.7501 8.00212Z" fill="#FF847A"/>
<path d="M10.5345 6.15303C8.28181 6.88355 7.92072 9.36396 7.92072 9.36396C7.92072 9.36396 6.58746 7.69739 4.58756 8.23625C2.20158 8.86399 0.85443 11.2972 2.55712 14.1331C4.52923 17.3829 11.4289 18.7301 11.4289 18.7301C11.4289 18.7301 15.6648 13.9081 15.3981 9.84171C15.1787 6.53079 12.2372 5.60029 10.5345 6.15303Z" fill="#F44336"/>
<path d="M10.5344 6.15305C10.2594 6.24193 9.99556 6.3697 9.75391 6.53081C10.7372 6.53358 11.6982 6.81134 12.5315 7.33354C13.3815 7.88906 14.1398 8.85567 14.3287 10.4806C14.737 14.0054 11.6816 18.3857 11.4455 18.7051C11.7538 18.3496 15.6508 13.7498 15.3953 9.83895C15.1786 6.53081 12.2371 5.6003 10.5344 6.15305Z" fill="#C62828"/>
<path d="M8.11218 9.65562C7.93996 9.41952 7.74553 9.20287 7.52887 9.00843C6.94557 8.41402 6.13728 8.09738 5.30677 8.14182C4.73736 8.17515 4.17905 8.32236 3.66797 8.58068C3.66797 8.58068 4.50126 8.32792 5.63453 8.96121C6.22617 9.30286 6.74003 9.76117 7.15112 10.3056C7.28444 10.5139 7.45666 10.6917 7.65942 10.8333C7.87052 10.9694 8.14829 10.9444 8.33439 10.775C8.5816 10.475 8.38994 10.0362 8.11218 9.65562Z" fill="#C62828"/>
<path d="M2.88992 11.5506C2.90104 11.3173 2.9427 11.0868 3.01214 10.8645C3.12602 10.3979 3.45656 10.0118 3.8982 9.82571C4.32318 9.69239 4.91204 9.78683 5.1398 10.2118C5.34257 10.5896 5.19536 11.0451 5.08425 11.4617C4.98426 11.9395 4.92871 12.4283 4.91759 12.9172C4.92037 13.3172 4.60094 13.6422 4.20097 13.6477C3.82321 13.6477 3.52878 13.32 3.31768 13.0061C3.02325 12.5783 2.87326 12.07 2.88992 11.5506Z" fill="#FF847A"/>
<defs>
<radialGradient id="paint0_radial_1067_3867" cx="0" cy="0" r="1" gradientUnits="userSpaceOnUse" gradientTransform="translate(16.8896 15.689) scale(15.8213 15.8212)">
<stop offset="0.5" stop-color="#FDE030"/>
<stop offset="0.92" stop-color="#F7C02B"/>
<stop offset="1" stop-color="#F4A223"/>
</radialGradient>
<radialGradient id="paint1_radial_1067_3867" cx="0" cy="0" r="1" gradientUnits="userSpaceOnUse" gradientTransform="translate(8.72267 16.307) scale(5.29746 4.75688)">
<stop stop-color="#ED7770"/>
<stop offset="0.9" stop-color="#ED7770" stop-opacity="0"/>
</radialGradient>
<radialGradient id="paint2_radial_1067_3867" cx="0" cy="0" r="1" gradientUnits="userSpaceOnUse" gradientTransform="translate(33.4218 700.29) scale(5.40527 5.40524)">
<stop stop-color="#ED7770"/>
<stop offset="0.9" stop-color="#ED7770" stop-opacity="0"/>
</radialGradient>
</defs>
</svg>
