<svg width="16" height="16" viewBox="0 0 16 16" fill="none" xmlns="http://www.w3.org/2000/svg">
<path d="M8.00068 3.01937C8.76254 2.33781 9.75642 1.97379 10.7783 2.00206C11.8001 2.03033 12.7723 2.44874 13.4953 3.17137C14.2176 3.8935 14.6362 4.86454 14.6655 5.88543C14.6947 6.90633 14.3324 7.89974 13.6527 8.66204L7.99935 14.3234L2.34735 8.66204C1.66685 7.89935 1.30415 6.90508 1.33371 5.88336C1.36326 4.86165 1.78283 3.89001 2.50628 3.16793C3.22972 2.44585 4.20215 2.02811 5.22392 2.00049C6.24569 1.97286 7.23927 2.33744 8.00068 3.01937ZM12.5513 4.11337C12.0696 3.63242 11.4221 3.35393 10.7416 3.33496C10.0611 3.316 9.39916 3.558 8.89135 4.01137L8.00135 4.81004L7.11068 4.01204C6.60513 3.55997 5.94632 3.31751 5.26833 3.33399C4.59033 3.35047 3.94408 3.62467 3.4611 4.10077C2.97811 4.57688 2.69467 5.21912 2.66846 5.89681C2.64226 6.5745 2.87524 7.23672 3.32001 7.74871L8.00001 12.436L12.68 7.74937C13.1229 7.23965 13.3559 6.58087 13.3321 5.90602C13.3082 5.23118 13.0292 4.59052 12.5513 4.11337Z" fill="white"/>
</svg>
