<svg width="64" height="64" viewBox="0 0 64 64" fill="none" xmlns="http://www.w3.org/2000/svg">
<path d="M32.0018 15.4328L30.3348 13.9398C27.7651 11.6382 24.4117 10.4078 20.9633 10.501C17.5148 10.5943 14.2328 12.0041 11.7912 14.4411C9.34958 16.8782 7.93353 20.1575 7.83378 23.6057C7.73467 27.0317 8.94231 30.3661 11.2102 32.9336L31.9976 53.7553L52.7897 32.9338C55.0547 30.3677 56.261 27.0363 56.163 23.6133C56.0642 20.168 54.6514 16.8909 52.2141 14.4537L32.0018 15.4328ZM32.0018 15.4328L33.6696 13.9407M32.0018 15.4328L33.6696 13.9407M33.6696 13.9407C36.2408 11.6404 39.5952 10.4119 43.0439 10.5073M33.6696 13.9407L43.0439 10.5073M43.0439 10.5073C46.4925 10.6027 49.7736 12.0147 52.2138 14.4534L43.0439 10.5073Z" fill="#FFDAD1" stroke="url(#paint0_linear_406_6420)" stroke-width="5"/>
<defs>
<linearGradient id="paint0_linear_406_6420" x1="31.9983" y1="7.99609" x2="31.9983" y2="57.2935" gradientUnits="userSpaceOnUse">
<stop stop-color="#FF3B30"/>
<stop offset="1" stop-color="#B40417"/>
</linearGradient>
</defs>
</svg>
