<svg width="17" height="18" viewBox="0 0 17 18" fill="none" xmlns="http://www.w3.org/2000/svg">
<path d="M14.9836 7.22086C14.9764 5.53973 14.342 3.92181 13.2046 2.68382C12.0673 1.44584 10.5088 0.676944 8.83426 0.527653C7.15975 0.378362 5.48982 0.859427 4.15137 1.87667C2.81291 2.89392 1.90233 4.3741 1.59786 6.02745C1.30969 7.60965 1.6021 9.24271 2.42137 10.6266C2.6796 11.0593 3.00761 11.3734 3.33562 11.834L7.25086 17.0194C7.36487 17.1684 7.51168 17.2892 7.67991 17.3723C7.84815 17.4555 8.03328 17.4987 8.22093 17.4987C8.40858 17.4987 8.59371 17.4555 8.76195 17.3723C8.93019 17.2892 9.07702 17.1684 9.19103 17.0194L13.0434 11.9177C13.3941 11.5027 13.7226 11.0694 14.0275 10.6196C14.6437 9.59231 14.9738 8.4188 14.9836 7.22086ZM8.2349 10.159C7.6463 10.1604 7.07053 9.98703 6.58054 9.66088C6.09056 9.33473 5.7084 8.87048 5.48251 8.32694C5.25662 7.7834 5.19716 7.18503 5.31165 6.60767C5.42615 6.0303 5.70944 5.49991 6.12565 5.0837C6.54186 4.66749 7.07226 4.3842 7.64963 4.2697C8.22699 4.15521 8.82535 4.21467 9.36889 4.44056C9.91243 4.66645 10.3767 5.04859 10.7028 5.53858C11.029 6.02856 11.2024 6.60433 11.201 7.19294C11.201 7.9796 10.8885 8.73403 10.3322 9.29028C9.77598 9.84653 9.02156 10.159 8.2349 10.159Z" fill="#FF725E"/>
</svg>
