<svg width="32" height="32" viewBox="0 0 32 32" fill="none" xmlns="http://www.w3.org/2000/svg">
<path d="M5.3335 24.0003H8.00016V26.667H24.0002V5.33366H8.00016V8.00033H5.3335V4.00033C5.3335 3.6467 5.47397 3.30756 5.72402 3.05752C5.97407 2.80747 6.31321 2.66699 6.66683 2.66699H25.3335C25.6871 2.66699 26.0263 2.80747 26.2763 3.05752C26.5264 3.30756 26.6668 3.6467 26.6668 4.00033V28.0003C26.6668 28.3539 26.5264 28.6931 26.2763 28.9431C26.0263 29.1932 25.6871 29.3337 25.3335 29.3337H6.66683C6.31321 29.3337 5.97407 29.1932 5.72402 28.9431C5.47397 28.6931 5.3335 28.3539 5.3335 28.0003V24.0003ZM8.00016 14.667H17.3335V17.3337H8.00016V21.3337L1.3335 16.0003L8.00016 10.667V14.667Z" fill="#80828D"/>
</svg>
