<svg width="40" height="40" viewBox="0 0 40 40" fill="none" xmlns="http://www.w3.org/2000/svg">
<path d="M24.848 25.6055H19.7622V36.6688H24.848V25.6055Z" fill="#C87D5E"/>
<path d="M24.848 28.3991C24.3925 27.6602 23.7898 27.0297 23.0287 26.6186C22.5565 26.3631 22.0343 26.2159 21.5038 26.1631H20.6177C20.3288 26.1909 20.04 26.2464 19.7622 26.3297V31.9211C20.0094 31.5434 20.4205 31.2712 20.8649 31.1656C21.6399 30.9851 22.4621 31.2823 23.0898 31.7683C23.7176 32.2544 24.187 32.9155 24.6453 33.5627C24.7147 33.6599 24.7814 33.7544 24.8508 33.8516V28.3991H24.848Z" fill="#874D36"/>
<path d="M10.2612 10.2715C13.5561 10.2715 16.237 12.4995 16.237 15.2416V28.4654H4.28271V15.2416C4.28271 12.4995 6.96361 10.2715 10.2612 10.2715Z" fill="#4E342E"/>
<path d="M17.4935 28.3897H7.53673C6.94499 28.3897 6.44493 27.9535 6.36436 27.3673L4.96419 17.191C4.89751 16.7049 5.27534 16.2715 5.76707 16.2715H17.4935V28.3897Z" fill="white"/>
<path d="M29.3219 9.19336H10.2612C10.2612 9.19336 16.812 9.99624 16.812 15.5219L16.8454 29.5459H35.3255C36.0672 29.5459 36.6673 28.9458 36.6673 28.2041V16.5415C36.6701 12.4827 33.3808 9.19336 29.3219 9.19336Z" fill="#1976D2"/>
<path d="M25.4094 11.6709L23.1484 11.7486L19.8569 16.7984C19.8569 16.7984 19.8569 14.1235 19.8569 12.7014C19.8569 10.5126 17.6348 9.19043 17.6348 9.19043H26.2899L26.3343 9.23487C27.2426 10.0987 26.6621 11.6264 25.4094 11.6709Z" fill="#0D47A1"/>
<path d="M22.8381 19.7849C24.0869 19.7849 25.0991 18.6458 25.0991 17.2406C25.0991 15.8354 24.0869 14.6963 22.8381 14.6963C21.5894 14.6963 20.5771 15.8354 20.5771 17.2406C20.5771 18.6458 21.5894 19.7849 22.8381 19.7849Z" fill="#0D47A1"/>
<path d="M20.8052 5.03044L20.8135 16.5763C20.8135 16.9653 21.1274 17.2792 21.5162 17.2792H22.9356C23.3245 17.2792 23.6384 16.9653 23.6384 16.5763V3.33301H22.4995C21.5635 3.33301 20.8052 4.09144 20.8052 5.03044Z" fill="#C62828"/>
<path d="M21.4248 5.03044L21.4331 16.5763H23.7025V7.63633H27.6134C28.5161 7.63633 28.6216 7.24461 28.6216 5.53884C28.6216 3.83307 28.5189 3.33301 27.6161 3.33301H23.1192C22.1831 3.33301 21.4248 4.09144 21.4248 5.03044Z" fill="#F44336"/>
<path d="M22.6133 14.0135L22.6327 19.0994C22.6327 19.0994 22.0911 19.0994 21.4828 19.0994C20.3578 19.0994 19.4468 17.9605 19.4468 16.5551C19.4468 15.1496 20.3578 14.0107 21.4828 14.0107C22.6077 14.0107 22.6133 14.0135 22.6133 14.0135Z" fill="#82AEC0"/>
<path d="M22.6132 19.0994C23.7376 19.0994 24.6492 17.9602 24.6492 16.5551C24.6492 15.1499 23.7376 14.0107 22.6132 14.0107C21.4887 14.0107 20.5771 15.1499 20.5771 16.5551C20.5771 17.9602 21.4887 19.0994 22.6132 19.0994Z" fill="#E0E0E0"/>
<path d="M21.3966 16.6276C21.5188 16.6887 21.666 16.6221 21.7716 16.5332C22.0938 16.2637 22.216 15.8193 22.5132 15.5249C22.7743 15.2638 23.1715 15.0082 22.8604 14.6222C22.6354 14.3444 22.2549 14.3916 21.9577 14.5194C21.2994 14.7944 20.7772 16.3165 21.3966 16.6276Z" fill="white"/>
<path d="M10.2621 10.3425C13.532 10.3425 16.1934 12.5539 16.1934 15.2737V28.392H4.33084V15.2709C4.33084 12.5539 6.99229 10.3425 10.2621 10.3425ZM10.2621 9.19238C6.05884 9.19238 3.3335 12.0233 3.3335 15.5182V28.9504C3.3335 29.2755 3.59742 29.5422 3.92524 29.5422H17.2852C17.6103 29.5422 17.877 29.2782 17.877 28.9504V15.5182C17.8714 12.0233 14.4654 9.19238 10.2621 9.19238Z" fill="#4FC3F7"/>
<path d="M7.13233 27.6425C6.96844 27.5564 7.10455 27.3925 7.19621 27.2425L10.9099 20.7734L11.6404 21.2179L7.50731 27.4342C7.40176 27.5953 7.29621 27.7286 7.13233 27.6425Z" fill="#6FBFF0"/>
<path fill-rule="evenodd" clip-rule="evenodd" d="M10.8606 20.5801L11.8363 21.1737L7.6237 27.5096C7.62361 27.5098 7.62353 27.5099 7.62344 27.51C7.57228 27.5881 7.50669 27.6836 7.42239 27.7436C7.37716 27.7757 7.322 27.8012 7.25707 27.8067C7.19166 27.8122 7.12804 27.7964 7.06795 27.7648C7.00283 27.7306 6.94947 27.6781 6.92737 27.6037C6.90669 27.534 6.92049 27.4681 6.93777 27.4194C6.95526 27.3701 6.98197 27.3228 7.00621 27.2832C7.01858 27.2629 7.0315 27.2427 7.04348 27.224L7.0437 27.2237C7.05565 27.205 7.06668 27.1878 7.07695 27.171L10.8606 20.5801ZM10.9596 20.9655L7.31498 27.3143C7.30281 27.3342 7.29001 27.3541 7.27815 27.3726L7.27759 27.3735C7.26528 27.3927 7.2539 27.4105 7.24326 27.4279C7.22132 27.4638 7.20706 27.4911 7.19955 27.5122C7.19865 27.5148 7.19792 27.517 7.19733 27.519C7.21906 27.5304 7.23004 27.5302 7.2338 27.5299C7.23804 27.5295 7.24659 27.5278 7.26144 27.5172C7.29712 27.4918 7.33701 27.4404 7.39136 27.3574L7.39188 27.3566L11.4449 21.2607L10.9596 20.9655Z" fill="#6FBFF0"/>
<path d="M13.3021 23.0384L5.59696 17.122C5.50252 17.0581 5.42197 16.9414 5.51919 16.8248C5.59696 16.7303 5.66918 16.7803 5.80528 16.8609L13.2716 22.0051C13.4604 22.1217 13.7049 22.0717 13.8354 21.894L16.0631 18.8775L16.0575 20.2302L14.1798 22.88C13.9743 23.1606 13.5882 23.23 13.3021 23.0384Z" fill="#6FBFF0"/>
<path fill-rule="evenodd" clip-rule="evenodd" d="M5.62292 16.9179C5.6153 16.928 5.61442 16.9334 5.6143 16.9341C5.61416 16.935 5.61376 16.9376 5.61611 16.9438C5.62221 16.9597 5.64164 16.9846 5.67498 17.0072L5.67843 17.0095L13.3831 22.9255C13.6059 23.0721 13.9059 23.0185 14.0674 22.799L15.919 20.1859L15.9226 19.3019L13.9476 21.9764C13.9475 21.9764 13.9476 21.9763 13.9476 21.9764C13.7748 22.2115 13.4502 22.2787 13.1988 22.1234L13.1958 22.1216L5.73061 16.9782C5.72486 16.9748 5.71938 16.9715 5.71412 16.9684C5.68813 16.9529 5.66766 16.9408 5.64869 16.9306C5.63772 16.9247 5.6293 16.9207 5.62292 16.9179ZM5.85855 16.7311C5.86449 16.7346 5.87039 16.7381 5.87622 16.7416L5.88034 16.744L13.3474 21.8887C13.4733 21.9647 13.6359 21.9315 13.7237 21.812L16.2039 18.4535L16.1964 20.2748L14.2921 22.9623C14.0432 23.302 13.5738 23.3876 13.225 23.1539L13.2213 23.1514L5.51562 17.2347C5.4555 17.1932 5.38949 17.1288 5.35669 17.043C5.31915 16.9449 5.33157 16.8336 5.41243 16.7364C5.44197 16.7006 5.47991 16.6676 5.52959 16.6492C5.581 16.6302 5.63055 16.6322 5.67301 16.6424C5.71281 16.652 5.74946 16.6695 5.77991 16.6858C5.80484 16.6992 5.83208 16.7154 5.85855 16.7311Z" fill="#6FBFF0"/>
<path d="M22.8877 5.24384C22.8682 5.79659 22.5071 10.8019 22.4433 11.7407C22.3655 12.8768 21.71 12.9934 21.71 11.9602V5.19384C21.7127 4.09945 22.9293 4.04112 22.8877 5.24384Z" fill="#FF7555"/>
</svg>
