<svg width="22" height="29" viewBox="0 0 22 29" fill="none" xmlns="http://www.w3.org/2000/svg">
<path d="M21.6668 28.333H19.0002V25.6663C19.0002 24.6055 18.5787 23.5881 17.8286 22.8379C17.0784 22.0878 16.061 21.6663 15.0002 21.6663H7.00016C5.9393 21.6663 4.92188 22.0878 4.17174 22.8379C3.42159 23.5881 3.00016 24.6055 3.00016 25.6663V28.333H0.333496V25.6663C0.333496 23.8982 1.03588 22.2025 2.28612 20.9523C3.53636 19.7021 5.23205 18.9997 7.00016 18.9997H15.0002C16.7683 18.9997 18.464 19.7021 19.7142 20.9523C20.9645 22.2025 21.6668 23.8982 21.6668 25.6663V28.333ZM11.0002 16.333C9.94959 16.333 8.9093 16.1261 7.9387 15.724C6.96809 15.322 6.08618 14.7327 5.34331 13.9899C4.60044 13.247 4.01116 12.3651 3.60913 11.3945C3.20709 10.4239 3.00016 9.38358 3.00016 8.33301C3.00016 7.28243 3.20709 6.24215 3.60913 5.27154C4.01116 4.30094 4.60044 3.41902 5.34331 2.67615C6.08618 1.93328 6.96809 1.34401 7.9387 0.941971C8.9093 0.539934 9.94959 0.333008 11.0002 0.333008C13.1219 0.333008 15.1567 1.17586 16.657 2.67615C18.1573 4.17644 19.0002 6.21128 19.0002 8.33301C19.0002 10.4547 18.1573 12.4896 16.657 13.9899C15.1567 15.4902 13.1219 16.333 11.0002 16.333ZM11.0002 13.6663C12.4147 13.6663 13.7712 13.1044 14.7714 12.1042C15.7716 11.1041 16.3335 9.7475 16.3335 8.33301C16.3335 6.91852 15.7716 5.56197 14.7714 4.56177C13.7712 3.56158 12.4147 2.99967 11.0002 2.99967C9.58568 2.99967 8.22912 3.56158 7.22893 4.56177C6.22873 5.56197 5.66683 6.91852 5.66683 8.33301C5.66683 9.7475 6.22873 11.1041 7.22893 12.1042C8.22912 13.1044 9.58568 13.6663 11.0002 13.6663Z" fill="#8B8D98"/>
</svg>
