<svg width="24" height="24" viewBox="0 0 24 24" fill="none" xmlns="http://www.w3.org/2000/svg">
<path d="M3.5 1.34571C3.58419 1.34543 3.66708 1.36641 3.741 1.40671L22.203 11.5617C22.2814 11.6049 22.3468 11.6683 22.3923 11.7453C22.4378 11.8224 22.4618 11.9102 22.4618 11.9997C22.4618 12.0892 22.4378 12.177 22.3923 12.2541C22.3468 12.3311 22.2814 12.3945 22.203 12.4377L3.741 22.5917C3.66487 22.6336 3.57915 22.6549 3.49227 22.6536C3.4054 22.6522 3.32037 22.6283 3.24558 22.584C3.17078 22.5398 3.1088 22.4769 3.06573 22.4014C3.02267 22.326 3.00001 22.2406 3 22.1537V1.84571C3 1.7131 3.05268 1.58592 3.14645 1.49215C3.24021 1.39838 3.36739 1.34571 3.5 1.34571ZM5 4.38171V10.9997H10V12.9997H5V19.6167L18.85 11.9997L5 4.38171Z" fill="white"/>
</svg>
