<svg width="18" height="18" viewBox="0 0 18 18" fill="none" xmlns="http://www.w3.org/2000/svg">
<path d="M9.50563 1.90373L11.188 5.74103C11.3168 6.03477 11.5955 6.236 11.9155 6.26475L16.014 6.63223C16.4778 6.69973 16.6627 7.26845 16.3265 7.59593L13.2392 10.1895C12.9892 10.3995 12.8754 10.7295 12.9442 11.0483L13.8416 15.2493C13.9204 15.7105 13.4367 16.063 13.0217 15.8442L9.44438 13.7494C9.16939 13.5881 8.82941 13.5881 8.55443 13.7494L4.97711 15.843C4.56339 16.0605 4.07841 15.7093 4.15716 15.248L5.05461 11.047C5.12211 10.7283 5.00961 10.3983 4.75963 10.1883L1.67104 7.59718C1.33606 7.27095 1.52105 6.70098 1.98352 6.63348L6.08206 6.266C6.40204 6.23726 6.68078 6.03602 6.80952 5.74228L8.49193 1.90498C8.70067 1.48501 9.29814 1.48501 9.50563 1.90373Z" fill="#FDD835"/>
<path d="M9.38305 5.97065L9.09807 3.1433C9.08682 2.98581 9.05432 2.71582 9.3068 2.71582C9.50679 2.71582 9.61554 3.13205 9.61554 3.13205L10.4705 5.40193C10.793 6.26563 10.6605 6.56187 10.3492 6.73686C9.99177 6.93685 9.4643 6.78061 9.38305 5.97065Z" fill="#FFFF8D"/>
<path d="M12.909 9.93847L15.3614 8.02482C15.4826 7.92357 15.7014 7.76233 15.5264 7.57859C15.3876 7.4336 15.0126 7.64234 15.0126 7.64234L12.8665 8.48104C12.2265 8.70228 11.8016 9.02976 11.7641 9.44224C11.7153 9.99221 12.209 10.4159 12.909 9.93847Z" fill="#F4B400"/>
</svg>
